<?xml version="1.0" encoding="UTF-8" standalone="yes"?>
<svg xmlns="http://www.w3.org/2000/svg" xmlns:xlink="http://www.w3.org/1999/xlink" width="307.506042pt" height="208.497269pt" version="1.1" viewBox="-135.588928 723.765930 307.506042 208.497253">
  <!--
	Exported with Concepts: Smarter Sketching
	Version: 864 on iOS 13.5
	https://concepts.app/
	-->
  <title>Untitled 7</title>
  <desc>Drawing exported from Concepts: Smarter Sketching</desc>
  <g id="Pen" opacity="1.000">
    <path id="STROKE_54e0785c-f909-4e99-b049-df414f389a66" opacity="1.000" fill="none" stroke="#000000" stroke-width="0.467" stroke-opacity="1.000" stroke-linecap="round" stroke-linejoin="round" d="M -42.490 746.966 Q -42.314 746.302 -42.265 746.471 Q -41.581 745.978 -41.617 746.047 Q -40.914 745.441 -36.804 744.688 Q -32.694 743.936 -28.934 743.648 Q -25.173 743.360 -22.273 743.210 Q -19.372 743.060 -15.826 744.147 Q -12.281 745.233 -11.810 745.433 "></path>
    <path id="STROKE_c4eb769a-b8b5-4822-b8e6-49847523aaed" opacity="1.000" fill="none" stroke="#000000" stroke-width="0.517" stroke-opacity="1.000" stroke-linecap="round" stroke-linejoin="round" d="M -12.001 745.871 Q -11.833 745.351 -11.093 744.966 Q -10.352 744.581 -8.504 743.561 Q -6.656 742.542 -2.399 740.856 Q 1.858 739.170 4.276 738.414 Q 6.693 737.659 7.724 737.370 Q 8.755 737.082 9.975 736.606 Q 11.195 736.131 14.064 735.713 Q 16.933 735.294 17.083 735.271 "></path>
    <path id="STROKE_a98565b3-b034-4686-b2e5-7f56ce5416bd" opacity="1.000" fill="none" stroke="#000000" stroke-width="0.499" stroke-opacity="1.000" stroke-linecap="round" stroke-linejoin="round" d="M 17.533 734.575 Q 17.533 734.552 17.854 734.528 Q 17.984 734.785 18.204 737.528 Q 18.425 740.271 17.636 745.541 Q 16.848 750.810 15.954 755.212 Q 15.060 759.613 14.120 763.129 Q 13.181 766.644 12.499 768.726 Q 11.817 770.808 10.545 771.634 Q 10.293 771.487 10.143 771.339 "></path>
    <path id="STROKE_cbb64f99-dcb7-44fa-8951-888e8bde74dd" opacity="1.000" fill="none" stroke="#000000" stroke-width="0.457" stroke-opacity="1.000" stroke-linecap="round" stroke-linejoin="round" d="M -64.879 729.375 Q -63.580 729.935 -63.945 729.799 Q -63.388 730.030 -60.305 731.690 Q -57.221 733.351 -52.998 736.940 Q -48.774 740.530 -46.178 742.878 Q -43.583 745.226 -42.637 746.061 Q -41.692 746.895 -41.644 746.919 "></path>
    <path id="STROKE_b8ce2bec-8555-4a37-baa1-171ee0826806" opacity="1.000" fill="none" stroke="#000000" stroke-width="0.464" stroke-opacity="1.000" stroke-linecap="round" stroke-linejoin="round" d="M -65.288 728.927 Q -65.294 729.005 -65.283 728.807 Q -65.272 728.610 -65.343 734.490 Q -65.414 740.370 -65.351 746.378 Q -65.289 752.386 -65.344 755.368 Q -65.399 758.349 -65.021 760.555 Q -64.643 762.761 -62.337 768.078 Q -60.032 773.396 -59.834 773.768 "></path>
    <path id="STROKE_e746e814-5830-44d7-9296-f6472f834f1a" opacity="1.000" fill="none" stroke="#000000" stroke-width="0.472" stroke-opacity="1.000" stroke-linecap="round" stroke-linejoin="round" d="M -64.443 732.099 Q -64.443 732.075 -64.443 731.604 Q -64.546 731.519 -61.891 734.056 Q -59.235 736.593 -54.916 741.325 Q -50.597 746.056 -47.876 749.015 Q -45.154 751.974 -42.585 756.481 Q -42.606 756.720 -43.212 755.979 Q -43.819 755.238 -44.167 754.795 "></path>
    <path id="STROKE_ef109f1b-1cb6-4074-bc1d-627bc7c1a86f" opacity="1.000" fill="none" stroke="#000000" stroke-width="0.459" stroke-opacity="1.000" stroke-linecap="round" stroke-linejoin="round" d="M -10.965 754.395 Q -10.965 754.419 -11.360 754.443 Q -10.632 754.184 -8.172 751.311 Q -5.712 748.437 -1.483 745.836 Q 2.746 743.235 7.289 740.877 Q 11.832 738.519 13.888 737.652 Q 15.945 736.785 16.197 736.661 "></path>
    <circle id="STROKE_d1f0b646-9c60-4543-a6d2-8c2055d5b275" opacity="1.000" fill="#000000" stroke="#000000" stroke-width="0.1" stroke-opacity="1.000" fill-opacity="1.000" cx="16.783" cy="737.499" r="0.256"></circle>
    <path id="STROKE_7bce9db7-bda1-4804-ab0c-916d9e645002" opacity="1.000" fill="none" stroke="#000000" stroke-width="0.464" stroke-opacity="1.000" stroke-linecap="round" stroke-linejoin="round" d="M -59.043 773.815 Q -58.824 774.018 -59.126 773.935 Q -59.427 773.853 -58.942 776.741 Q -58.457 779.628 -57.969 781.183 Q -57.482 782.739 -57.202 783.409 Q -56.922 784.080 -56.802 784.474 Q -56.683 784.868 -56.641 784.967 Q -56.600 785.066 -56.477 785.492 Q -56.354 785.917 -56.250 786.296 Q -56.146 786.675 -55.741 787.613 Q -55.335 788.551 -55.286 788.677 Q -55.237 788.802 -55.228 788.850 Q -55.219 788.898 -55.233 788.844 Q -55.246 788.790 -55.144 789.316 Q -55.043 789.843 -54.980 790.071 Q -54.918 790.300 -54.909 790.292 Q -54.900 790.284 -54.893 790.318 Q -54.886 790.351 -54.864 790.459 Q -54.843 790.568 -54.774 790.734 Q -54.706 790.901 -54.629 792.180 Q -54.552 793.458 -54.584 794.128 Q -54.616 794.797 -54.421 795.247 Q -54.226 795.697 -54.024 796.066 Q -53.822 796.435 -53.744 796.503 Q -53.665 796.572 -53.811 796.541 Q -53.956 796.511 -52.182 798.476 Q -50.408 800.442 -48.258 802.213 Q -46.109 803.984 -44.855 804.620 Q -43.601 805.255 -43.526 805.331 "></path>
    <path id="STROKE_5a774b94-80a3-4db6-8de7-247dcfe03fbd" opacity="1.000" fill="none" stroke="#000000" stroke-width="0.470" stroke-opacity="1.000" stroke-linecap="round" stroke-linejoin="round" d="M 10.593 771.244 Q 10.593 771.757 10.593 771.687 Q 10.593 772.945 10.593 772.558 Q 10.521 773.769 10.518 773.544 Q 9.994 774.901 9.615 780.398 Q 9.236 785.894 9.335 788.483 Q 9.433 791.071 9.316 792.079 Q 9.199 793.086 9.197 793.144 Q 9.195 793.202 9.192 793.225 Q 9.190 793.249 9.177 793.348 Q 9.164 793.448 9.184 793.279 Q 9.205 793.110 9.167 793.452 Q 9.129 793.794 9.060 794.117 Q 8.990 794.439 8.922 794.761 Q 8.854 795.083 8.872 794.995 Q 8.890 794.907 8.902 794.897 L 8.902 794.921 Q 8.542 796.057 8.554 796.015 Q 8.565 795.973 8.588 795.888 Q 8.529 796.025 8.466 796.264 Q 8.438 796.264 8.411 796.264 Q 8.480 796.179 8.406 796.266 Q 8.333 796.352 8.438 796.256 Q 8.544 796.159 7.648 797.668 Q 6.751 799.177 4.901 800.897 Q 3.051 802.617 2.100 803.317 Q 1.150 804.016 0.980 804.140 "></path>
    <path id="STROKE_7f2f1ab4-7f8e-4865-bb45-5c4ce5b829e9" opacity="1.000" fill="none" stroke="#000000" stroke-width="0.463" stroke-opacity="1.000" stroke-linecap="round" stroke-linejoin="round" d="M -39.804 774.863 Q -39.708 774.672 -39.151 775.069 Q -38.593 775.466 -38.366 775.869 Q -38.140 776.272 -37.856 777.382 Q -37.572 778.492 -37.470 779.400 Q -37.367 780.308 -37.389 780.357 Q -37.412 780.407 -37.302 782.293 Q -37.192 784.179 -37.429 785.607 Q -37.666 787.035 -38.648 787.671 Q -39.631 788.306 -40.090 788.050 Q -40.549 787.794 -40.990 787.250 Q -41.432 786.707 -42.092 785.392 Q -42.752 784.078 -43.010 783.637 Q -43.269 783.195 -43.541 781.812 Q -43.813 780.428 -43.562 779.139 Q -43.311 777.850 -42.627 776.658 Q -41.942 775.466 -41.197 775.236 Q -40.451 775.006 -40.349 775.006 "></path>
    <path id="STROKE_307ca657-1eb8-4bff-a6d7-db7151cd498b" opacity="1.000" fill="none" stroke="#000000" stroke-width="0.464" stroke-opacity="1.000" stroke-linecap="round" stroke-linejoin="round" d="M -8.442 774.015 Q -8.107 774.467 -7.517 774.963 Q -6.927 775.460 -6.597 776.388 Q -6.268 777.317 -6.162 777.919 Q -6.056 778.520 -5.936 780.624 Q -5.816 782.729 -5.996 784.324 Q -6.177 785.920 -6.463 786.688 Q -6.749 787.457 -7.118 787.724 Q -7.488 787.991 -7.767 788.160 Q -8.046 788.328 -7.968 788.258 Q -7.889 788.187 -8.058 788.302 Q -8.227 788.416 -9.237 788.131 Q -10.248 787.845 -10.682 787.727 Q -11.117 787.608 -11.355 787.216 Q -11.593 786.824 -11.675 786.969 Q -11.757 787.115 -12.070 784.282 Q -12.382 781.450 -12.381 779.652 Q -12.379 777.854 -12.233 776.859 Q -12.087 775.863 -11.579 775.516 Q -11.070 775.169 -10.681 775.109 Q -10.292 775.048 -10.351 775.051 Q -10.411 775.053 -10.356 775.048 Q -10.300 775.043 -10.393 775.092 Q -10.485 775.141 -9.921 774.925 Q -9.356 774.710 -9.233 774.558 "></path>
    <path id="STROKE_3cee155e-53bc-48de-b29a-d4578bb35e06" opacity="1.000" fill="none" stroke="#000000" stroke-width="0.475" stroke-opacity="1.000" stroke-linecap="round" stroke-linejoin="round" d="M -32.181 799.826 Q -32.290 799.867 -31.585 800.830 Q -30.879 801.793 -30.178 802.282 Q -29.477 802.770 -28.839 803.005 Q -28.201 803.241 -26.697 802.698 Q -25.194 802.154 -23.155 800.993 Q -23.155 800.945 -23.114 800.674 Q -22.874 800.724 -23.066 800.701 Q -23.259 800.678 -22.745 800.612 Q -22.231 800.546 -21.924 800.877 Q -21.617 801.208 -21.161 801.594 Q -20.704 801.980 -20.257 802.127 Q -19.809 802.274 -19.963 802.312 Q -20.117 802.349 -18.492 802.644 Q -16.867 802.940 -15.528 803.227 Q -14.188 803.515 -12.467 801.475 Q -10.747 799.435 -10.719 799.435 "></path>
    <path id="STROKE_46b4418a-34c1-4e01-b875-1648b1843c05" opacity="1.000" fill="none" stroke="#000000" stroke-width="0.523" stroke-opacity="1.000" stroke-linecap="round" stroke-linejoin="round" d="M 4.348 790.816 Q 4.316 790.851 4.047 791.066 Q 3.778 791.281 3.819 791.240 Q 3.860 791.198 3.853 791.182 Q 3.846 791.166 3.802 791.159 Q 3.903 791.336 3.751 790.863 Q 3.600 790.390 4.463 790.085 Q 5.327 789.781 7.433 789.661 Q 9.539 789.542 13.587 789.070 Q 17.635 788.598 19.678 788.404 Q 21.721 788.210 23.988 788.414 Q 26.255 788.619 27.651 789.091 Q 29.047 789.563 29.583 790.163 Q 30.119 790.764 30.269 791.064 "></path>
    <path id="STROKE_eac30bde-19b2-40bb-bf70-a65af0181c2a" opacity="1.000" fill="none" stroke="#000000" stroke-width="0.582" stroke-opacity="1.000" stroke-linecap="round" stroke-linejoin="round" d="M 4.948 797.254 Q 4.887 797.110 4.743 796.659 Q 4.885 796.320 7.269 796.411 Q 9.652 796.503 12.985 797.883 Q 16.318 799.264 19.094 801.354 Q 21.869 803.445 22.047 803.645 "></path>
    <path id="STROKE_06a73023-351e-4a4e-86c1-450f056c0e2b" opacity="1.000" fill="none" stroke="#000000" stroke-width="0.474" stroke-opacity="1.000" stroke-linecap="round" stroke-linejoin="round" d="M -46.403 793.492 Q -46.303 793.469 -46.259 793.444 Q -46.215 793.420 -46.133 793.378 Q -46.051 793.336 -46.792 792.819 Q -47.533 792.303 -48.570 792.260 Q -49.607 792.217 -52.657 792.051 Q -55.707 791.884 -59.390 792.504 Q -63.074 793.124 -65.180 793.696 Q -67.287 794.269 -69.818 795.258 Q -72.349 796.248 -74.206 798.712 Q -74.087 798.906 -73.639 798.997 Q -73.190 799.088 -72.720 799.188 "></path>
    <path id="STROKE_605a9f49-df20-46b3-83e0-0f085fc0cf88" opacity="1.000" fill="none" stroke="#000000" stroke-width="0.461" stroke-opacity="1.000" stroke-linecap="round" stroke-linejoin="round" d="M -46.949 798.445 Q -46.921 798.445 -46.499 798.340 Q -47.177 798.340 -47.167 798.340 Q -46.909 798.162 -50.828 799.887 Q -54.747 801.611 -57.177 802.839 Q -59.607 804.066 -60.852 804.876 Q -62.097 805.685 -62.104 806.548 Q -62.111 807.412 -62.016 807.560 "></path>
    <path id="STROKE_4dba4a5c-54de-434f-81dd-3f3e64bcec8c" opacity="1.000" fill="none" stroke="#000000" stroke-width="0.459" stroke-opacity="1.000" stroke-linecap="round" stroke-linejoin="round" d="M -40.199 774.558 Q -40.075 774.500 -40.189 774.583 Q -40.304 774.665 -40.213 774.599 Q -40.122 774.534 -40.184 774.599 Q -40.245 774.664 -40.644 775.043 Q -41.043 775.422 -40.996 775.380 Q -40.948 775.337 -40.924 775.315 Q -40.901 775.293 -41.310 775.792 Q -41.720 776.292 -43.281 780.558 Q -43.173 780.296 -42.964 779.956 Q -42.756 779.615 -42.585 779.368 "></path>
    <path id="STROKE_414b433f-740a-4610-897b-f3974a6d8430" opacity="1.000" fill="none" stroke="#000000" stroke-width="0.459" stroke-opacity="1.000" stroke-linecap="round" stroke-linejoin="round" d="M -39.804 775.701 Q -40.416 775.882 -40.541 776.236 Q -40.666 776.590 -40.823 776.899 Q -40.980 777.208 -41.078 777.457 Q -41.177 777.706 -41.446 778.055 Q -41.714 778.404 -43.472 782.939 Q -43.301 782.911 -43.131 782.882 "></path>
    <path id="STROKE_34dc9a47-1734-477c-ba8d-0be3a4c4eda5" opacity="1.000" fill="none" stroke="#000000" stroke-width="0.459" stroke-opacity="1.000" stroke-linecap="round" stroke-linejoin="round" d="M -38.972 775.606 Q -39.542 776.021 -39.361 775.972 Q -38.998 775.163 -42.735 783.035 Q -42.558 783.058 -42.381 783.082 "></path>
    <path id="STROKE_563715e2-e9b7-409c-96f4-16f3878d0f37" opacity="1.000" fill="none" stroke="#000000" stroke-width="0.459" stroke-opacity="1.000" stroke-linecap="round" stroke-linejoin="round" d="M -38.317 776.101 Q -38.317 776.072 -38.317 775.853 Q -38.495 775.999 -42.231 784.025 Q -42.210 784.025 -42.101 783.987 Q -41.992 783.949 -41.794 783.873 "></path>
    <path id="STROKE_0f4de170-3e8f-4cbf-979a-851f5f09a451" opacity="1.000" fill="none" stroke="#000000" stroke-width="0.459" stroke-opacity="1.000" stroke-linecap="round" stroke-linejoin="round" d="M -37.827 777.587 Q -37.816 776.613 -37.799 776.987 L -37.772 776.987 Q -37.772 776.963 -37.772 776.939 Q -38.358 777.843 -38.174 777.606 Q -38.065 777.393 -41.290 785.216 Q -41.290 785.192 -41.280 785.092 Q -41.269 784.992 -41.249 784.816 "></path>
    <path id="STROKE_0303c1bc-8024-4e4c-872e-815c4bc4e065" opacity="1.000" fill="none" stroke="#000000" stroke-width="0.455" stroke-opacity="1.000" stroke-linecap="round" stroke-linejoin="round" d="M -37.827 779.120 Q -37.621 778.652 -41.290 787.444 Q -41.242 787.368 -41.133 787.232 Q -41.024 787.097 -40.854 786.901 "></path>
    <path id="STROKE_0129e158-7c6a-4396-baa7-5f8116b9e23e" opacity="1.000" fill="none" stroke="#000000" stroke-width="0.460" stroke-opacity="1.000" stroke-linecap="round" stroke-linejoin="round" d="M -37.336 780.854 Q -37.336 780.877 -37.336 780.901 Q -37.811 781.297 -37.704 781.297 Q -37.523 780.626 -39.763 786.901 Q -39.763 786.873 -39.712 786.761 Q -39.660 786.649 -39.558 786.454 "></path>
    <path id="STROKE_b2ab82b1-00e5-4ae9-92e3-6b02769a6462" opacity="1.000" fill="none" stroke="#000000" stroke-width="0.460" stroke-opacity="1.000" stroke-linecap="round" stroke-linejoin="round" d="M -37.377 783.187 Q -37.575 783.542 -37.554 783.506 Q -37.787 784.019 -37.826 784.131 Q -37.866 784.243 -37.854 784.173 Q -37.548 783.515 -38.863 786.454 Q -38.720 786.254 -38.576 786.054 "></path>
    <path id="STROKE_c8c4b290-25ae-4db8-9b1b-d3c30bde11a5" opacity="1.000" fill="none" stroke="#000000" stroke-width="0.459" stroke-opacity="1.000" stroke-linecap="round" stroke-linejoin="round" d="M -10.624 775.453 Q -10.644 775.453 -10.665 775.453 Q -10.622 775.060 -11.162 776.166 Q -11.701 777.271 -12.151 778.720 Q -12.131 778.720 -12.110 778.720 "></path>
    <path id="STROKE_8e9caf49-c753-489c-b1fe-e6cbb69fbad6" opacity="1.000" fill="none" stroke="#000000" stroke-width="0.459" stroke-opacity="1.000" stroke-linecap="round" stroke-linejoin="round" d="M -8.838 774.911 Q -9.374 774.957 -9.281 775.082 Q -9.848 775.703 -12.110 780.206 Q -12.008 780.111 -11.906 780.016 "></path>
    <path id="STROKE_c9886f62-89cb-4487-86e1-3dec9aa5a172" opacity="1.000" fill="none" stroke="#000000" stroke-width="0.459" stroke-opacity="1.000" stroke-linecap="round" stroke-linejoin="round" d="M -7.747 775.053 Q -8.369 775.569 -8.190 775.477 Q -7.993 774.878 -12.056 781.844 Q -11.981 781.844 -11.844 781.758 Q -11.708 781.673 -11.510 781.501 "></path>
    <path id="STROKE_b253da13-6717-4e06-b4e5-44cb0cdc87b7" opacity="1.000" fill="none" stroke="#000000" stroke-width="0.459" stroke-opacity="1.000" stroke-linecap="round" stroke-linejoin="round" d="M -6.847 775.406 Q -6.847 775.382 -6.847 775.253 Q -7.264 775.532 -7.201 775.577 Q -7.540 776.213 -7.522 776.168 Q -8.276 777.219 -11.415 783.035 Q -11.387 783.011 -11.289 782.899 Q -11.190 782.787 -11.019 782.587 "></path>
    <path id="STROKE_7a24e741-6d27-4f91-976f-0a26e2c80078" opacity="1.000" fill="none" stroke="#000000" stroke-width="0.459" stroke-opacity="1.000" stroke-linecap="round" stroke-linejoin="round" d="M -6.301 776.844 Q -6.301 776.815 -6.301 776.492 Q -6.678 776.975 -6.608 776.939 Q -7.002 777.652 -6.976 777.606 Q -7.122 777.999 -8.620 780.283 Q -10.117 782.567 -11.660 785.663 Q -11.612 785.563 -11.490 785.390 Q -11.367 785.216 -11.169 784.968 "></path>
    <path id="STROKE_8446d256-1a2c-41b3-a684-4f527234287f" opacity="1.000" fill="none" stroke="#000000" stroke-width="0.460" stroke-opacity="1.000" stroke-linecap="round" stroke-linejoin="round" d="M -6.062 778.029 Q -6.425 778.445 -7.394 780.119 Q -8.362 781.792 -9.508 783.505 Q -10.653 785.218 -11.272 786.946 Q -11.258 786.958 -11.243 786.971 "></path>
    <path id="STROKE_554491f1-e4be-4e6b-b7be-8ec0286dc394" opacity="1.000" fill="none" stroke="#000000" stroke-width="0.465" stroke-opacity="1.000" stroke-linecap="round" stroke-linejoin="round" d="M -6.300 779.728 Q -6.300 779.715 -6.199 779.622 Q -5.813 779.876 -7.357 782.085 Q -8.900 784.293 -9.498 785.599 Q -10.096 786.906 -10.070 786.946 "></path>
    <path id="STROKE_72026bcf-b8ba-475f-8b3c-d0025b210942" opacity="1.000" fill="none" stroke="#000000" stroke-width="0.465" stroke-opacity="1.000" stroke-linecap="round" stroke-linejoin="round" d="M -5.990 781.663 Q -5.990 781.650 -5.990 781.587 Q -6.072 781.816 -6.028 781.724 Q -5.985 781.631 -6.069 781.806 Q -6.153 781.982 -6.325 782.304 Q -6.496 782.627 -6.526 782.662 Q -6.557 782.698 -6.626 782.798 Q -6.696 782.899 -9.229 786.996 Q -9.385 787.096 -9.143 786.968 Q -8.901 786.840 -8.782 786.735 "></path>
    <path id="STROKE_3c055f21-0798-4359-a1cc-4ca762a7f38d" opacity="1.000" fill="none" stroke="#000000" stroke-width="0.465" stroke-opacity="1.000" stroke-linecap="round" stroke-linejoin="round" d="M -5.774 784.015 Q -5.774 784.003 -5.774 783.940 Q -6.102 784.252 -8.077 787.443 Q -8.027 787.456 -7.976 787.469 "></path>
    <path id="STROKE_4157eb4c-654a-4bd9-a8d8-29f0612c892a" opacity="1.000" fill="none" stroke="#000000" stroke-width="0.466" stroke-opacity="1.000" stroke-linecap="round" stroke-linejoin="round" d="M -6.275 752.558 Q -6.219 752.238 7.752 742.814 Q 7.679 743.155 4.745 745.841 Q 1.812 748.526 -0.148 750.238 Q -2.108 751.951 -3.101 753.269 Q -3.056 753.336 -3.012 753.380 "></path>
    <path id="STROKE_7e877de4-be22-4de5-85b0-71fc39e13360" opacity="1.000" fill="none" stroke="#000000" stroke-width="0.475" stroke-opacity="1.000" stroke-linecap="round" stroke-linejoin="round" d="M -0.761 756.004 Q -1.379 756.288 -0.066 755.447 Q 1.247 754.607 2.934 754.075 Q 4.621 753.543 5.032 753.336 "></path>
    <path id="STROKE_6bd465ab-3563-4a13-a6f5-5de59b0702f9" opacity="1.000" fill="none" stroke="#000000" stroke-width="0.457" stroke-opacity="1.000" stroke-linecap="round" stroke-linejoin="round" d="M 4.071 758.672 Q 4.071 758.694 4.020 758.849 Q 3.955 758.902 4.402 758.785 Q 4.849 758.667 5.121 758.486 "></path>
    <path id="STROKE_8f578869-440c-4cfe-8e1e-518c6c286c68" opacity="1.000" fill="none" stroke="#000000" stroke-width="0.464" stroke-opacity="1.000" stroke-linecap="round" stroke-linejoin="round" d="M -48.242 752.735 Q -48.163 751.769 -50.988 749.843 Q -53.814 747.918 -56.466 745.729 Q -59.118 743.539 -61.118 741.206 Q -61.118 741.228 -61.118 741.568 Q -60.979 741.598 -60.600 741.768 Q -60.221 741.939 -59.002 743.115 Q -57.783 744.291 -57.071 745.147 Q -56.360 746.002 -54.856 748.476 Q -53.352 750.950 -53.213 751.180 "></path>
    <path id="STROKE_dc3ac9f9-1ba1-49ad-bda8-f30a0512929f" opacity="1.000" fill="none" stroke="#000000" stroke-width="0.477" stroke-opacity="1.000" stroke-linecap="round" stroke-linejoin="round" d="M -61.118 748.600 Q -61.452 748.451 -58.650 750.305 Q -55.848 752.159 -54.369 753.666 Q -52.890 755.173 -52.846 755.173 "></path>
    <path id="STROKE_15f58320-e87b-467e-8b54-87da6cbbcc7d" opacity="1.000" fill="none" stroke="#000000" stroke-width="0.464" stroke-opacity="1.000" stroke-linecap="round" stroke-linejoin="round" d="M -57.210 756.923 Q -56.862 757.386 -57.104 757.202 Q -57.346 757.017 -56.427 757.555 Q -55.508 758.093 -55.414 758.159 "></path>
    <path id="STROKE_f5bca3dc-81e0-483a-bc8a-1d97fbe1d69e" opacity="1.000" fill="none" stroke="#000000" stroke-width="0.461" stroke-opacity="1.000" stroke-linecap="round" stroke-linejoin="round" d="M 0.631 804.413 Q 0.690 804.380 0.127 805.686 Q 1.407 805.308 0.989 805.382 Q 0.894 805.465 7.486 800.814 Q 14.078 796.163 18.784 793.737 Q 23.490 791.311 25.628 790.052 Q 27.767 788.793 30.366 788.133 Q 32.966 787.473 34.335 787.406 Q 35.705 787.338 36.437 787.494 Q 37.169 787.650 37.380 788.419 Q 37.590 789.187 37.672 790.091 Q 37.754 790.996 37.732 791.536 Q 37.710 792.075 37.717 792.397 Q 37.725 792.719 37.720 793.076 Q 37.714 793.433 37.664 793.948 Q 37.613 794.463 37.622 794.455 Q 37.631 794.448 36.834 797.205 Q 36.037 799.962 34.134 803.420 Q 32.230 806.879 31.363 808.061 Q 30.497 809.244 26.847 813.164 Q 23.198 817.084 17.735 821.075 Q 12.272 825.067 12.097 825.140 "></path>
    <path id="STROKE_8438d0e9-8d96-4e3a-9b76-386435b15568" opacity="1.000" fill="none" stroke="#000000" stroke-width="0.464" stroke-opacity="1.000" stroke-linecap="round" stroke-linejoin="round" d="M -44.503 805.480 Q -44.616 805.423 -44.563 805.486 Q -44.510 805.550 -44.760 805.287 Q -45.010 805.025 -45.202 804.775 Q -45.394 804.526 -45.739 804.162 Q -46.084 803.799 -46.101 803.808 Q -46.117 803.817 -46.096 803.820 Q -46.075 803.824 -46.229 803.759 Q -46.383 803.694 -48.322 802.202 Q -50.262 800.710 -52.756 799.051 Q -55.250 797.392 -56.685 796.406 Q -58.120 795.420 -62.442 793.469 Q -66.763 791.518 -69.707 790.327 Q -72.650 789.136 -74.928 788.911 Q -77.206 788.686 -79.685 787.921 Q -82.164 787.156 -83.186 786.752 Q -84.209 786.348 -85.227 786.340 Q -86.244 786.332 -86.770 786.399 Q -87.295 786.466 -87.655 786.670 Q -88.015 786.875 -87.919 786.856 Q -87.823 786.836 -87.932 786.915 Q -88.041 786.994 -88.302 787.080 Q -88.563 787.166 -88.879 788.150 Q -89.196 789.135 -89.123 789.709 Q -89.050 790.284 -89.050 790.537 Q -89.051 790.790 -88.953 790.926 Q -88.854 791.061 -88.938 791.924 Q -89.023 792.787 -87.255 795.308 Q -85.487 797.829 -83.484 799.924 Q -81.482 802.020 -80.361 803.177 Q -79.241 804.333 -78.609 804.983 Q -77.978 805.633 -76.623 807.014 Q -75.269 808.396 -73.263 810.661 Q -71.256 812.926 -68.669 815.776 Q -66.082 818.626 -63.407 821.157 Q -60.732 823.688 -59.001 825.414 Q -57.269 827.140 -56.020 828.133 Q -54.770 829.127 -54.161 829.175 Q -53.551 829.223 -53.474 829.223 "></path>
    <path id="STROKE_4d9bb421-35c8-4761-9b47-d5f674430939" opacity="1.000" fill="none" stroke="#000000" stroke-width="0.462" stroke-opacity="1.000" stroke-linecap="round" stroke-linejoin="round" d="M 12.966 824.435 Q 12.966 824.406 13.064 823.975 Q 12.821 824.125 12.521 824.450 Q 12.220 824.774 12.201 824.798 Q 12.182 824.822 12.180 824.791 Q 12.177 824.760 11.240 825.835 Q 10.302 826.909 8.908 828.573 Q 7.514 830.236 7.458 830.339 "></path>
    <path id="STROKE_364ff26b-5306-41e6-a051-a917d001f741" opacity="1.000" fill="none" stroke="#000000" stroke-width="0.478" stroke-opacity="1.000" stroke-linecap="round" stroke-linejoin="round" d="M -54.189 830.642 Q -54.161 830.642 -54.133 830.642 Q -54.024 830.593 -53.593 834.748 Q -53.162 838.902 -53.633 843.038 Q -54.104 847.174 -54.605 851.170 Q -55.107 855.166 -55.491 858.239 Q -55.876 861.312 -56.814 866.781 Q -57.752 872.250 -58.484 875.058 Q -59.215 877.865 -59.444 879.276 Q -59.673 880.687 -59.823 882.934 Q -59.973 885.180 -59.407 886.698 Q -58.841 888.215 -57.348 890.185 Q -55.855 892.155 -54.758 893.240 Q -53.662 894.324 -52.769 895.054 Q -51.876 895.784 -46.700 898.736 Q -41.525 901.689 -41.293 901.791 "></path>
    <path id="STROKE_e0e7a818-307e-4cc5-9e9f-1db1aab1f2f9" opacity="1.000" fill="none" stroke="#000000" stroke-width="0.477" stroke-opacity="1.000" stroke-linecap="round" stroke-linejoin="round" d="M 7.976 830.035 Q 8.021 830.905 8.046 830.672 Q 8.273 830.420 8.553 836.525 Q 8.833 842.630 9.639 848.667 Q 10.444 854.704 10.769 857.628 Q 11.094 860.552 12.312 865.530 Q 13.530 870.509 14.337 873.940 Q 15.144 877.370 15.333 879.909 Q 15.522 882.448 15.618 883.955 Q 15.715 885.462 15.350 887.682 Q 14.986 889.901 14.187 891.739 Q 13.388 893.577 6.806 897.841 Q 0.225 902.105 -0.027 902.105 "></path>
    <path id="STROKE_38f6a147-38d4-493b-95cc-453bb37b9851" opacity="1.000" fill="none" stroke="#000000" stroke-width="0.477" stroke-opacity="1.000" stroke-linecap="round" stroke-linejoin="round" d="M 2.818 900.881 Q 2.655 900.951 1.899 901.112 Q 1.143 901.272 1.382 901.225 Q 1.620 901.177 1.585 901.181 Q 1.549 901.185 1.118 901.346 Q 0.686 901.506 0.877 901.402 Q 1.067 901.298 0.178 901.855 Q -0.711 902.412 -2.831 902.868 Q -2.726 902.712 -2.621 902.555 "></path>
    <path id="STROKE_6817895a-0d05-469b-9b19-f2565b42abec" opacity="1.000" fill="none" stroke="#000000" stroke-width="0.480" stroke-opacity="1.000" stroke-linecap="round" stroke-linejoin="round" d="M -30.038 900.058 Q -30.357 900.081 -30.367 900.117 L -30.388 900.117 Q -29.250 900.388 -26.333 899.073 Q -23.416 897.759 -20.685 897.414 Q -17.954 897.070 -15.872 897.637 Q -13.790 898.205 -12.656 898.630 Q -11.522 899.055 -9.675 900.541 Q -7.828 902.026 -7.625 902.105 "></path>
    <path id="STROKE_062b24a2-d003-4cba-aa4e-380aed9d7bb3" opacity="1.000" fill="none" stroke="#000000" stroke-width="0.500" stroke-opacity="1.000" stroke-linecap="round" stroke-linejoin="round" d="M -48.624 901.233 Q -49.228 901.768 -49.164 901.664 Q -49.371 901.802 -50.441 902.354 Q -51.512 902.907 -52.598 903.258 Q -53.684 903.608 -54.401 903.734 Q -55.118 903.860 -55.915 903.939 Q -56.713 904.017 -57.791 904.343 Q -58.870 904.669 -59.894 905.619 Q -60.919 906.569 -60.922 906.774 Q -60.924 906.979 -61.646 918.323 Q -62.156 918.783 -53.606 919.235 Q -45.055 919.687 -35.224 919.718 Q -35.357 919.645 -35.490 919.571 "></path>
    <path id="STROKE_da34ef15-9375-4b0a-836a-eeb0e6bf6a5f" opacity="1.000" fill="none" stroke="#000000" stroke-width="0.468" stroke-opacity="1.000" stroke-linecap="round" stroke-linejoin="round" d="M -34.411 918.191 Q -34.158 918.281 -34.818 918.906 Q -35.009 918.478 -34.650 917.892 Q -34.290 917.306 -33.456 916.247 Q -32.622 915.189 -31.725 914.075 Q -30.827 912.960 -30.497 912.445 Q -30.167 911.930 -30.049 911.741 Q -29.932 911.552 -29.681 911.172 Q -29.431 910.791 -29.385 910.631 Q -29.340 910.470 -28.868 909.618 Q -28.397 908.767 -27.916 908.176 Q -27.436 907.586 -27.496 907.671 Q -27.557 907.756 -27.489 907.529 Q -27.421 907.301 -27.361 907.055 Q -27.301 906.809 -27.336 906.798 Q -27.372 906.786 -27.298 906.976 Q -27.225 907.165 -26.911 903.666 Q -26.597 900.166 -26.519 899.961 "></path>
    <path id="STROKE_735dd632-ad38-43fc-b295-cad502b50846" opacity="1.000" fill="none" stroke="#000000" stroke-width="0.460" stroke-opacity="1.000" stroke-linecap="round" stroke-linejoin="round" d="M -13.330 899.246 Q -13.330 900.297 -13.330 900.240 Q -13.413 901.060 -13.305 904.498 Q -13.196 907.935 -13.063 908.165 "></path>
    <path id="STROKE_8fa571b2-77e8-411b-8896-8f0509bdf996" opacity="1.000" fill="none" stroke="#000000" stroke-width="0.461" stroke-opacity="1.000" stroke-linecap="round" stroke-linejoin="round" d="M -12.559 907.343 Q -13.027 907.081 -13.073 907.044 Q -13.119 907.007 -13.070 907.088 Q -13.147 907.088 -13.273 907.088 Q -13.258 908.013 -13.245 907.754 Q -13.193 907.664 -11.239 910.642 Q -9.285 913.619 -7.397 916.053 Q -5.510 918.487 -4.383 919.651 Q -3.257 920.815 -2.424 921.500 Q -2.424 921.476 -2.501 921.363 Q -2.579 921.250 -2.733 921.050 "></path>
    <path id="STROKE_77afb567-f074-477d-97f7-89f7042226a0" opacity="1.000" fill="none" stroke="#000000" stroke-width="0.598" stroke-opacity="1.000" stroke-linecap="round" stroke-linejoin="round" d="M -0.336 921.559 Q -0.336 921.590 -0.336 921.246 Q -0.012 920.951 3.313 921.568 Q 6.638 922.184 9.798 922.352 Q 12.957 922.520 15.593 921.706 Q 18.230 920.893 18.713 920.688 "></path>
    <path id="STROKE_16bcc89f-90a3-4517-b5ab-600ab0fc85b3" opacity="1.000" fill="none" stroke="#000000" stroke-width="0.465" stroke-opacity="1.000" stroke-linecap="round" stroke-linejoin="round" d="M 16.484 906.687 Q 16.484 906.657 16.484 906.432 Q 17.757 907.221 17.467 907.045 Q 17.177 906.869 18.352 907.868 Q 19.526 908.868 21.361 910.088 Q 23.195 911.308 21.881 920.335 Q 21.853 920.311 21.825 920.286 "></path>
    <path id="STROKE_652c3017-e97e-41fa-b413-7bc98cfc1e38" opacity="1.000" fill="none" stroke="#000000" stroke-width="0.462" stroke-opacity="1.000" stroke-linecap="round" stroke-linejoin="round" d="M 1.711 901.184 Q 2.448 901.352 2.468 901.360 Q 2.488 901.369 2.539 901.384 Q 2.591 901.399 2.861 901.461 Q 3.131 901.522 3.652 901.691 Q 4.173 901.860 4.834 902.082 Q 5.496 902.304 5.997 902.482 Q 6.498 902.659 7.211 902.922 Q 7.924 903.186 9.298 903.949 Q 10.672 904.711 13.116 905.697 Q 15.559 906.682 15.615 906.736 "></path>
    <path id="STROKE_b8be3717-8515-4fa0-8498-7d5d333db5e7" opacity="1.000" fill="none" stroke="#000000" stroke-width="0.463" stroke-opacity="1.000" stroke-linecap="round" stroke-linejoin="round" d="M -52.857 911.416 Q -52.891 910.717 -52.731 916.257 Q -52.351 916.386 -52.275 916.424 Q -52.198 916.463 -52.044 916.566 "></path>
    <path id="STROKE_3e0ac810-1151-4d21-938c-2a1a1fb7f54e" opacity="1.000" fill="none" stroke="#000000" stroke-width="0.462" stroke-opacity="1.000" stroke-linecap="round" stroke-linejoin="round" d="M -45.975 913.305 Q -46.069 914.060 -46.031 913.917 Q -46.031 915.020 -46.031 914.808 Q -46.289 914.965 -45.817 916.057 Q -45.344 917.148 -45.162 917.329 "></path>
    <path id="STROKE_a09c0924-aafc-4c01-9b90-9589687caeef" opacity="1.000" fill="none" stroke="#000000" stroke-width="0.455" stroke-opacity="1.000" stroke-linecap="round" stroke-linejoin="round" d="M 8.481 916.664 Q 8.502 916.518 8.684 918.272 Q 8.866 920.027 8.943 920.129 "></path>
    <path id="STROKE_1b39ac02-2380-4457-8f19-b6e6f3528494" opacity="1.000" fill="none" stroke="#000000" stroke-width="0.456" stroke-opacity="1.000" stroke-linecap="round" stroke-linejoin="round" d="M 13.162 915.694 Q 13.794 915.829 13.702 915.851 Q 14.519 915.160 14.531 918.369 Q 14.543 921.578 14.396 921.657 "></path>
    <path id="STROKE_733d76e5-2fe7-4b38-8f60-1dde6531ca13" opacity="1.000" fill="none" stroke="#000000" stroke-width="0.458" stroke-opacity="1.000" stroke-linecap="round" stroke-linejoin="round" d="M 33.949 789.237 Q 33.949 789.213 33.949 789.140 Q 33.923 789.171 33.963 789.076 Q 34.002 788.981 33.768 789.167 Q 33.534 789.352 33.373 789.517 Q 33.211 789.681 32.736 790.339 Q 32.260 790.998 31.398 792.400 Q 31.532 792.273 31.665 792.145 "></path>
    <path id="STROKE_969183f1-24ef-4899-a06f-8f78b240bcae" opacity="1.000" fill="none" stroke="#000000" stroke-width="0.457" stroke-opacity="1.000" stroke-linecap="round" stroke-linejoin="round" d="M 37.720 789.541 Q 37.049 789.584 37.208 789.619 Q 37.125 788.996 36.112 791.677 Q 35.099 794.358 35.029 794.436 "></path>
    <path id="STROKE_6c927cab-b6b9-4b81-9886-3339418fe503" opacity="1.000" fill="none" stroke="#000000" stroke-width="0.460" stroke-opacity="1.000" stroke-linecap="round" stroke-linejoin="round" d="M -86.175 789.443 Q -86.091 789.372 -86.638 789.188 Q -86.601 789.359 -86.656 789.159 Q -86.710 788.959 -86.566 789.663 Q -86.422 790.367 -85.635 790.926 Q -84.849 791.485 -84.181 791.929 Q -83.514 792.372 -83.374 792.391 Q -83.234 792.409 -82.806 792.547 Q -82.378 792.684 -81.855 792.769 Q -81.333 792.855 -81.129 792.958 "></path>
    <path id="STROKE_14ffda62-b3a6-4dce-87d6-25f300f2fc49" opacity="1.000" fill="none" stroke="#000000" stroke-width="0.455" stroke-opacity="1.000" stroke-linecap="round" stroke-linejoin="round" d="M -83.582 786.897 Q -83.582 786.873 -83.582 786.848 Q -82.585 786.939 -80.382 788.967 Q -78.179 790.995 -77.877 791.274 "></path>
    <path id="STROKE_21281779-5e0e-4cee-b73a-63743f944aad" opacity="1.000" fill="none" stroke="#000000" stroke-width="0.467" stroke-opacity="1.000" stroke-linecap="round" stroke-linejoin="round" d="M 10.766 853.151 Q 11.143 853.492 11.130 853.460 Q 11.913 853.765 11.761 853.660 Q 12.904 853.760 12.707 853.719 Q 13.641 854.119 20.886 850.521 Q 28.131 846.924 33.668 842.874 Q 39.205 838.825 42.603 835.564 Q 46.000 832.303 47.500 830.564 Q 48.999 828.826 51.425 825.398 Q 53.851 821.970 55.599 818.928 Q 57.348 815.885 58.956 810.778 Q 60.565 805.670 61.304 802.681 Q 62.042 799.692 62.628 796.318 Q 63.214 792.944 63.553 790.301 Q 63.891 787.658 64.641 782.995 Q 65.392 778.331 66.969 773.105 Q 68.547 767.878 70.911 763.185 Q 73.276 758.492 75.242 755.704 Q 77.208 752.916 78.912 750.733 Q 80.615 748.550 84.444 744.873 Q 88.272 741.196 90.657 739.330 Q 93.042 737.464 95.274 735.749 Q 97.507 734.034 100.917 732.427 Q 104.327 730.820 106.223 729.948 Q 108.119 729.076 111.654 728.532 Q 115.188 727.989 117.714 728.033 Q 120.240 728.077 122.373 728.488 Q 124.506 728.899 125.925 729.407 Q 127.344 729.914 129.447 730.972 Q 131.550 732.029 134.358 735.780 Q 137.167 739.532 138.276 743.413 Q 139.385 747.294 139.413 747.627 "></path>
    <path id="STROKE_da79ad3e-41c9-4010-b527-75f2e8e605e5" opacity="1.000" fill="none" stroke="#000000" stroke-width="0.477" stroke-opacity="1.000" stroke-linecap="round" stroke-linejoin="round" d="M 139.567 748.753 Q 139.169 749.470 139.252 749.120 Q 139.335 748.770 139.313 749.784 Q 139.290 750.798 139.283 751.681 Q 139.276 752.564 139.230 752.593 Q 139.184 752.621 139.058 753.062 Q 138.932 753.503 138.804 753.871 Q 138.677 754.239 138.635 754.336 Q 138.594 754.432 138.544 754.462 Q 138.494 754.492 138.028 756.348 Q 137.563 758.204 136.516 760.369 Q 135.469 762.533 134.814 763.562 Q 134.159 764.591 133.532 765.598 Q 132.905 766.606 132.625 767.148 Q 132.344 767.690 131.842 768.728 Q 131.341 769.765 129.182 772.143 Q 127.024 774.520 123.712 776.799 Q 120.400 779.078 118.611 780.209 Q 116.822 781.339 113.753 783.458 Q 110.684 785.577 106.521 788.587 Q 102.357 791.597 99.069 794.468 Q 95.782 797.339 93.748 799.508 Q 91.713 801.678 90.406 804.446 Q 89.099 807.213 88.924 807.722 "></path>
    <path id="STROKE_57cc746e-a3c7-4a76-8851-5cfb2180f732" opacity="1.000" fill="none" stroke="#000000" stroke-width="0.461" stroke-opacity="1.000" stroke-linecap="round" stroke-linejoin="round" d="M 88.055 810.072 Q 88.210 809.904 86.515 813.798 Q 84.820 817.691 81.816 822.603 Q 78.812 827.515 76.875 830.085 Q 74.939 832.655 71.913 836.727 Q 68.888 840.799 65.932 844.060 Q 62.977 847.321 58.786 850.727 Q 54.595 854.133 52.475 855.738 Q 50.356 857.344 49.146 858.225 Q 47.936 859.106 45.450 860.846 Q 42.964 862.587 40.412 864.165 Q 37.861 865.742 33.602 867.189 Q 29.344 868.636 25.760 869.442 Q 22.177 870.249 19.458 870.393 Q 16.739 870.538 15.221 870.162 Q 13.702 869.786 13.162 869.453 "></path>
    <path id="STROKE_5d14c1ff-b297-450d-a7bf-d2779698fd95" opacity="1.000" fill="none" stroke="#000000" stroke-width="0.470" stroke-opacity="1.000" stroke-linecap="round" stroke-linejoin="round" d="M -23.562 814.194 Q -23.701 814.743 -23.821 814.679 Q -24.946 815.289 -24.796 815.257 Q -24.645 815.224 -25.705 815.722 Q -26.764 816.219 -28.510 816.074 Q -28.459 816.104 -28.561 816.059 Q -28.662 816.015 -28.424 816.211 Q -28.186 816.408 -27.862 816.611 Q -27.538 816.814 -27.251 816.918 Q -26.964 817.022 -27.070 816.992 Q -27.177 816.961 -26.867 817.076 Q -26.558 817.190 -25.952 817.574 Q -25.347 817.957 -25.243 818.127 Q -25.140 818.296 -25.173 818.203 Q -25.206 818.109 -25.199 818.238 Q -25.192 818.368 -25.125 818.230 Q -25.058 818.092 -25.096 818.847 Q -25.134 819.601 -25.214 819.461 Q -25.295 819.320 -25.445 819.560 Q -25.596 819.799 -25.749 820.460 Q -25.173 820.460 -25.223 820.460 Q -24.436 820.460 -24.536 820.460 Q -23.333 820.542 -23.765 820.509 Q -23.688 820.509 -23.408 820.509 "></path>
    <path id="STROKE_7a58a04f-b0bc-40a6-8533-3d42834bec67" opacity="1.000" fill="none" stroke="#000000" stroke-width="0.460" stroke-opacity="1.000" stroke-linecap="round" stroke-linejoin="round" d="M -76.497 905.516 Q -76.713 905.547 -83.403 910.692 Q -83.370 910.704 -82.959 910.461 Q -82.547 910.217 -82.205 909.997 "></path>
    <path id="STROKE_19685908-ae1e-4b43-a7eb-4c0c99c66e1b" opacity="1.000" fill="none" stroke="#000000" stroke-width="0.465" stroke-opacity="1.000" stroke-linecap="round" stroke-linejoin="round" d="M -71.830 904.242 Q -71.806 904.229 -71.782 904.216 Q -71.923 904.378 -75.505 907.236 Q -79.087 910.094 -81.062 911.595 Q -83.036 913.096 -83.163 913.219 "></path>
    <path id="STROKE_450c96ca-c486-45ed-a4f1-2c2d2bda352e" opacity="1.000" fill="none" stroke="#000000" stroke-width="0.459" stroke-opacity="1.000" stroke-linecap="round" stroke-linejoin="round" d="M -68.495 904.811 Q -69.059 905.720 -75.329 910.260 Q -81.599 914.800 -81.857 915.079 "></path>
    <path id="STROKE_c0826192-05d9-450c-8421-ff6cb7fd65f6" opacity="1.000" fill="none" stroke="#000000" stroke-width="0.459" stroke-opacity="1.000" stroke-linecap="round" stroke-linejoin="round" d="M -64.797 904.740 Q -64.207 904.505 -78.803 916.816 L -78.790 916.839 Q -78.480 916.751 -78.170 916.662 "></path>
    <path id="STROKE_1c3506a1-4474-4535-bede-8b08e571048d" opacity="1.000" fill="none" stroke="#000000" stroke-width="0.461" stroke-opacity="1.000" stroke-linecap="round" stroke-linejoin="round" d="M -60.186 903.936 Q -60.239 903.822 -66.966 909.847 Q -73.694 915.872 -73.813 916.104 "></path>
    <path id="STROKE_c398d0b6-c782-4abc-a86e-18d8c0eb4c68" opacity="1.000" fill="none" stroke="#000000" stroke-width="0.459" stroke-opacity="1.000" stroke-linecap="round" stroke-linejoin="round" d="M -61.186 907.786 Q -61.704 908.022 -71.824 917.616 Q -71.801 917.656 -71.731 917.659 Q -71.661 917.662 -71.530 917.650 "></path>
    <path id="STROKE_02cddbef-4a85-4924-8fb4-80fc383a2901" opacity="1.000" fill="none" stroke="#000000" stroke-width="0.467" stroke-opacity="1.000" stroke-linecap="round" stroke-linejoin="round" d="M -62.759 913.268 Q -63.579 913.774 -63.466 913.773 Q -63.159 913.452 -65.128 915.360 Q -67.096 917.269 -67.179 917.367 "></path>
    <path id="STROKE_4a20066a-58e3-489d-9241-7ae8303065ff" opacity="1.000" fill="none" stroke="#000000" stroke-width="0.467" stroke-opacity="1.000" stroke-linecap="round" stroke-linejoin="round" d="M -61.203 917.348 Q -61.571 917.636 -61.484 917.594 Q -61.827 918.064 -62.137 918.221 Q -62.448 918.378 -62.635 918.535 "></path>
    <path id="STROKE_9f508e04-021c-4c81-adc5-622d42ba38bf" opacity="1.000" fill="none" stroke="#000000" stroke-width="0.467" stroke-opacity="1.000" stroke-linecap="round" stroke-linejoin="round" d="M -23.468 903.400 Q -23.939 903.803 -23.782 903.680 Q -23.810 903.725 -23.832 903.828 Q -23.082 903.412 -23.291 903.528 Q -23.206 903.481 -22.830 903.273 Q -22.604 902.494 -27.184 907.796 Q -27.134 907.935 -27.093 908.056 "></path>
    <path id="STROKE_5a6091e3-7dee-4b30-a7f9-3fb1afda0e18" opacity="1.000" fill="none" stroke="#000000" stroke-width="0.464" stroke-opacity="1.000" stroke-linecap="round" stroke-linejoin="round" d="M -19.392 903.724 Q -19.683 903.594 -24.469 907.731 Q -29.254 911.867 -31.956 914.058 Q -34.658 916.250 -34.740 916.348 "></path>
    <path id="STROKE_37662310-3f15-4a77-8934-6c72043762b9" opacity="1.000" fill="none" stroke="#000000" stroke-width="0.459" stroke-opacity="1.000" stroke-linecap="round" stroke-linejoin="round" d="M -16.369 904.510 Q -17.140 904.960 -25.828 912.270 Q -34.516 919.580 -34.620 919.743 "></path>
    <path id="STROKE_adc7a625-11d1-496e-a397-3c648e5e85c8" opacity="1.000" fill="none" stroke="#000000" stroke-width="0.467" stroke-opacity="1.000" stroke-linecap="round" stroke-linejoin="round" d="M -14.106 905.734 Q -14.093 905.758 -14.061 905.815 Q -14.461 906.268 -14.454 906.230 Q -14.174 906.257 -21.588 912.863 Q -29.003 919.469 -29.030 919.620 "></path>
    <path id="STROKE_63014f90-ee73-4d54-a9d7-30366befe1e3" opacity="1.000" fill="none" stroke="#000000" stroke-width="0.468" stroke-opacity="1.000" stroke-linecap="round" stroke-linejoin="round" d="M -14.059 909.170 Q -13.782 909.224 -15.712 911.119 Q -17.642 913.014 -21.318 916.115 Q -24.993 919.217 -25.122 919.432 "></path>
    <path id="STROKE_b19224cb-977b-4537-9580-55145e757f6d" opacity="1.000" fill="none" stroke="#000000" stroke-width="0.467" stroke-opacity="1.000" stroke-linecap="round" stroke-linejoin="round" d="M -10.532 911.778 Q -10.512 911.767 -10.322 911.662 L -10.335 911.639 Q -9.895 911.427 -11.108 911.910 Q -12.320 912.394 -15.250 915.908 Q -18.181 919.422 -18.215 919.607 "></path>
    <path id="STROKE_191f8d6e-2265-4844-b5c4-6df12c7185d2" opacity="1.000" fill="none" stroke="#000000" stroke-width="0.459" stroke-opacity="1.000" stroke-linecap="round" stroke-linejoin="round" d="M -9.628 915.388 Q -9.656 915.549 -11.897 917.913 Q -14.137 920.277 -14.144 920.417 "></path>
    <path id="STROKE_373aaa3f-00ce-4387-8af6-efb0db4f947d" opacity="1.000" fill="none" stroke="#000000" stroke-width="0.485" stroke-opacity="1.000" stroke-linecap="round" stroke-linejoin="round" d="M -7.061 917.047 Q -6.973 916.479 -9.059 918.625 Q -11.145 920.771 -11.154 920.860 "></path>
    <path id="STROKE_9fb5f728-930a-4493-83fb-b0bda1920bd0" opacity="1.000" fill="none" stroke="#000000" stroke-width="0.467" stroke-opacity="1.000" stroke-linecap="round" stroke-linejoin="round" d="M -5.228 918.162 Q -5.500 918.791 -5.474 918.661 Q -5.522 918.743 -7.732 920.881 Q -7.625 920.874 -7.517 920.868 "></path>
    <path id="STROKE_6ef72426-5ec6-474c-a83a-34dfbd8d2319" opacity="1.000" fill="none" stroke="#000000" stroke-width="0.471" stroke-opacity="1.000" stroke-linecap="round" stroke-linejoin="round" d="M 24.275 910.156 Q 24.288 910.179 24.345 910.283 Q 23.759 910.839 23.832 910.757 Q 24.140 910.298 23.205 911.596 Q 23.230 911.642 23.269 911.689 Q 23.308 911.735 23.373 911.805 "></path>
    <path id="STROKE_d4e4f10f-0145-4426-b9cc-5f8ccf322fd0" opacity="1.000" fill="none" stroke="#000000" stroke-width="0.464" stroke-opacity="1.000" stroke-linecap="round" stroke-linejoin="round" d="M 27.221 911.001 Q 26.746 911.309 26.776 911.310 Q 26.764 911.313 24.812 913.707 Q 22.859 916.102 22.813 916.177 "></path>
    <path id="STROKE_b4a5dd25-1564-42d8-a134-7a47de62e769" opacity="1.000" fill="none" stroke="#000000" stroke-width="0.458" stroke-opacity="1.000" stroke-linecap="round" stroke-linejoin="round" d="M 29.918 911.374 Q 30.477 911.475 27.025 915.376 Q 23.573 919.277 23.424 919.517 "></path>
    <path id="STROKE_0c3f9cc1-7e23-491e-a6af-7e287b1f7c42" opacity="1.000" fill="none" stroke="#000000" stroke-width="0.462" stroke-opacity="1.000" stroke-linecap="round" stroke-linejoin="round" d="M 32.145 912.117 Q 32.246 912.202 28.927 916.358 Q 25.608 920.515 25.602 920.617 "></path>
    <path id="STROKE_9150941d-8d02-46d0-ae99-560471ac96c1" opacity="1.000" fill="none" stroke="#000000" stroke-width="0.462" stroke-opacity="1.000" stroke-linecap="round" stroke-linejoin="round" d="M 33.618 915.691 Q 33.511 915.752 32.921 916.120 Q 32.331 916.488 29.893 919.650 Q 29.914 919.682 29.936 919.752 Q 29.959 919.822 29.969 919.906 "></path>
    <path id="STROKE_2c397894-5a3d-4dfe-a9e9-7be545fd4cbe" opacity="1.000" fill="none" stroke="#000000" stroke-width="0.461" stroke-opacity="1.000" stroke-linecap="round" stroke-linejoin="round" d="M 35.500 917.934 Q 35.034 918.236 35.057 918.221 Q 35.081 918.205 34.938 918.299 Q 34.795 918.394 34.600 918.529 Q 34.404 918.664 34.472 918.618 Q 34.539 918.571 34.512 918.566 Q 34.486 918.561 34.428 918.678 Q 34.370 918.795 34.297 918.931 Q 34.225 919.066 34.174 919.171 "></path>
    <path id="STROKE_c5a52aa7-0172-4ed6-a386-f7890ed615cc" opacity="1.000" fill="none" stroke="#000000" stroke-width="0.463" stroke-opacity="1.000" stroke-linecap="round" stroke-linejoin="round" d="M -17.423 899.004 Q -17.203 898.785 -17.748 899.153 Q -18.293 899.521 -18.781 899.942 Q -19.269 900.363 -22.906 903.043 Q -22.899 903.080 -22.899 903.130 Q -22.900 903.179 -22.904 903.261 "></path>
    <path id="STROKE_d0031fc6-6f74-4fe6-9777-3506ce8aef16" opacity="1.000" fill="none" stroke="#000000" stroke-width="0.463" stroke-opacity="1.000" stroke-linecap="round" stroke-linejoin="round" d="M -14.542 900.459 Q -14.528 900.435 -14.504 900.213 Q -15.351 900.675 -17.855 902.710 Q -17.848 902.747 -17.861 902.779 Q -17.874 902.812 -17.904 902.855 "></path>
    <path id="STROKE_9dd49551-9d22-47e0-9505-4d8b9e68d092" opacity="1.000" fill="none" stroke="#000000" stroke-width="0.457" stroke-opacity="1.000" stroke-linecap="round" stroke-linejoin="round" d="M 10.602 897.105 Q 10.435 897.208 8.435 899.233 Q 6.435 901.257 6.379 901.284 "></path>
    <path id="STROKE_f801b415-e74d-44c8-b582-d61a547ee864" opacity="1.000" fill="none" stroke="#000000" stroke-width="0.467" stroke-opacity="1.000" stroke-linecap="round" stroke-linejoin="round" d="M 16.019 896.153 Q 16.116 896.171 12.370 899.615 Q 8.625 903.058 8.581 903.148 "></path>
    <path id="STROKE_b4b412c1-e63f-4796-ab33-0ad3b9c7136c" opacity="1.000" fill="none" stroke="#000000" stroke-width="0.468" stroke-opacity="1.000" stroke-linecap="round" stroke-linejoin="round" d="M 21.000 895.434 Q 20.548 895.739 18.066 897.892 Q 15.584 900.044 11.957 903.401 Q 12.004 903.430 12.051 903.460 "></path>
    <path id="STROKE_f342d5cb-7b80-4237-b991-f2dd6b6a6fee" opacity="1.000" fill="none" stroke="#000000" stroke-width="0.468" stroke-opacity="1.000" stroke-linecap="round" stroke-linejoin="round" d="M 27.211 894.533 Q 27.517 894.240 24.032 897.336 Q 20.546 900.432 16.937 904.383 Q 17.122 904.311 17.307 904.239 "></path>
    <path id="STROKE_b7157798-aeef-4d61-8021-171d70be0603" opacity="1.000" fill="none" stroke="#000000" stroke-width="0.474" stroke-opacity="1.000" stroke-linecap="round" stroke-linejoin="round" d="M 34.199 893.085 Q 32.883 893.301 27.671 899.466 Q 22.458 905.632 22.454 905.715 "></path>
    <path id="STROKE_ec69790a-49f1-4a71-8cca-decc9ac91ae5" opacity="1.000" fill="none" stroke="#000000" stroke-width="0.464" stroke-opacity="1.000" stroke-linecap="round" stroke-linejoin="round" d="M 36.897 894.171 Q 36.703 894.371 35.162 896.566 Q 33.621 898.762 31.497 901.183 Q 29.373 903.604 29.299 903.737 "></path>
    <path id="STROKE_039032c6-e46b-48b5-9728-2e838f1d1300" opacity="1.000" fill="none" stroke="#000000" stroke-width="0.463" stroke-opacity="1.000" stroke-linecap="round" stroke-linejoin="round" d="M 45.994 891.474 Q 46.207 891.163 45.184 892.288 Q 44.161 893.412 35.243 903.910 Q 35.339 903.893 35.694 903.680 Q 36.049 903.468 36.338 903.197 "></path>
    <path id="STROKE_17ee877e-77c1-417e-bdb6-5b5cc637f5ce" opacity="1.000" fill="none" stroke="#000000" stroke-width="0.463" stroke-opacity="1.000" stroke-linecap="round" stroke-linejoin="round" d="M 50.354 892.102 Q 49.989 892.408 48.420 894.070 Q 46.850 895.732 39.618 904.459 Q 39.707 904.405 39.796 904.350 "></path>
    <path id="STROKE_b62c2b28-ef2a-4454-8b91-81d05055f631" opacity="1.000" fill="none" stroke="#000000" stroke-width="0.458" stroke-opacity="1.000" stroke-linecap="round" stroke-linejoin="round" d="M 58.578 889.631 Q 57.859 890.061 57.924 890.073 Q 56.990 890.931 51.329 897.865 Q 45.669 904.798 45.650 904.900 "></path>
    <path id="STROKE_9aa4fece-3a4e-49d6-828d-6beff37e8d2d" opacity="1.000" fill="none" stroke="#000000" stroke-width="0.463" stroke-opacity="1.000" stroke-linecap="round" stroke-linejoin="round" d="M 63.624 889.064 Q 63.489 889.421 62.639 890.285 Q 61.790 891.148 61.092 891.961 Q 60.393 892.773 59.035 894.478 Q 57.677 896.182 56.402 897.778 Q 55.126 899.373 52.251 903.507 Q 52.482 903.481 52.810 903.273 Q 53.138 903.066 53.564 902.693 "></path>
    <path id="STROKE_10eeb674-5647-4c03-8ffc-8fe772800710" opacity="1.000" fill="none" stroke="#000000" stroke-width="0.485" stroke-opacity="1.000" stroke-linecap="round" stroke-linejoin="round" d="M 69.644 889.234 Q 69.360 889.509 65.079 894.094 Q 60.797 898.679 58.622 901.897 Q 56.447 905.114 56.339 905.270 "></path>
    <path id="STROKE_1bc6d33d-5252-4f86-b218-01c518c55cf9" opacity="1.000" fill="none" stroke="#000000" stroke-width="0.467" stroke-opacity="1.000" stroke-linecap="round" stroke-linejoin="round" d="M 73.283 889.634 Q 73.085 889.475 69.484 893.815 Q 65.882 898.155 63.557 900.590 Q 61.233 903.024 61.139 903.156 "></path>
    <path id="STROKE_6e3792f8-01ff-418a-a103-7a7e1185df03" opacity="1.000" fill="none" stroke="#000000" stroke-width="0.463" stroke-opacity="1.000" stroke-linecap="round" stroke-linejoin="round" d="M 77.565 889.676 Q 77.624 889.666 77.691 889.490 Q 76.759 889.774 76.990 889.760 Q 76.562 890.217 66.278 902.015 Q 66.300 902.011 66.384 901.927 Q 66.468 901.844 66.613 901.681 "></path>
    <path id="STROKE_813b8421-d72e-4bd6-8568-4fe2e30f1e26" opacity="1.000" fill="none" stroke="#000000" stroke-width="0.469" stroke-opacity="1.000" stroke-linecap="round" stroke-linejoin="round" d="M 83.198 888.402 Q 82.628 888.859 80.758 891.153 Q 78.887 893.448 74.713 898.095 Q 70.538 902.743 70.504 902.787 "></path>
    <path id="STROKE_8fe281f9-7493-4a48-8173-81e50c7f6b5d" opacity="1.000" fill="none" stroke="#000000" stroke-width="0.471" stroke-opacity="1.000" stroke-linecap="round" stroke-linejoin="round" d="M 88.645 889.146 Q 87.806 888.951 83.756 894.320 Q 79.706 899.689 79.498 899.946 "></path>
    <path id="STROKE_c21e50c0-1ecb-4ae3-ac88-3752c83e68d8" opacity="1.000" fill="none" stroke="#000000" stroke-width="0.483" stroke-opacity="1.000" stroke-linecap="round" stroke-linejoin="round" d="M 95.456 888.647 Q 95.483 888.650 92.348 891.858 Q 89.214 895.066 86.791 897.871 Q 84.368 900.676 84.059 901.049 "></path>
    <path id="STROKE_c9908f54-5a60-4690-8c1d-63ea3329896f" opacity="1.000" fill="none" stroke="#000000" stroke-width="0.466" stroke-opacity="1.000" stroke-linecap="round" stroke-linejoin="round" d="M 101.141 888.056 Q 101.177 888.320 98.268 891.099 Q 95.358 893.878 91.258 899.151 Q 87.157 904.424 87.064 904.688 "></path>
    <path id="STROKE_0a543b7e-805d-4665-81bd-74a974b28222" opacity="1.000" fill="none" stroke="#000000" stroke-width="0.457" stroke-opacity="1.000" stroke-linecap="round" stroke-linejoin="round" d="M 105.941 889.209 Q 105.055 889.728 105.070 889.775 Q 104.286 890.083 98.204 897.733 Q 92.122 905.384 92.126 905.447 "></path>
    <path id="STROKE_b2230a2e-7cd4-4dfd-a593-80bb16398566" opacity="1.000" fill="none" stroke="#000000" stroke-width="0.458" stroke-opacity="1.000" stroke-linecap="round" stroke-linejoin="round" d="M 110.738 890.930 Q 109.862 891.205 102.883 899.451 Q 95.904 907.696 95.931 907.812 "></path>
    <path id="STROKE_5b2f76b6-299d-445f-ab2e-c771da7c3926" opacity="1.000" fill="none" stroke="#000000" stroke-width="0.460" stroke-opacity="1.000" stroke-linecap="round" stroke-linejoin="round" d="M 114.850 892.051 Q 114.505 891.932 107.773 899.753 Q 101.041 907.573 100.957 907.790 "></path>
    <path id="STROKE_d63e9602-5ff6-49eb-9c1f-bc6b1bf79093" opacity="1.000" fill="none" stroke="#000000" stroke-width="0.469" stroke-opacity="1.000" stroke-linecap="round" stroke-linejoin="round" d="M 122.468 891.214 Q 122.557 891.257 121.768 891.860 Q 120.980 892.464 118.364 895.317 Q 115.748 898.171 113.560 900.835 Q 111.372 903.499 107.927 907.494 Q 104.482 911.488 104.215 911.912 "></path>
    <path id="STROKE_0bdbbef7-748b-4b09-8579-1bf64efe8b37" opacity="1.000" fill="none" stroke="#000000" stroke-width="0.463" stroke-opacity="1.000" stroke-linecap="round" stroke-linejoin="round" d="M 125.687 895.153 Q 125.466 895.030 123.209 897.978 Q 120.951 900.925 119.106 903.041 Q 117.262 905.156 115.189 907.392 Q 113.117 909.629 110.285 913.207 Q 107.454 916.786 107.340 917.123 "></path>
    <path id="STROKE_4d1515c9-9a51-4492-af1a-25ec07a7e554" opacity="1.000" fill="none" stroke="#000000" stroke-width="0.464" stroke-opacity="1.000" stroke-linecap="round" stroke-linejoin="round" d="M 129.502 899.423 L 129.486 899.395 Q 128.486 900.071 128.584 899.723 Q 128.682 899.374 125.237 903.261 Q 121.791 907.148 119.251 909.922 Q 116.711 912.697 115.500 914.056 Q 114.289 915.415 114.010 915.819 "></path>
    <path id="STROKE_8f96f959-bb0c-4a32-86bb-3a83c4fca311" opacity="1.000" fill="none" stroke="#000000" stroke-width="0.465" stroke-opacity="1.000" stroke-linecap="round" stroke-linejoin="round" d="M 136.848 898.817 Q 136.609 899.206 134.418 902.041 Q 132.227 904.876 129.899 907.566 Q 127.571 910.257 122.696 915.699 Q 117.821 921.141 117.790 921.327 "></path>
    <path id="STROKE_1b04dde5-ba96-44d9-bcae-3ec6ddab4ea4" opacity="1.000" fill="none" stroke="#000000" stroke-width="0.463" stroke-opacity="1.000" stroke-linecap="round" stroke-linejoin="round" d="M 142.861 900.401 Q 142.765 900.610 140.815 902.556 Q 138.864 904.501 134.518 909.791 Q 130.172 915.081 128.349 918.045 Q 126.525 921.010 126.462 921.252 "></path>
    <path id="STROKE_1c5a5fc1-bf14-443b-82f4-17b88d8e87ee" opacity="1.000" fill="none" stroke="#000000" stroke-width="0.464" stroke-opacity="1.000" stroke-linecap="round" stroke-linejoin="round" d="M 150.182 900.821 Q 150.261 900.677 149.507 901.608 Q 148.753 902.539 148.177 903.333 Q 147.602 904.127 145.661 906.454 Q 143.719 908.780 139.852 912.741 Q 135.984 916.702 133.328 920.835 Q 130.671 924.968 130.757 925.060 "></path>
    <path id="STROKE_b9ad7e1a-c768-40da-a048-5b4a0a49855d" opacity="1.000" fill="none" stroke="#000000" stroke-width="0.463" stroke-opacity="1.000" stroke-linecap="round" stroke-linejoin="round" d="M 153.851 903.883 Q 153.901 903.610 153.193 904.586 Q 152.485 905.562 150.538 908.053 Q 148.592 910.544 147.509 911.826 Q 146.427 913.107 145.663 914.003 Q 144.899 914.899 137.491 923.391 Q 137.520 923.440 137.722 923.375 Q 137.923 923.311 138.262 923.182 "></path>
    <path id="STROKE_7ea83e69-51a4-42bd-b73c-56b923c635a0" opacity="1.000" fill="none" stroke="#000000" stroke-width="0.457" stroke-opacity="1.000" stroke-linecap="round" stroke-linejoin="round" d="M 159.974 906.022 Q 160.037 905.948 160.132 905.818 L 160.116 905.790 Q 159.736 905.311 142.884 927.925 Q 142.979 927.908 143.058 927.863 "></path>
    <path id="STROKE_a36134c2-983b-4051-acb5-af49a7269a7a" opacity="1.000" fill="none" stroke="#000000" stroke-width="0.465" stroke-opacity="1.000" stroke-linecap="round" stroke-linejoin="round" d="M 167.575 906.337 Q 167.520 906.419 167.169 906.768 Q 166.817 907.117 166.806 907.200 Q 166.794 907.283 166.266 907.782 Q 165.738 908.282 162.073 912.234 Q 158.408 916.186 155.972 918.990 Q 153.536 921.795 153.250 923.407 Q 152.964 925.018 152.925 925.246 "></path>
    <path id="STROKE_c646451b-6f49-41be-aa92-ef50e39f6959" opacity="1.000" fill="none" stroke="#000000" stroke-width="0.507" stroke-opacity="1.000" stroke-linecap="round" stroke-linejoin="round" d="M 166.766 912.740 Q 166.377 912.954 164.377 915.279 Q 162.377 917.604 162.322 917.804 "></path>
    <path id="STROKE_99c04669-7fbd-41e9-88bf-03fa831a7a71" opacity="1.000" fill="none" stroke="#000000" stroke-width="0.542" stroke-opacity="1.000" stroke-linecap="round" stroke-linejoin="round" d="M -126.891 821.236 Q -126.891 821.687 -126.891 819.901 Q -126.891 821.033 -126.891 820.918 Q -126.770 821.781 -126.461 837.417 L -126.411 837.417 Q -126.366 837.302 -126.297 837.050 Q -126.227 836.799 -126.107 836.410 "></path>
    <path id="STROKE_cef43284-5574-40db-b7a4-afd60fd390e6" opacity="1.000" fill="none" stroke="#000000" stroke-width="0.474" stroke-opacity="1.000" stroke-linecap="round" stroke-linejoin="round" d="M -130.662 826.706 Q -131.185 826.934 -131.054 826.914 Q -131.105 826.958 -131.218 827.077 Q -131.810 827.456 -129.652 825.420 Q -127.495 823.384 -123.121 821.695 Q -123.781 821.112 -130.624 833.325 Q -130.741 833.152 -130.046 831.705 Q -129.351 830.257 -128.441 829.347 Q -127.531 828.438 -126.187 827.536 Q -124.844 826.633 -122.920 825.794 Q -120.997 824.954 -119.366 824.552 Q -117.735 824.149 -116.933 824.685 Q -116.131 825.221 -115.850 827.123 Q -115.570 829.024 -115.686 830.759 Q -115.802 832.494 -116.287 833.522 Q -116.772 834.551 -117.248 834.976 Q -117.723 835.401 -118.707 835.106 Q -119.691 834.810 -119.826 834.027 Q -119.961 833.245 -120.103 832.721 Q -120.244 832.197 -119.922 831.659 Q -119.599 831.121 -118.861 831.020 Q -118.122 830.919 -117.380 830.907 Q -116.638 830.895 -115.875 831.426 Q -115.112 831.957 -114.572 832.399 Q -114.032 832.842 -114.065 832.832 Q -114.098 832.822 -113.059 833.493 Q -112.019 834.164 -110.798 834.934 Q -110.823 834.982 -110.849 835.031 "></path>
    <path id="STROKE_01df6c81-e2ab-4367-8d5b-1d2f35155e1f" opacity="1.000" fill="none" stroke="#000000" stroke-width="0.465" stroke-opacity="1.000" stroke-linecap="round" stroke-linejoin="round" d="M -126.208 845.238 Q -126.319 845.207 -126.352 847.260 Q -126.385 849.313 -126.047 850.432 Q -125.708 851.552 -125.332 851.993 Q -124.956 852.434 -124.465 851.960 Q -123.975 851.486 -123.766 851.256 "></path>
    <path id="STROKE_1250c4b3-adbd-43a6-8cc1-5af2ee77899c" opacity="1.000" fill="none" stroke="#000000" stroke-width="0.462" stroke-opacity="1.000" stroke-linecap="round" stroke-linejoin="round" d="M -118.022 845.972 Q -118.022 845.950 -118.022 845.927 Q -118.184 846.022 -117.800 848.283 Q -117.415 850.545 -117.884 853.255 Q -118.353 855.966 -119.409 857.796 Q -120.464 859.626 -121.312 860.527 Q -122.160 861.429 -122.824 861.607 Q -123.488 861.786 -123.766 861.835 "></path>
    <path id="STROKE_6f79ab12-a520-4cba-a85c-6b0e73635196" opacity="1.000" fill="none" stroke="#000000" stroke-width="0.508" stroke-opacity="1.000" stroke-linecap="round" stroke-linejoin="round" d="M -127.170 874.242 Q -127.214 874.242 -127.676 874.079 Q -128.433 873.998 -125.217 873.637 Q -122.002 873.276 -118.587 873.057 Q -115.171 872.839 -113.858 873.081 Q -112.544 873.323 -112.405 873.368 "></path>
    <path id="STROKE_1c7d0653-efb8-4fa3-a695-30793393c1c5" opacity="1.000" fill="none" stroke="#000000" stroke-width="0.460" stroke-opacity="1.000" stroke-linecap="round" stroke-linejoin="round" d="M -119.579 868.913 Q -119.927 868.616 -119.331 870.068 Q -118.736 871.520 -118.320 873.406 Q -117.905 875.291 -118.392 877.348 Q -118.879 879.404 -119.085 880.094 Q -119.292 880.785 -119.426 881.136 Q -119.560 881.488 -119.560 881.617 Q -119.560 881.746 -119.603 881.698 Q -119.645 881.651 -120.124 881.811 Q -120.604 881.972 -120.736 881.944 Q -120.868 881.915 -120.971 881.829 Q -121.074 881.743 -121.289 881.637 Q -121.504 881.531 -121.388 881.602 Q -121.273 881.673 -121.702 881.459 Q -122.131 881.245 -122.082 881.282 Q -122.033 881.320 -122.039 881.378 Q -122.045 881.435 -122.133 881.370 Q -122.222 881.306 -122.231 881.312 Q -122.241 881.319 -122.511 880.895 Q -122.780 880.470 -122.831 880.260 Q -122.882 880.051 -122.819 879.754 Q -122.757 879.457 -122.814 879.214 Q -122.870 878.970 -122.231 878.403 Q -121.592 877.835 -121.166 877.650 Q -120.740 877.466 -120.402 877.286 Q -120.063 877.106 -119.947 877.270 Q -119.831 877.433 -119.610 877.866 Q -119.389 878.298 -119.299 878.483 Q -119.209 878.667 -119.092 880.723 Q -118.976 882.780 -119.541 885.373 Q -120.107 887.966 -121.294 888.828 Q -122.482 889.690 -122.716 889.734 "></path>
  </g>
</svg>