<?xml version="1.0" encoding="UTF-8" standalone="yes"?>
<svg xmlns="http://www.w3.org/2000/svg" xmlns:xlink="http://www.w3.org/1999/xlink" width="125.128143pt" height="169.025436pt" version="1.1" viewBox="-464.0 900.477722 80.0 108.06">
  <!--
	Exported with Concepts: Smarter Sketching
	Version: 864 on iOS 13.5
	https://concepts.app/
	-->
  <title>Untitled_7-1</title>
  <desc>Drawing exported from Concepts: Smarter Sketching</desc>
  <g id="Pen" opacity="1.000">
    <path id="STROKE_602447bd-3ea6-46a7-976a-092aabeadfaf" opacity="1.000" fill="none" stroke="#000000" stroke-width="0.461" stroke-opacity="1.000" stroke-linecap="round" stroke-linejoin="round" d="M -463.190 928.939 Q -463.011 929.219 -462.729 929.615 Q -462.447 930.011 -462.587 929.821 Q -462.727 929.632 -462.288 930.211 Q -461.849 930.791 -461.215 933.167 Q -461.236 933.167 -461.414 933.140 Q -461.593 933.113 -461.719 933.059 "></path>
    <path id="STROKE_96bbc91f-9a8f-4f2b-aa92-2c45015f3b54" opacity="1.000" fill="none" stroke="#000000" stroke-width="0.463" stroke-opacity="1.000" stroke-linecap="round" stroke-linejoin="round" d="M -461.971 933.167 Q -461.936 933.803 -461.915 933.494 Q -461.894 933.185 -461.807 933.945 Q -461.721 934.706 -461.792 935.169 Q -461.863 935.633 -462.307 936.456 Q -462.752 937.280 -463.070 937.770 Q -463.389 938.261 -463.833 938.709 Q -464.278 939.157 -464.300 939.157 Q -464.323 939.156 -464.535 939.334 Q -464.747 939.512 -464.916 939.649 Q -465.085 939.787 -465.439 940.125 Q -465.794 940.463 -465.801 940.488 Q -465.808 940.514 -465.909 940.606 Q -466.011 940.698 -465.981 940.681 Q -465.952 940.665 -466.248 940.974 Q -466.544 941.284 -466.548 941.282 Q -466.551 941.281 -466.590 941.346 Q -466.630 941.412 -466.632 941.416 Q -466.634 941.420 -466.971 941.647 Q -467.307 941.874 -467.033 942.513 Q -466.759 943.152 -466.623 943.297 Q -466.487 943.442 -466.561 943.348 Q -466.635 943.255 -466.117 943.976 Q -465.598 944.698 -465.719 944.539 Q -465.619 945.466 -463.190 946.374 Q -463.190 946.423 -463.204 946.528 Q -463.218 946.633 -463.246 946.761 "></path>
    <path id="STROKE_9fdda778-38f6-4bab-bc0d-6901712a36c9" opacity="1.000" fill="none" stroke="#000000" stroke-width="0.462" stroke-opacity="1.000" stroke-linecap="round" stroke-linejoin="round" d="M -454.938 961.676 Q -454.758 961.676 -455.456 961.676 Q -454.911 962.040 -451.211 960.571 Q -447.512 959.102 -447.204 958.926 "></path>
    <path id="STROKE_20a9a091-8c78-47a1-ba7c-a72177c02cc7" opacity="1.000" fill="none" stroke="#000000" stroke-width="0.461" stroke-opacity="1.000" stroke-linecap="round" stroke-linejoin="round" d="M -463.246 928.782 Q -463.246 928.812 -463.246 928.988 Q -463.377 929.486 -463.322 926.284 Q -463.267 923.082 -463.190 922.773 "></path>
    <path id="STROKE_d1dff5c6-2a8d-4afc-999a-fe9c47341a7f" opacity="1.000" fill="none" stroke="#000000" stroke-width="0.462" stroke-opacity="1.000" stroke-linecap="round" stroke-linejoin="round" d="M -463.148 946.810 Q -463.148 946.785 -463.148 946.761 Q -462.409 947.749 -462.543 947.575 Q -462.677 947.401 -462.463 947.841 Q -462.249 948.281 -462.315 948.049 Q -462.380 947.817 -462.224 948.796 Q -462.203 948.742 -462.182 948.689 "></path>
    <path id="STROKE_7b74a382-c3f4-4f9f-9efe-ac22d6322304" opacity="1.000" fill="none" stroke="#000000" stroke-width="0.466" stroke-opacity="1.000" stroke-linecap="round" stroke-linejoin="round" d="M -462.476 948.434 Q -462.455 948.434 -462.336 948.434 Q -462.336 949.115 -462.336 948.972 Q -462.336 950.109 -462.336 949.736 Q -462.336 950.751 -462.336 950.499 Q -462.336 950.602 -462.357 951.111 Q -461.814 951.441 -461.922 951.365 Q -461.384 951.703 -461.351 951.724 Q -461.318 951.744 -461.362 951.718 Q -461.121 951.787 -460.696 951.801 Q -460.675 951.747 -460.654 951.693 "></path>
    <path id="STROKE_848e7d6f-9735-46ec-8013-ee0b2bab8028" opacity="1.000" fill="none" stroke="#000000" stroke-width="0.463" stroke-opacity="1.000" stroke-linecap="round" stroke-linejoin="round" d="M -460.656 952.012 Q -460.241 952.064 -460.384 952.056 Q -460.358 952.647 -460.369 952.436 Q -460.369 953.066 -460.369 952.848 Q -460.369 953.579 -460.369 953.339 Q -460.369 953.870 -460.369 953.762 Q -460.369 954.319 -460.369 954.202 Q -460.369 954.286 -460.369 954.498 Q -460.384 954.498 -460.400 954.498 Q -460.449 954.453 -460.252 954.561 Q -460.054 954.670 -458.761 955.203 Q -458.761 955.217 -458.782 955.252 Q -458.803 955.287 -458.846 955.344 "></path>
    <path id="STROKE_9904fbce-9540-4917-9433-87d8c900f6e4" opacity="1.000" fill="none" stroke="#000000" stroke-width="0.470" stroke-opacity="1.000" stroke-linecap="round" stroke-linejoin="round" d="M -458.170 955.545 Q -458.230 955.498 -458.481 954.780 Q -458.497 954.780 -458.590 954.780 Q -458.600 954.877 -458.595 955.093 Q -458.590 955.309 -458.500 955.637 Q -458.411 955.964 -458.336 956.206 Q -458.262 956.447 -458.295 956.331 Q -458.329 956.214 -458.211 956.637 Q -458.094 957.060 -458.033 957.663 Q -457.972 958.265 -457.983 958.553 Q -457.994 958.840 -457.759 960.314 Q -457.545 960.500 -457.252 960.709 Q -456.960 960.918 -456.739 961.110 Q -456.518 961.302 -456.447 961.364 Q -456.376 961.425 -456.262 961.493 Q -456.147 961.562 -456.075 961.688 Q -456.002 961.815 -455.468 961.995 Q -454.935 962.176 -454.892 962.203 "></path>
    <path id="STROKE_24b49fc2-eaf6-40e0-97b1-553b0479aa47" opacity="1.000" fill="none" stroke="#000000" stroke-width="0.460" stroke-opacity="1.000" stroke-linecap="round" stroke-linejoin="round" d="M -444.787 914.278 Q -445.139 914.113 -443.965 917.593 Q -442.792 921.073 -442.443 925.646 Q -442.093 930.219 -442.121 933.093 Q -442.150 935.966 -442.439 937.302 Q -442.729 938.637 -442.896 938.979 "></path>
    <path id="STROKE_9e3621b0-c01b-4983-9db2-30f5e7d334da" opacity="1.000" fill="none" stroke="#000000" stroke-width="0.463" stroke-opacity="1.000" stroke-linecap="round" stroke-linejoin="round" d="M -460.933 908.977 Q -461.124 909.280 -462.415 910.711 Q -463.706 912.142 -465.235 914.867 Q -466.764 917.593 -467.621 919.768 Q -468.478 921.943 -468.830 924.444 Q -469.183 926.944 -469.245 929.357 Q -469.308 931.770 -468.476 934.455 Q -467.643 937.141 -467.398 937.728 "></path>
    <path id="STROKE_5e57080d-916c-4477-bd5c-dd2b6373474d" opacity="1.000" fill="none" stroke="#000000" stroke-width="0.467" stroke-opacity="1.000" stroke-linecap="round" stroke-linejoin="round" d="M -444.342 902.068 Q -444.364 902.048 -444.709 901.943 Q -444.796 902.193 -442.433 901.425 Q -440.070 900.656 -437.173 900.478 Q -434.275 900.299 -432.117 900.425 Q -429.959 900.551 -427.062 901.536 Q -424.166 902.521 -421.822 903.625 Q -419.479 904.730 -417.996 905.767 Q -416.514 906.804 -415.580 907.963 Q -414.646 909.121 -414.049 909.893 Q -413.452 910.666 -412.420 912.661 Q -411.388 914.657 -410.539 916.365 Q -409.690 918.074 -408.870 922.068 Q -408.050 926.061 -408.033 926.489 "></path>
    <path id="STROKE_8db153dd-159a-49c1-9962-7a66d4cf79c0" opacity="1.000" fill="none" stroke="#000000" stroke-width="0.460" stroke-opacity="1.000" stroke-linecap="round" stroke-linejoin="round" d="M -408.033 925.113 Q -408.011 925.113 -407.911 925.113 Q -407.911 925.938 -407.911 925.677 Q -407.911 926.433 -407.911 926.345 Q -408.162 926.929 -407.053 930.404 Q -405.944 933.879 -405.588 937.537 Q -405.232 941.195 -405.297 943.511 Q -405.362 945.827 -405.909 948.230 Q -406.457 950.634 -407.438 953.205 Q -408.418 955.776 -409.068 956.990 Q -409.717 958.203 -410.158 958.849 Q -410.599 959.495 -411.275 960.078 Q -411.951 960.661 -412.557 960.839 Q -413.163 961.018 -413.486 961.100 "></path>
    <path id="STROKE_98ffc9e9-9588-447d-bb90-00082e41bbc3" opacity="1.000" fill="none" stroke="#000000" stroke-width="0.495" stroke-opacity="1.000" stroke-linecap="round" stroke-linejoin="round" d="M -436.019 931.984 Q -436.035 932.003 -436.253 932.069 Q -436.207 931.970 -435.154 931.460 Q -434.101 930.950 -432.729 931.640 Q -431.356 932.330 -430.518 933.629 Q -429.681 934.927 -429.375 936.698 Q -429.070 938.468 -430.238 940.744 Q -431.406 943.021 -431.568 943.184 "></path>
    <path id="STROKE_5c651409-c83a-4329-9312-35ac4a02138a" opacity="1.000" fill="none" stroke="#000000" stroke-width="0.473" stroke-opacity="1.000" stroke-linecap="round" stroke-linejoin="round" d="M -431.490 942.741 Q -431.552 943.463 -431.546 943.227 Q -431.614 943.240 -431.742 943.557 Q -431.869 943.874 -432.107 944.282 Q -432.346 944.690 -432.793 945.031 Q -433.241 945.371 -433.072 945.260 Q -432.903 945.148 -432.960 945.181 Q -433.017 945.214 -433.211 945.310 Q -433.406 945.406 -433.563 945.441 Q -433.720 945.477 -433.671 945.446 Q -434.511 945.596 -434.233 945.551 Q -433.824 945.539 -434.688 945.636 Q -435.551 945.733 -435.574 945.772 "></path>
    <path id="STROKE_888b4123-fb15-4a84-b8dd-828d385d0a3f" opacity="1.000" fill="none" stroke="#000000" stroke-width="0.462" stroke-opacity="1.000" stroke-linecap="round" stroke-linejoin="round" d="M -437.799 922.929 Q -437.777 922.929 -437.410 922.929 Q -437.489 922.272 -436.915 926.211 Q -436.341 930.150 -435.789 934.366 Q -435.238 938.583 -435.099 940.986 Q -434.960 943.389 -434.897 945.576 Q -434.834 947.764 -434.885 949.998 Q -434.936 952.233 -435.451 954.233 Q -435.965 956.234 -436.669 957.972 Q -437.374 959.711 -438.310 960.859 Q -439.247 962.007 -440.078 962.268 Q -440.909 962.530 -441.193 962.592 "></path>
    <path id="STROKE_9f7249b4-ea4b-460b-982d-a3d05b435be2" opacity="1.000" fill="none" stroke="#000000" stroke-width="0.547" stroke-opacity="1.000" stroke-linecap="round" stroke-linejoin="round" d="M -456.727 932.512 Q -456.744 932.512 -457.083 932.551 Q -456.530 932.125 -454.995 932.286 Q -453.460 932.446 -452.736 932.623 Q -452.013 932.799 -451.702 933.031 Q -451.390 933.264 -451.137 933.440 Q -450.883 933.616 -450.418 934.813 Q -450.434 934.712 -450.451 934.611 "></path>
    <path id="STROKE_1302470d-b5bf-408b-8e11-1ddcb4f4e65a" opacity="1.000" fill="none" stroke="#000000" stroke-width="0.496" stroke-opacity="1.000" stroke-linecap="round" stroke-linejoin="round" d="M -453.611 940.681 Q -453.611 940.619 -453.628 940.316 L -453.645 940.316 Q -453.967 940.632 -452.401 939.806 Q -450.835 938.979 -450.696 938.816 "></path>
    <path id="STROKE_77eda0ef-42ef-429a-b48f-8aecf90f44c0" opacity="1.000" fill="none" stroke="#000000" stroke-width="0.461" stroke-opacity="1.000" stroke-linecap="round" stroke-linejoin="round" d="M -454.947 934.246 Q -455.048 934.916 -455.036 934.890 Q -455.024 934.864 -455.025 934.856 Q -455.025 935.444 -455.025 935.423 Q -455.025 936.629 -455.025 936.333 Q -455.077 936.054 -454.897 937.826 Q -454.717 939.597 -454.131 940.157 Q -453.545 940.716 -453.444 940.798 "></path>
    <path id="STROKE_c31cc459-3cad-46dd-a2c2-a01f0d92c385" opacity="1.000" fill="none" stroke="#000000" stroke-width="0.461" stroke-opacity="1.000" stroke-linecap="round" stroke-linejoin="round" d="M -456.282 932.310 Q -456.791 932.661 -456.621 932.571 Q -456.972 933.069 -456.900 932.975 Q -457.188 933.449 -457.481 933.718 Q -457.773 933.987 -457.982 934.122 Q -458.191 934.257 -458.118 934.168 L -458.140 934.168 Q -458.250 934.172 -457.895 934.171 Q -457.540 934.170 -456.483 934.058 Q -455.425 933.946 -455.303 933.927 "></path>
    <path id="STROKE_24e04759-8f84-4eab-8231-1407577399aa" opacity="1.000" fill="none" stroke="#000000" stroke-width="0.541" stroke-opacity="1.000" stroke-linecap="round" stroke-linejoin="round" d="M -454.413 933.842 Q -453.837 933.861 -453.873 933.908 Q -453.284 934.098 -452.303 934.423 Q -451.323 934.748 -449.928 935.621 Q -449.967 935.645 -450.006 935.668 "></path>
    <path id="STROKE_02951399-1955-4d23-a2db-cd17ff09df3f" opacity="1.000" fill="none" stroke="#000000" stroke-width="0.462" stroke-opacity="1.000" stroke-linecap="round" stroke-linejoin="round" d="M -451.096 935.303 Q -450.528 935.161 -450.740 935.217 Q -450.850 935.192 -450.634 936.179 Q -450.419 937.166 -451.909 939.547 Q -452.070 939.527 -452.187 939.508 "></path>
    <path id="STROKE_3945d884-03e2-4db1-98c5-75a941466473" opacity="1.000" fill="none" stroke="#000000" stroke-width="0.458" stroke-opacity="1.000" stroke-linecap="round" stroke-linejoin="round" d="M -459.480 951.643 Q -459.345 951.643 -459.950 951.643 Q -459.854 951.927 -458.771 951.726 Q -457.688 951.524 -457.030 951.219 Q -456.372 950.914 -456.227 950.821 "></path>
    <path id="STROKE_3adc0209-90f6-4923-9ecc-480fa408edab" opacity="1.000" fill="none" stroke="#000000" stroke-width="0.462" stroke-opacity="1.000" stroke-linecap="round" stroke-linejoin="round" d="M -442.267 926.221 Q -442.429 926.693 -442.406 926.655 Q -442.383 926.617 -442.406 926.687 Q -442.429 926.758 -442.364 926.638 Q -442.299 926.518 -441.595 928.723 Q -440.890 930.928 -440.607 933.066 Q -440.325 935.204 -440.138 936.353 Q -439.952 937.503 -439.701 941.091 Q -439.450 944.679 -439.443 947.645 Q -439.437 950.611 -439.770 952.890 Q -440.103 955.168 -440.668 957.154 Q -441.233 959.140 -441.804 960.457 Q -442.376 961.773 -443.048 962.589 Q -443.720 963.405 -444.283 963.912 Q -444.845 964.419 -445.498 964.448 Q -446.151 964.478 -446.557 964.448 "></path>
    <path id="STROKE_0c0ae903-45cf-408b-8305-00f58434a4c6" opacity="1.000" fill="none" stroke="#000000" stroke-width="0.461" stroke-opacity="1.000" stroke-linecap="round" stroke-linejoin="round" d="M -439.507 929.635 Q -439.649 930.174 -439.001 934.557 Q -438.354 938.939 -438.247 943.145 Q -438.141 947.351 -438.115 949.699 Q -438.090 952.048 -438.613 954.511 Q -439.136 956.974 -439.842 958.710 Q -440.547 960.446 -441.247 961.442 Q -441.947 962.439 -442.589 963.105 Q -443.230 963.771 -444.327 963.758 Q -445.425 963.746 -445.719 963.606 "></path>
    <path id="STROKE_2aecfc34-162c-4fa5-ba0a-e21a5947c08c" opacity="1.000" fill="none" stroke="#000000" stroke-width="0.462" stroke-opacity="1.000" stroke-linecap="round" stroke-linejoin="round" d="M -450.155 918.616 Q -450.188 918.513 -450.158 922.945 Q -450.128 927.377 -449.189 932.691 Q -448.249 938.004 -448.138 938.362 "></path>
    <path id="STROKE_6d9dcb35-a057-4944-bdca-b0f4a85fbb66" opacity="1.000" fill="none" stroke="#000000" stroke-width="0.465" stroke-opacity="1.000" stroke-linecap="round" stroke-linejoin="round" d="M -448.078 921.905 Q -448.010 922.216 -448.043 925.750 Q -448.076 929.284 -447.811 932.617 Q -447.546 935.949 -447.075 937.405 Q -446.604 938.861 -446.557 938.923 "></path>
    <path id="STROKE_910fed00-f372-42f3-8f89-f07683f96fd9" opacity="1.000" fill="none" stroke="#000000" stroke-width="0.466" stroke-opacity="1.000" stroke-linecap="round" stroke-linejoin="round" d="M -447.856 938.273 Q -447.685 938.027 -447.627 937.945 Q -447.570 937.863 -447.595 937.912 Q -447.044 938.035 -447.219 938.055 Q -446.952 938.428 -446.988 938.380 Q -446.746 938.648 -446.788 938.613 Q -446.758 938.658 -446.728 938.704 Q -446.698 938.750 -446.651 938.828 "></path>
    <path id="STROKE_9c7e56fb-264a-4e9b-9c98-97a86e5b5dfa" opacity="1.000" fill="none" stroke="#000000" stroke-width="0.466" stroke-opacity="1.000" stroke-linecap="round" stroke-linejoin="round" d="M -448.044 923.833 Q -448.021 923.608 -447.773 926.457 Q -447.525 929.306 -447.032 932.289 Q -446.539 935.273 -446.089 936.749 Q -445.638 938.225 -445.531 938.488 "></path>
    <path id="STROKE_3a31345f-a2bb-4cc5-8870-ec83200513cf" opacity="1.000" fill="none" stroke="#000000" stroke-width="0.465" stroke-opacity="1.000" stroke-linecap="round" stroke-linejoin="round" d="M -444.873 938.362 Q -444.873 938.347 -444.908 938.303 Q -444.908 938.318 -444.860 938.428 Q -444.954 938.408 -444.559 938.433 Q -444.164 938.458 -444.070 938.488 "></path>
    <path id="STROKE_e985b769-6db8-4356-a11b-25a1d20830b0" opacity="1.000" fill="none" stroke="#000000" stroke-width="0.459" stroke-opacity="1.000" stroke-linecap="round" stroke-linejoin="round" d="M -450.309 926.571 Q -450.287 927.089 -450.339 925.351 Q -450.280 926.189 -450.337 925.977 Q -450.395 925.766 -450.322 929.536 Q -450.248 933.305 -449.863 935.782 Q -449.477 938.260 -449.393 938.441 "></path>
    <path id="STROKE_6cc88a45-82ba-4c2d-bd08-12e8066e03f2" opacity="1.000" fill="none" stroke="#000000" stroke-width="0.459" stroke-opacity="1.000" stroke-linecap="round" stroke-linejoin="round" d="M -458.710 911.381 Q -458.509 911.230 -459.318 913.952 Q -460.127 916.673 -460.541 919.798 Q -460.954 922.922 -461.009 925.318 Q -461.063 927.714 -460.813 929.528 Q -460.562 931.342 -460.274 932.248 Q -459.987 933.154 -459.825 933.692 Q -459.663 934.231 -459.244 935.150 Q -458.824 936.069 -458.572 936.554 "></path>
    <path id="STROKE_b917b6d9-3b70-4535-b7a5-69b542da007c" opacity="1.000" fill="none" stroke="#000000" stroke-width="0.464" stroke-opacity="1.000" stroke-linecap="round" stroke-linejoin="round" d="M -457.023 917.670 Q -456.944 917.452 -457.374 918.292 Q -457.804 919.133 -457.980 921.015 Q -458.155 922.897 -458.195 925.285 Q -458.236 927.672 -457.993 930.021 Q -457.751 932.369 -457.025 934.698 Q -456.299 937.026 -456.161 937.359 "></path>
    <path id="STROKE_484ad63b-0c2c-4eb9-958a-7c9a713442cb" opacity="1.000" fill="none" stroke="#000000" stroke-width="0.457" stroke-opacity="1.000" stroke-linecap="round" stroke-linejoin="round" d="M -457.825 936.639 Q -457.557 936.778 -457.124 936.985 Q -456.691 937.191 -456.581 937.247 "></path>
    <path id="STROKE_f1d0389d-bf8c-4efc-b0d7-2dee4aee1df6" opacity="1.000" fill="none" stroke="#000000" stroke-width="0.462" stroke-opacity="1.000" stroke-linecap="round" stroke-linejoin="round" d="M -457.741 921.556 Q -457.822 921.967 -457.813 921.889 Q -457.992 921.714 -457.800 925.020 Q -457.607 928.326 -457.218 930.363 Q -456.830 932.399 -456.516 933.193 Q -456.203 933.988 -456.108 934.113 "></path>
    <path id="STROKE_af02a6af-63c3-45ae-8663-0a68b546562c" opacity="1.000" fill="none" stroke="#000000" stroke-width="0.464" stroke-opacity="1.000" stroke-linecap="round" stroke-linejoin="round" d="M -455.523 932.317 Q -455.569 932.472 -455.539 932.418 Q -455.509 932.364 -455.557 932.429 Q -455.605 932.494 -455.689 932.585 Q -455.772 932.676 -455.820 932.716 Q -455.868 932.757 -455.932 932.807 Q -455.996 932.857 -456.638 933.521 Q -457.281 934.185 -457.286 934.203 "></path>
    <path id="STROKE_53cc595f-5e99-4f49-b13f-fa8d70fb0361" opacity="1.000" fill="none" stroke="#000000" stroke-width="0.462" stroke-opacity="1.000" stroke-linecap="round" stroke-linejoin="round" d="M -454.616 932.367 Q -454.579 932.461 -454.764 932.664 Q -454.948 932.867 -455.062 932.977 Q -455.175 933.088 -455.328 933.230 Q -455.481 933.373 -455.682 933.533 Q -455.883 933.693 -456.183 934.043 Q -456.178 934.043 -456.139 934.037 Q -456.099 934.031 -456.025 934.020 "></path>
    <path id="STROKE_5bcea536-232e-42d5-bfd8-8901abc03e00" opacity="1.000" fill="none" stroke="#000000" stroke-width="0.465" stroke-opacity="1.000" stroke-linecap="round" stroke-linejoin="round" d="M -453.844 932.489 Q -453.839 932.489 -453.834 932.489 Q -453.868 932.614 -455.132 933.915 Q -455.088 933.927 -455.044 933.933 "></path>
    <path id="STROKE_bffdaabb-46c7-47a6-b9d2-272ecda07a26" opacity="1.000" fill="none" stroke="#000000" stroke-width="0.461" stroke-opacity="1.000" stroke-linecap="round" stroke-linejoin="round" d="M -453.207 932.868 Q -453.207 932.855 -453.095 932.769 Q -452.803 932.497 -453.467 933.199 Q -454.132 933.902 -454.164 933.933 "></path>
    <path id="STROKE_62dd363e-2293-4529-8f53-451e13ff98d7" opacity="1.000" fill="none" stroke="#000000" stroke-width="0.461" stroke-opacity="1.000" stroke-linecap="round" stroke-linejoin="round" d="M -452.374 932.953 Q -452.367 932.953 -452.337 932.953 Q -452.333 932.995 -452.335 933.046 Q -452.338 933.098 -453.490 933.994 Q -453.446 934.001 -453.402 934.008 "></path>
    <path id="STROKE_214a6843-11c1-460d-8652-308d1efd69a8" opacity="1.000" fill="none" stroke="#000000" stroke-width="0.461" stroke-opacity="1.000" stroke-linecap="round" stroke-linejoin="round" d="M -451.787 933.565 Q -451.740 933.543 -451.846 933.572 Q -451.953 933.600 -452.282 933.898 Q -452.612 934.196 -452.630 934.215 "></path>
    <path id="STROKE_ba403d10-948d-444b-9309-3aae37cdbcde" opacity="1.000" fill="none" stroke="#000000" stroke-width="0.460" stroke-opacity="1.000" stroke-linecap="round" stroke-linejoin="round" d="M -450.951 933.787 Q -451.148 933.901 -451.105 933.890 Q -451.132 933.922 -451.639 934.314 Q -451.614 934.332 -451.588 934.349 "></path>
    <circle id="STROKE_633d4779-d7e7-4368-b34d-1646513e2d9d" opacity="1.000" fill="#000000" stroke="#000000" stroke-width="0.1" stroke-opacity="1.000" fill-opacity="1.000" cx="-450.941" cy="934.620" r="0.257"></circle>
    <path id="STROKE_ebe3d6e7-a26d-420e-bca5-a63a4bc376a4" opacity="1.000" fill="none" stroke="#000000" stroke-width="0.478" stroke-opacity="1.000" stroke-linecap="round" stroke-linejoin="round" d="M -453.392 935.345 Q -453.392 935.338 -453.326 935.153 Q -453.318 935.153 -453.302 935.153 Q -453.278 935.169 -453.235 936.115 Q -453.193 937.062 -453.115 937.597 Q -453.037 938.132 -452.937 938.380 Q -452.837 938.629 -452.638 938.731 Q -452.439 938.832 -452.320 938.704 Q -452.201 938.576 -452.109 938.292 Q -452.017 938.008 -451.969 937.735 Q -451.920 937.463 -451.911 936.937 Q -451.902 936.411 -451.916 936.255 "></path>
    <path id="STROKE_06a78e58-d363-4fc5-978c-a1c2bee904f1" opacity="1.000" fill="none" stroke="#000000" stroke-width="0.484" stroke-opacity="1.000" stroke-linecap="round" stroke-linejoin="round" d="M -454.568 936.777 Q -454.577 936.777 -454.687 936.777 Q -454.668 936.913 -454.277 936.814 Q -453.887 936.716 -453.505 936.637 Q -453.123 936.559 -453.093 936.536 "></path>
    <path id="STROKE_1df43dbe-fcca-48b7-a6ac-83c336e5f6ba" opacity="1.000" fill="none" stroke="#000000" stroke-width="0.486" stroke-opacity="1.000" stroke-linecap="round" stroke-linejoin="round" d="M -454.868 935.703 Q -454.876 935.703 -454.913 935.703 Q -454.813 935.728 -454.169 935.664 Q -453.524 935.601 -453.273 935.883 Q -453.021 936.165 -453.007 936.210 "></path>
    <path id="STROKE_5d7a0dfd-f6fa-4022-888a-0fa0c015d19a" opacity="1.000" fill="none" stroke="#000000" stroke-width="0.464" stroke-opacity="1.000" stroke-linecap="round" stroke-linejoin="round" d="M -454.048 934.331 Q -454.048 934.324 -454.048 934.317 Q -454.169 934.404 -454.958 935.703 Q -454.943 935.703 -454.929 935.703 "></path>
    <path id="STROKE_dd3f05f7-3f26-48f8-8832-2f713afcc57a" opacity="1.000" fill="none" stroke="#000000" stroke-width="0.464" stroke-opacity="1.000" stroke-linecap="round" stroke-linejoin="round" d="M -453.556 934.601 Q -453.498 934.437 -453.505 934.467 Q -453.490 934.444 -453.453 934.391 Q -453.506 934.740 -453.505 934.638 Q -453.578 934.803 -453.990 935.494 Q -453.968 935.501 -453.945 935.508 "></path>
    <path id="STROKE_e125575b-a63f-471d-9067-439b1759371d" opacity="1.000" fill="none" stroke="#000000" stroke-width="0.464" stroke-opacity="1.000" stroke-linecap="round" stroke-linejoin="round" d="M -452.933 934.572 Q -452.867 934.554 -452.855 934.526 Q -452.888 934.652 -453.052 934.882 Q -453.217 935.113 -453.437 935.540 Q -453.392 935.524 -453.347 935.508 "></path>
    <path id="STROKE_e9fb3836-d542-420a-b322-2665d60f7312" opacity="1.000" fill="none" stroke="#000000" stroke-width="0.464" stroke-opacity="1.000" stroke-linecap="round" stroke-linejoin="round" d="M -452.318 934.795 Q -452.312 934.795 -452.261 934.721 Q -452.426 934.961 -453.007 935.986 Q -452.998 935.986 -452.990 935.986 "></path>
    <path id="STROKE_12b28187-782f-42e3-acdd-19f77e34a046" opacity="1.000" fill="none" stroke="#000000" stroke-width="0.464" stroke-opacity="1.000" stroke-linecap="round" stroke-linejoin="round" d="M -451.888 935.079 Q -451.888 935.070 -451.888 934.987 Q -451.810 934.985 -452.605 936.479 Q -452.619 936.456 -452.634 936.433 "></path>
    <path id="STROKE_7ab557c8-b0c9-4e5a-bfb3-c723b11b7dad" opacity="1.000" fill="none" stroke="#000000" stroke-width="0.457" stroke-opacity="1.000" stroke-linecap="round" stroke-linejoin="round" d="M -451.457 935.167 Q -451.567 935.257 -452.736 937.461 Q -452.699 937.408 -452.662 937.355 "></path>
    <path id="STROKE_ecea5624-3950-461e-8562-dc41cf7ff496" opacity="1.000" fill="none" stroke="#000000" stroke-width="0.464" stroke-opacity="1.000" stroke-linecap="round" stroke-linejoin="round" d="M -451.842 936.507 Q -451.883 936.710 -451.879 936.649 Q -451.790 936.466 -452.132 937.063 Q -452.473 937.660 -452.855 938.369 Q -452.849 938.369 -452.823 938.343 Q -452.798 938.317 -452.752 938.265 "></path>
    <path id="STROKE_1fdba2d9-d09c-4048-ae6e-27c7942e6eb2" opacity="1.000" fill="none" stroke="#000000" stroke-width="0.469" stroke-opacity="1.000" stroke-linecap="round" stroke-linejoin="round" d="M -452.277 937.670 Q -452.388 937.808 -452.409 938.010 Q -452.431 938.213 -452.408 938.234 "></path>
    <path id="STROKE_792ca6b6-010d-42f6-9963-8414c45e9481" opacity="1.000" fill="none" stroke="#000000" stroke-width="0.455" stroke-opacity="1.000" stroke-linecap="round" stroke-linejoin="round" d="M -450.920 935.777 Q -450.921 935.748 -451.830 937.089 Q -451.777 937.082 -451.724 937.074 "></path>
    <path id="STROKE_fce47ce5-126d-4c65-a527-50be8b0042dd" opacity="1.000" fill="none" stroke="#000000" stroke-width="0.459" stroke-opacity="1.000" stroke-linecap="round" stroke-linejoin="round" d="M -450.711 936.284 Q -450.838 936.388 -450.807 936.359 Q -450.733 936.306 -451.322 937.057 Q -451.262 937.020 -451.203 936.983 "></path>
    <path id="STROKE_6702681e-53b3-472e-8b3f-408832edc99f" opacity="1.000" fill="none" stroke="#000000" stroke-width="0.464" stroke-opacity="1.000" stroke-linecap="round" stroke-linejoin="round" d="M -454.257 937.922 Q -454.078 937.640 -454.107 937.737 Q -453.861 937.639 -453.906 937.654 Q -453.831 937.624 -453.757 937.583 Q -453.683 937.542 -453.630 937.504 "></path>
    <circle id="STROKE_a4ca86de-3896-43cd-a494-72483265f86c" opacity="1.000" fill="#000000" stroke="#000000" stroke-width="0.1" stroke-opacity="1.000" fill-opacity="1.000" cx="-453.437" cy="938.964" r="0.267"></circle>
    <path id="STROKE_d9250b57-c8af-414d-b7cd-f105f0455350" opacity="1.000" fill="none" stroke="#000000" stroke-width="0.466" stroke-opacity="1.000" stroke-linecap="round" stroke-linejoin="round" d="M -461.823 911.832 Q -461.965 911.988 -462.871 913.927 Q -463.777 915.866 -464.545 917.828 Q -465.314 919.789 -465.617 920.984 Q -465.920 922.179 -466.126 925.106 Q -466.332 928.034 -466.340 930.135 Q -466.347 932.236 -465.957 934.117 Q -465.568 935.997 -465.085 936.898 Q -464.603 937.800 -464.451 938.024 "></path>
    <path id="STROKE_a38d6d49-4251-4708-ae46-b41b87b7736b" opacity="1.000" fill="none" stroke="#000000" stroke-width="0.467" stroke-opacity="1.000" stroke-linecap="round" stroke-linejoin="round" d="M -434.168 944.776 Q -434.391 944.921 -433.962 947.030 Q -433.533 949.140 -433.329 951.067 Q -433.125 952.994 -433.162 954.492 Q -433.199 955.990 -433.675 957.450 Q -434.151 958.910 -434.664 959.896 Q -435.177 960.882 -435.609 961.410 Q -436.041 961.939 -436.483 961.946 Q -436.925 961.954 -437.125 961.809 "></path>
    <path id="STROKE_607c80f3-5a79-4045-8d6e-2f32a0b24d88" opacity="1.000" fill="none" stroke="#000000" stroke-width="0.466" stroke-opacity="1.000" stroke-linecap="round" stroke-linejoin="round" d="M -426.781 925.568 Q -426.520 925.754 -426.581 925.784 Q -426.375 926.491 -426.432 926.328 Q -426.400 926.534 -425.135 932.582 Q -423.869 938.630 -423.128 942.372 Q -422.386 946.114 -422.248 949.059 Q -422.110 952.004 -422.065 953.475 Q -422.020 954.946 -422.508 956.647 Q -422.995 958.348 -423.559 959.891 Q -424.123 961.435 -425.859 962.627 Q -427.594 963.819 -427.868 963.909 "></path>
    <path id="STROKE_4b7654d5-307f-4540-b3ae-3026e5bd4a3a" opacity="1.000" fill="none" stroke="#000000" stroke-width="0.463" stroke-opacity="1.000" stroke-linecap="round" stroke-linejoin="round" d="M -410.861 928.829 Q -410.961 929.093 -410.376 931.905 Q -409.791 934.718 -409.634 938.179 Q -409.478 941.639 -409.560 944.408 Q -409.643 947.176 -410.444 949.916 Q -411.246 952.656 -412.496 955.009 Q -413.746 957.362 -414.927 958.947 Q -416.108 960.531 -416.966 960.963 Q -417.824 961.394 -418.113 961.485 "></path>
    <path id="STROKE_5ade1290-b1a6-49bb-a386-bb86d978b03c" opacity="1.000" fill="none" stroke="#000000" stroke-width="0.468" stroke-opacity="1.000" stroke-linecap="round" stroke-linejoin="round" d="M -429.384 939.085 Q -429.249 939.158 -429.023 942.994 Q -428.798 946.831 -428.658 949.214 Q -428.518 951.596 -428.903 953.758 Q -429.287 955.921 -430.086 957.696 Q -430.885 959.472 -431.674 960.629 Q -432.462 961.785 -433.217 961.980 Q -433.973 962.174 -434.172 962.174 "></path>
    <path id="STROKE_7448871e-0ddd-43ad-850d-ca683aac4d55" opacity="1.000" fill="none" stroke="#000000" stroke-width="0.466" stroke-opacity="1.000" stroke-linecap="round" stroke-linejoin="round" d="M -436.456 962.209 Q -436.436 962.209 -436.386 962.227 L -436.386 962.244 Q -436.480 962.314 -436.075 962.321 Q -435.669 962.329 -435.029 961.952 Q -434.388 961.576 -433.702 961.286 Q -433.015 960.997 -432.835 960.906 "></path>
    <path id="STROKE_3b10292a-e49e-42af-b294-38afcaa5c38b" opacity="1.000" fill="none" stroke="#000000" stroke-width="0.465" stroke-opacity="1.000" stroke-linecap="round" stroke-linejoin="round" d="M -428.586 949.564 Q -428.622 949.269 -428.531 951.933 Q -428.440 954.598 -428.643 956.642 Q -428.847 958.686 -429.092 959.844 Q -429.337 961.001 -429.790 961.407 Q -430.242 961.812 -430.372 961.812 "></path>
    <path id="STROKE_0e6853ca-2186-4b3b-a625-9f098417c00f" opacity="1.000" fill="none" stroke="#000000" stroke-width="0.465" stroke-opacity="1.000" stroke-linecap="round" stroke-linejoin="round" d="M -424.716 949.376 Q -424.711 950.019 -424.696 949.922 Q -424.689 950.341 -424.558 951.847 Q -424.427 953.354 -424.676 955.124 Q -424.926 956.893 -425.634 958.512 Q -426.341 960.131 -426.977 960.499 Q -427.614 960.868 -427.758 960.906 "></path>
    <path id="STROKE_b738a3d9-6713-4599-8470-ee9dd42ff779" opacity="1.000" fill="none" stroke="#000000" stroke-width="0.464" stroke-opacity="1.000" stroke-linecap="round" stroke-linejoin="round" d="M -427.718 960.649 Q -427.844 961.107 -427.883 961.014 Q -428.251 961.346 -428.212 961.304 Q -428.902 961.611 -428.646 961.485 Q -428.736 961.450 -428.806 961.415 "></path>
    <path id="STROKE_ad03a0ff-bc56-43e5-8a0c-f68fd371d35d" opacity="1.000" fill="none" stroke="#000000" stroke-width="0.465" stroke-opacity="1.000" stroke-linecap="round" stroke-linejoin="round" d="M -424.457 951.515 Q -424.386 952.237 -424.402 952.096 Q -424.286 952.136 -424.465 955.149 Q -424.645 958.163 -425.382 960.414 Q -426.119 962.666 -426.802 963.408 Q -427.484 964.150 -427.649 964.167 "></path>
    <path id="STROKE_4fae768b-584c-46f0-b8e8-ad66938a7d0f" opacity="1.000" fill="none" stroke="#000000" stroke-width="0.466" stroke-opacity="1.000" stroke-linecap="round" stroke-linejoin="round" d="M -459.858 912.351 Q -459.995 912.240 -460.904 914.349 Q -461.814 916.457 -462.322 918.135 Q -462.831 919.812 -463.253 921.369 Q -463.676 922.925 -464.024 926.407 Q -464.373 929.889 -464.418 932.080 Q -464.464 934.271 -464.303 935.740 Q -464.143 937.209 -463.861 937.947 Q -463.579 938.686 -463.457 938.900 "></path>
    <path id="STROKE_bd87c2e3-87c3-4273-b308-09e7f1ddd530" opacity="1.000" fill="none" stroke="#000000" stroke-width="0.464" stroke-opacity="1.000" stroke-linecap="round" stroke-linejoin="round" d="M -461.258 914.728 Q -461.200 914.885 -461.618 916.722 Q -462.037 918.559 -462.072 921.241 Q -462.107 923.923 -462.049 925.944 Q -461.991 927.966 -461.270 930.508 Q -460.550 933.051 -459.908 934.739 Q -459.266 936.427 -458.275 937.387 Q -457.283 938.348 -457.058 938.468 "></path>
    <path id="STROKE_d21210f4-fc09-4344-83c8-3367c0856ce6" opacity="1.000" fill="none" stroke="#000000" stroke-width="0.464" stroke-opacity="1.000" stroke-linecap="round" stroke-linejoin="round" d="M -467.383 937.427 Q -467.099 937.468 -467.194 937.407 Q -467.289 937.347 -466.802 937.654 Q -466.314 937.962 -466.228 938.022 "></path>
    <path id="STROKE_c535b7f8-d304-448b-9566-b52c3978fef6" opacity="1.000" fill="none" stroke="#000000" stroke-width="0.462" stroke-opacity="1.000" stroke-linecap="round" stroke-linejoin="round" d="M -464.976 919.217 Q -464.791 918.909 -465.219 919.849 Q -465.646 920.789 -466.147 922.036 Q -466.648 923.283 -466.985 925.371 Q -467.321 927.458 -467.315 929.787 Q -467.309 932.116 -466.891 934.468 Q -466.474 936.819 -466.015 937.881 Q -465.557 938.942 -465.451 939.091 "></path>
    <path id="STROKE_c5943d66-5bcb-479b-a2e8-2a4168f25b4d" opacity="1.000" fill="none" stroke="#000000" stroke-width="0.463" stroke-opacity="1.000" stroke-linecap="round" stroke-linejoin="round" d="M -423.219 943.328 Q -423.202 943.328 -423.185 943.328 Q -423.401 943.308 -422.576 946.674 Q -421.750 950.039 -421.305 952.901 Q -420.860 955.762 -420.771 957.750 Q -420.683 959.737 -421.191 960.686 Q -421.698 961.636 -421.870 961.744 "></path>
    <path id="STROKE_69174e02-69fe-4544-92b2-baf16a8d6819" opacity="1.000" fill="none" stroke="#000000" stroke-width="0.465" stroke-opacity="1.000" stroke-linecap="round" stroke-linejoin="round" d="M -420.968 960.280 Q -420.981 960.280 -421.252 960.280 Q -421.575 960.267 -420.921 960.486 Q -420.268 960.705 -419.449 960.448 Q -418.631 960.191 -418.049 959.626 Q -417.467 959.061 -417.154 958.749 "></path>
    <path id="STROKE_1192e73a-7264-46ec-9c7f-70ecf4cb3018" opacity="1.000" fill="none" stroke="#000000" stroke-width="0.458" stroke-opacity="1.000" stroke-linecap="round" stroke-linejoin="round" d="M -416.655 957.843 Q -416.357 957.538 -417.250 959.758 Q -418.142 961.978 -418.219 962.056 "></path>
    <path id="STROKE_1340b727-886d-42f0-8570-dd3eff3b89e2" opacity="1.000" fill="none" stroke="#000000" stroke-width="0.461" stroke-opacity="1.000" stroke-linecap="round" stroke-linejoin="round" d="M -411.303 927.332 Q -411.071 927.719 -410.166 930.584 Q -409.260 933.448 -408.703 935.966 Q -408.145 938.485 -407.883 941.361 Q -407.621 944.238 -407.621 946.460 Q -407.620 948.682 -407.829 950.259 Q -408.038 951.836 -408.752 954.195 Q -409.465 956.553 -410.391 957.675 Q -411.317 958.798 -411.586 958.975 "></path>
    <path id="STROKE_b568ea21-923f-417e-8562-417cdf8bf148" opacity="1.000" fill="none" stroke="#000000" stroke-width="0.465" stroke-opacity="1.000" stroke-linecap="round" stroke-linejoin="round" d="M -409.877 946.134 Q -409.943 946.167 -409.866 948.243 Q -409.790 950.320 -410.258 953.009 Q -410.725 955.698 -411.312 957.441 Q -411.899 959.185 -412.399 959.808 Q -412.899 960.431 -413.040 960.503 "></path>
    <path id="STROKE_00244aab-3ed7-4487-b8f3-84afd768db9c" opacity="1.000" fill="none" stroke="#000000" stroke-width="0.462" stroke-opacity="1.000" stroke-linecap="round" stroke-linejoin="round" d="M -446.572 903.277 Q -446.458 903.112 -446.460 903.114 Q -446.455 903.088 -446.426 903.026 Q -446.472 903.017 -446.407 903.024 Q -446.342 903.032 -446.583 902.972 Q -446.823 902.912 -447.512 902.979 Q -448.200 903.047 -449.966 903.515 Q -451.732 903.984 -453.217 904.555 Q -454.702 905.126 -456.978 906.358 Q -459.253 907.590 -460.546 908.929 Q -461.839 910.267 -461.912 910.374 "></path>
    <path id="STROKE_220f27f1-b486-40c8-8ca7-c6335ee44e30" opacity="1.000" fill="none" stroke="#000000" stroke-width="0.458" stroke-opacity="1.000" stroke-linecap="round" stroke-linejoin="round" d="M -435.616 933.322 Q -435.616 933.312 -435.587 933.177 Q -435.195 933.039 -435.303 933.083 Q -435.027 933.014 -435.042 933.029 Q -434.672 932.995 -434.397 933.045 Q -434.121 933.095 -433.915 933.131 Q -433.708 933.167 -433.587 933.155 Q -433.465 933.144 -433.363 933.171 Q -433.261 933.197 -433.200 933.238 "></path>
    <path id="STROKE_f60e95f6-69c0-4ee3-80d6-cc64efc67ce9" opacity="1.000" fill="none" stroke="#000000" stroke-width="0.465" stroke-opacity="1.000" stroke-linecap="round" stroke-linejoin="round" d="M -432.988 933.654 Q -432.988 933.644 -433.011 933.550 Q -432.527 933.190 -431.710 934.866 Q -430.894 936.542 -430.842 936.636 "></path>
    <path id="STROKE_2fa21d66-c761-4e99-b404-e465a8331f65" opacity="1.000" fill="none" stroke="#000000" stroke-width="0.459" stroke-opacity="1.000" stroke-linecap="round" stroke-linejoin="round" d="M -434.491 934.071 Q -434.375 933.958 -433.726 934.218 Q -433.077 934.478 -432.630 934.736 Q -432.184 934.994 -431.867 935.513 Q -431.551 936.033 -431.468 936.179 "></path>
    <path id="STROKE_f782381d-bf50-4ab7-8e0d-19868a7f6c99" opacity="1.000" fill="none" stroke="#000000" stroke-width="0.458" stroke-opacity="1.000" stroke-linecap="round" stroke-linejoin="round" d="M -435.243 936.095 Q -434.883 935.969 -434.950 936.001 Q -434.874 936.050 -434.301 935.954 Q -433.728 935.858 -432.939 936.394 Q -432.149 936.931 -431.860 937.340 Q -431.571 937.749 -431.503 937.986 Q -431.435 938.222 -431.382 938.514 Q -431.330 938.806 -431.319 938.868 "></path>
    <path id="STROKE_37abd5d4-4b57-4cd9-9370-4e98152485a2" opacity="1.000" fill="none" stroke="#000000" stroke-width="0.460" stroke-opacity="1.000" stroke-linecap="round" stroke-linejoin="round" d="M -431.215 935.971 Q -431.116 936.462 -431.132 936.325 Q -431.059 936.526 -431.049 936.553 Q -431.038 936.581 -431.036 936.580 Q -431.034 936.579 -431.023 936.620 Q -431.013 936.661 -430.948 936.826 Q -430.883 936.990 -430.842 937.073 "></path>
    <path id="STROKE_eeef2eaa-1453-4e0a-84cf-fcd21eb6c251" opacity="1.000" fill="none" stroke="#000000" stroke-width="0.457" stroke-opacity="1.000" stroke-linecap="round" stroke-linejoin="round" d="M -431.301 940.158 Q -431.274 940.221 -431.740 940.966 Q -432.207 941.712 -432.583 942.058 Q -432.959 942.404 -433.306 942.613 Q -433.653 942.823 -433.833 942.820 Q -434.012 942.817 -434.055 942.827 "></path>
    <path id="STROKE_00de4820-53bf-402f-81d5-eff75400d0a9" opacity="1.000" fill="none" stroke="#000000" stroke-width="0.460" stroke-opacity="1.000" stroke-linecap="round" stroke-linejoin="round" d="M -435.077 936.407 Q -435.050 936.495 -435.071 936.645 Q -435.092 936.796 -434.010 937.560 Q -432.928 938.325 -432.822 938.407 "></path>
    <path id="STROKE_8084944f-ccba-4b24-8ae0-6022ff800817" opacity="1.000" fill="none" stroke="#000000" stroke-width="0.458" stroke-opacity="1.000" stroke-linecap="round" stroke-linejoin="round" d="M -434.927 937.970 Q -434.682 937.968 -434.689 937.992 Q -434.440 937.912 -433.246 938.760 Q -432.053 939.607 -431.990 939.682 "></path>
    <path id="STROKE_d21bd35f-b655-4be3-a6ff-d800e5cd6b51" opacity="1.000" fill="none" stroke="#000000" stroke-width="0.460" stroke-opacity="1.000" stroke-linecap="round" stroke-linejoin="round" d="M -435.077 939.265 Q -435.107 939.365 -435.014 939.510 Q -434.920 939.655 -434.001 940.743 Q -434.216 941.053 -434.179 940.994 Q -434.273 941.090 -434.590 941.354 Q -434.907 941.619 -434.927 941.661 "></path>
    <path id="STROKE_567a5fb1-c2bf-4fe9-b928-5cde77a544e3" opacity="1.000" fill="none" stroke="#000000" stroke-width="0.462" stroke-opacity="1.000" stroke-linecap="round" stroke-linejoin="round" d="M -446.776 959.076 Q -446.672 959.212 -446.941 958.477 L -446.961 958.477 Q -446.958 959.239 -446.968 959.203 Q -446.978 959.167 -446.935 959.814 Q -446.891 960.462 -446.675 961.505 Q -446.459 962.549 -446.044 965.720 Q -445.630 968.891 -445.577 968.928 "></path>
    <path id="STROKE_59f104ec-0b26-4d08-b0cb-6b736cb2bba7" opacity="1.000" fill="none" stroke="#000000" stroke-width="0.477" stroke-opacity="1.000" stroke-linecap="round" stroke-linejoin="round" d="M -446.776 958.899 Q -446.795 958.899 -446.922 958.882 Q -446.922 958.848 -446.922 958.722 Q -446.415 958.722 -446.517 958.722 Q -445.616 958.442 -445.893 958.477 Q -445.937 958.262 -445.294 958.104 Q -444.651 957.946 -444.543 957.946 "></path>
    <path id="STROKE_23415996-aa93-4a27-b63f-98d7a7c1b96c" opacity="1.000" fill="none" stroke="#000000" stroke-width="0.458" stroke-opacity="1.000" stroke-linecap="round" stroke-linejoin="round" d="M -425.136 962.337 Q -425.136 962.320 -425.136 962.269 Q -425.136 963.040 -425.136 962.797 Q -425.136 963.513 -425.136 963.379 Q -425.363 963.249 -425.055 965.290 Q -424.746 967.331 -424.678 967.403 "></path>
    <path id="STROKE_a4a8978e-b940-435a-93f7-4f433bd08c30" opacity="1.000" fill="none" stroke="#000000" stroke-width="0.458" stroke-opacity="1.000" stroke-linecap="round" stroke-linejoin="round" d="M -456.465 934.974 Q -456.364 934.755 -456.099 934.307 Q -455.834 933.859 -455.784 933.779 "></path>
    <path id="STROKE_53cadd46-c2bf-498e-a233-8e00d0d1cee3" opacity="1.000" fill="none" stroke="#000000" stroke-width="0.457" stroke-opacity="1.000" stroke-linecap="round" stroke-linejoin="round" d="M -455.647 935.254 Q -455.467 935.220 -455.257 934.868 Q -455.047 934.516 -454.967 934.396 "></path>
    <path id="STROKE_a859a1ee-256c-4f52-8bf1-2599fd75a0ef" opacity="1.000" fill="none" stroke="#000000" stroke-width="0.455" stroke-opacity="1.000" stroke-linecap="round" stroke-linejoin="round" d="M -458.049 927.852 Q -457.999 927.211 -455.688 927.401 Q -453.376 927.591 -453.212 927.725 "></path>
    <path id="STROKE_cf3e9558-b9ad-4e55-84c4-1e74552bec75" opacity="1.000" fill="none" stroke="#000000" stroke-width="0.464" stroke-opacity="1.000" stroke-linecap="round" stroke-linejoin="round" d="M -448.241 968.180 Q -448.241 968.794 -448.241 968.756 Q -448.616 969.244 -448.105 971.672 Q -447.594 974.101 -447.512 974.200 "></path>
    <path id="STROKE_3e394909-0499-4369-baf9-1ee1687295fa" opacity="1.000" fill="none" stroke="#000000" stroke-width="0.593" stroke-opacity="1.000" stroke-linecap="round" stroke-linejoin="round" d="M -446.583 970.757 Q -446.304 970.735 -443.937 970.837 Q -441.571 970.939 -439.864 970.843 Q -438.156 970.748 -436.994 970.553 Q -435.832 970.357 -433.675 969.928 Q -431.517 969.499 -428.148 969.070 Q -424.779 968.642 -424.365 968.543 "></path>
    <path id="STROKE_62cceeef-9532-496b-b5bb-984f3a27049d" opacity="1.000" fill="none" stroke="#000000" stroke-width="0.459" stroke-opacity="1.000" stroke-linecap="round" stroke-linejoin="round" d="M -424.365 968.346 Q -424.958 968.682 -424.747 968.559 Q -424.766 968.575 -424.793 968.607 Q -424.974 968.638 -423.800 968.527 Q -423.758 968.462 -423.697 968.361 Q -423.636 968.260 -423.572 968.142 "></path>
    <path id="STROKE_e8d1163d-d162-4cb7-a82d-1c7a6d3f6f39" opacity="1.000" fill="none" stroke="#000000" stroke-width="0.460" stroke-opacity="1.000" stroke-linecap="round" stroke-linejoin="round" d="M -423.308 968.244 Q -423.165 968.177 -423.224 968.272 Q -423.282 968.367 -423.212 968.289 Q -423.142 968.211 -423.000 967.904 Q -422.857 967.598 -422.807 967.481 "></path>
    <path id="STROKE_b02bcaa2-7584-415e-a2ed-4a4cab79f415" opacity="1.000" fill="none" stroke="#000000" stroke-width="0.460" stroke-opacity="1.000" stroke-linecap="round" stroke-linejoin="round" d="M -422.516 966.354 Q -422.914 966.417 -422.794 966.408 Q -423.043 966.605 -420.922 966.921 Q -420.831 966.263 -420.985 970.796 Q -420.972 970.796 -420.881 970.762 Q -420.789 970.729 -420.694 970.662 "></path>
    <path id="STROKE_18e35464-6c5c-4ebc-8fa8-8dca2ae0bd3c" opacity="1.000" fill="none" stroke="#000000" stroke-width="0.460" stroke-opacity="1.000" stroke-linecap="round" stroke-linejoin="round" d="M -421.914 966.590 Q -422.319 966.590 -422.210 966.590 Q -422.261 966.590 -422.543 966.472 Q -422.730 966.410 -422.725 966.424 Q -422.743 966.408 -422.807 966.157 Q -423.356 966.204 -423.176 966.208 Q -423.306 966.275 -423.577 966.309 Q -423.848 966.343 -423.824 966.353 Q -423.801 966.363 -423.827 966.356 Q -423.854 966.349 -423.980 966.463 Q -424.106 966.578 -424.137 966.665 Q -424.169 966.752 -424.237 966.819 "></path>
    <path id="STROKE_cb407708-eac2-4018-85ff-67645c8a920c" opacity="1.000" fill="none" stroke="#000000" stroke-width="0.602" stroke-opacity="1.000" stroke-linecap="round" stroke-linejoin="round" d="M -447.919 968.888 Q -447.937 968.888 -448.019 968.824 Q -448.207 968.712 -446.740 968.957 Q -445.273 969.203 -445.140 969.250 "></path>
    <path id="STROKE_85a01d6b-e693-4f6a-bcaa-97db2dbdcad3" opacity="1.000" fill="none" stroke="#000000" stroke-width="0.464" stroke-opacity="1.000" stroke-linecap="round" stroke-linejoin="round" d="M -446.261 971.038 Q -446.555 970.774 -446.480 970.809 Q -446.485 971.009 -446.548 970.478 Q -446.612 969.947 -446.625 969.880 "></path>
    <path id="STROKE_43d9b137-766c-4550-9f77-fc694da5deb7" opacity="1.000" fill="none" stroke="#000000" stroke-width="0.460" stroke-opacity="1.000" stroke-linecap="round" stroke-linejoin="round" d="M -445.182 975.046 Q -445.234 974.951 -445.190 974.978 Q -445.146 975.006 -445.212 975.361 Q -445.279 975.716 -441.216 976.585 Q -437.152 977.455 -436.624 977.670 "></path>
    <path id="STROKE_8834d6a4-b3af-431a-b0fb-632ffe441155" opacity="1.000" fill="none" stroke="#000000" stroke-width="0.472" stroke-opacity="1.000" stroke-linecap="round" stroke-linejoin="round" d="M -433.569 976.886 Q -433.990 976.898 -434.433 976.867 Q -434.268 976.425 -429.947 975.314 Q -425.626 974.202 -425.098 974.066 "></path>
    <path id="STROKE_5ee07d14-596f-46c6-a481-3b18b72005f1" opacity="1.000" fill="none" stroke="#000000" stroke-width="0.461" stroke-opacity="1.000" stroke-linecap="round" stroke-linejoin="round" d="M -422.658 973.946 Q -422.392 973.934 -423.284 973.983 Q -423.273 974.240 -422.273 974.163 Q -421.272 974.085 -421.137 974.029 "></path>
    <path id="STROKE_6d182a11-753f-48ec-9900-9ca6c2684279" opacity="1.000" fill="none" stroke="#000000" stroke-width="0.464" stroke-opacity="1.000" stroke-linecap="round" stroke-linejoin="round" d="M -420.155 971.164 Q -420.155 971.145 -420.187 971.006 Q -420.209 971.006 -420.349 971.006 Q -420.349 971.949 -420.349 971.654 Q -420.349 972.476 -420.349 972.261 Q -420.349 972.922 -420.349 972.830 Q -420.390 972.790 -420.302 972.987 Q -420.214 973.184 -420.155 973.245 "></path>
    <path id="STROKE_ec539f41-ac99-4e51-8eb6-54e5ee42b8ad" opacity="1.000" fill="none" stroke="#000000" stroke-width="0.466" stroke-opacity="1.000" stroke-linecap="round" stroke-linejoin="round" d="M -419.874 973.358 Q -419.871 973.996 -419.858 973.848 Q -420.643 972.874 -418.602 975.675 Q -416.561 978.476 -416.539 978.537 "></path>
    <path id="STROKE_03a900d4-4b69-488d-bbdb-435e4c0bce3d" opacity="1.000" fill="none" stroke="#000000" stroke-width="0.464" stroke-opacity="1.000" stroke-linecap="round" stroke-linejoin="round" d="M -417.090 977.715 Q -416.629 977.731 -416.761 977.809 Q -416.735 977.919 -416.727 978.065 Q -416.718 978.211 -415.898 979.176 Q -415.079 980.140 -414.389 980.877 Q -413.700 981.614 -413.325 982.329 Q -412.951 983.044 -412.816 983.240 "></path>
    <path id="STROKE_d70a5223-99e2-4d38-bca4-6b3ac99be1be" opacity="1.000" fill="none" stroke="#000000" stroke-width="0.462" stroke-opacity="1.000" stroke-linecap="round" stroke-linejoin="round" d="M -412.579 983.436 Q -412.406 983.900 -412.384 983.851 Q -412.361 983.582 -411.985 984.804 Q -411.610 986.027 -411.447 986.964 Q -411.285 987.902 -411.325 988.396 Q -411.365 988.890 -411.304 988.996 Q -411.243 989.102 -410.992 992.672 Q -410.741 996.241 -410.749 1003.930 Q -410.757 1011.620 -410.707 1015.518 Q -410.658 1019.416 -410.582 1019.673 "></path>
    <path id="STROKE_aa71693d-e91a-44f4-83ea-0b14c1616f4a" opacity="1.000" fill="none" stroke="#000000" stroke-width="0.471" stroke-opacity="1.000" stroke-linecap="round" stroke-linejoin="round" d="M -415.482 980.693 Q -415.374 980.315 -417.487 979.759 Q -419.599 979.204 -419.755 979.162 "></path>
    <path id="STROKE_478d596c-a0be-4b2f-b870-2ee396d81420" opacity="1.000" fill="none" stroke="#000000" stroke-width="0.466" stroke-opacity="1.000" stroke-linecap="round" stroke-linejoin="round" d="M -426.036 981.401 Q -426.059 981.095 -428.401 984.161 Q -430.742 987.226 -431.732 989.704 Q -432.722 992.181 -432.781 992.377 "></path>
    <path id="STROKE_a1d1cd12-8dcd-4aed-914c-1a3964838ced" opacity="1.000" fill="none" stroke="#000000" stroke-width="0.463" stroke-opacity="1.000" stroke-linecap="round" stroke-linejoin="round" d="M -432.900 993.440 Q -432.995 993.196 -432.873 996.919 Q -432.751 1000.642 -431.881 1009.411 Q -431.012 1018.180 -431.012 1018.301 "></path>
    <path id="STROKE_a7b1fd1e-1cda-4d10-9a1e-0e82fbbd8bad" opacity="1.000" fill="none" stroke="#000000" stroke-width="0.469" stroke-opacity="1.000" stroke-linecap="round" stroke-linejoin="round" d="M -448.281 973.657 Q -448.165 974.261 -448.210 974.152 Q -448.210 975.000 -448.210 974.739 Q -448.210 975.490 -448.210 975.368 Q -447.828 975.410 -450.296 981.272 Q -452.764 987.135 -452.875 987.336 "></path>
    <path id="STROKE_f60aef81-6f10-4b22-a61c-db934b0c1099" opacity="1.000" fill="none" stroke="#000000" stroke-width="0.466" stroke-opacity="1.000" stroke-linecap="round" stroke-linejoin="round" d="M -452.946 987.336 Q -452.935 987.241 -452.930 987.487 Q -452.926 987.733 -453.256 988.573 Q -453.586 989.413 -453.937 990.405 Q -454.289 991.397 -454.538 992.222 Q -454.787 993.048 -454.904 993.539 Q -455.021 994.030 -455.354 995.315 Q -455.686 996.600 -455.902 997.290 Q -456.119 997.979 -456.091 998.437 Q -456.064 998.896 -456.072 999.008 Q -456.080 999.121 -456.076 999.033 Q -456.072 998.944 -456.067 999.290 Q -456.062 999.636 -455.761 1002.470 Q -455.459 1005.305 -454.522 1010.049 Q -453.584 1014.794 -453.286 1017.136 Q -452.987 1019.477 -452.946 1019.700 "></path>
    <path id="STROKE_92fcfdfe-ddbd-4619-a37d-45f3bf335c10" opacity="1.000" fill="none" stroke="#000000" stroke-width="0.583" stroke-opacity="1.000" stroke-linecap="round" stroke-linejoin="round" d="M -393.873 921.758 Q -393.895 921.758 -393.950 921.758 Q -394.057 921.604 -393.992 921.780 Q -393.926 921.957 -393.582 922.401 Q -393.237 922.845 -393.183 922.823 Q -393.128 922.800 -392.256 923.315 Q -391.384 923.830 -391.285 923.949 "></path>
    <path id="STROKE_1583baef-06af-43a6-83ed-f8ca49cba9c4" opacity="1.000" fill="none" stroke="#000000" stroke-width="0.585" stroke-opacity="1.000" stroke-linecap="round" stroke-linejoin="round" d="M -393.873 925.067 Q -393.895 925.025 -394.312 924.868 Q -394.488 925.231 -392.269 925.009 Q -390.051 924.788 -389.969 924.868 "></path>
    <path id="STROKE_376dd5f2-24bc-4b16-ac2a-e92e15cd9e1f" opacity="1.000" fill="none" stroke="#000000" stroke-width="0.459" stroke-opacity="1.000" stroke-linecap="round" stroke-linejoin="round" d="M -393.237 926.461 Q -393.237 926.438 -393.237 926.415 Q -392.445 926.472 -390.764 926.262 Q -390.649 926.419 -390.572 926.576 "></path>
    <path id="STROKE_488b3709-a32c-4fec-a7ce-08495fe1bea2" opacity="1.000" fill="none" stroke="#000000" stroke-width="0.524" stroke-opacity="1.000" stroke-linecap="round" stroke-linejoin="round" d="M -392.722 928.131 Q -392.722 927.629 -392.722 927.752 Q -392.722 927.714 -392.722 927.695 Q -393.075 927.834 -391.840 927.845 Q -390.605 927.855 -390.528 927.855 "></path>
    <path id="STROKE_e8336f61-512a-498d-8cf6-8718a0033dfe" opacity="1.000" fill="none" stroke="#000000" stroke-width="0.462" stroke-opacity="1.000" stroke-linecap="round" stroke-linejoin="round" d="M -393.083 930.322 Q -393.083 930.303 -393.083 930.046 Q -393.127 929.782 -392.722 932.911 Q -392.722 932.542 -392.722 930.919 Q -391.654 930.907 -392.003 930.900 Q -391.423 930.834 -391.460 930.824 Q -390.534 930.791 -390.786 930.805 Q -389.953 930.805 -390.166 930.805 Q -389.156 930.233 -389.530 933.470 Q -389.552 933.470 -389.602 933.451 Q -389.651 933.432 -389.728 933.394 "></path>
    <path id="STROKE_4ebb2483-2e72-4a8f-b2eb-0fce2a289254" opacity="1.000" fill="none" stroke="#000000" stroke-width="0.599" stroke-opacity="1.000" stroke-linecap="round" stroke-linejoin="round" d="M -392.042 933.355 Q -391.878 933.355 -392.601 933.355 Q -392.601 933.374 -392.601 933.394 Q -391.896 933.394 -391.998 933.394 Q -391.083 933.394 -391.263 933.394 Q -390.703 933.398 -389.848 933.294 Q -388.993 933.191 -388.938 933.148 "></path>
    <path id="STROKE_9ad657c2-6fd8-4b36-85d1-f5be39732887" opacity="1.000" fill="none" stroke="#000000" stroke-width="0.454" stroke-opacity="1.000" stroke-linecap="round" stroke-linejoin="round" d="M -385.581 922.340 Q -385.376 922.626 -386.277 923.999 Q -387.178 925.372 -387.223 925.417 "></path>
    <path id="STROKE_20f65e30-dc8b-4bc2-a952-5083917ddcad" opacity="1.000" fill="none" stroke="#000000" stroke-width="0.545" stroke-opacity="1.000" stroke-linecap="round" stroke-linejoin="round" d="M -385.768 924.242 Q -385.781 924.242 -385.885 924.242 Q -385.776 924.412 -383.521 924.193 Q -381.266 923.974 -381.208 923.940 "></path>
    <path id="STROKE_f09a98e6-9495-46b6-a278-46e8a538d42c" opacity="1.000" fill="none" stroke="#000000" stroke-width="0.514" stroke-opacity="1.000" stroke-linecap="round" stroke-linejoin="round" d="M -382.689 921.260 Q -382.676 921.260 -382.663 921.260 Q -382.670 921.726 -382.686 921.681 Q -382.868 922.130 -383.506 923.176 Q -384.145 924.222 -384.216 924.292 "></path>
    <path id="STROKE_a84bc22d-1a2c-468f-9fcd-7b3cb202a036" opacity="1.000" fill="none" stroke="#000000" stroke-width="0.484" stroke-opacity="1.000" stroke-linecap="round" stroke-linejoin="round" d="M -385.794 924.712 Q -385.794 924.701 -385.910 924.622 Q -385.886 924.653 -385.675 928.626 Q -385.464 932.599 -385.464 932.633 "></path>
    <path id="STROKE_87d1b239-9d6f-4ae8-a527-7f33b7620013" opacity="1.000" fill="none" stroke="#000000" stroke-width="0.602" stroke-opacity="1.000" stroke-linecap="round" stroke-linejoin="round" d="M -385.063 927.419 Q -385.347 927.358 -385.312 927.369 Q -385.370 927.369 -385.464 927.369 Q -385.486 927.438 -384.243 927.309 Q -383.000 927.180 -382.330 927.076 Q -381.661 926.972 -381.281 927.026 Q -380.901 927.081 -380.802 927.237 Q -380.703 927.394 -380.645 927.487 "></path>
    <path id="STROKE_aa72c14c-8453-4175-ad73-0fda1d085c23" opacity="1.000" fill="none" stroke="#000000" stroke-width="0.687" stroke-opacity="1.000" stroke-linecap="round" stroke-linejoin="round" d="M -384.759 929.416 Q -385.148 929.380 -384.681 929.428 Q -384.214 929.475 -383.019 929.413 Q -381.823 929.350 -381.268 929.260 Q -380.713 929.169 -380.645 929.158 "></path>
    <path id="STROKE_4ca0225b-3538-4151-94eb-4c8da94437de" opacity="1.000" fill="none" stroke="#000000" stroke-width="0.594" stroke-opacity="1.000" stroke-linecap="round" stroke-linejoin="round" d="M -385.063 932.258 Q -385.109 932.258 -385.225 932.565 Q -384.683 932.565 -384.782 932.565 Q -384.403 932.231 -382.471 932.139 Q -380.538 932.048 -380.361 932.023 "></path>
    <path id="STROKE_1cb3f662-1364-400f-8e44-646392f713aa" opacity="1.000" fill="none" stroke="#000000" stroke-width="0.454" stroke-opacity="1.000" stroke-linecap="round" stroke-linejoin="round" d="M -383.394 924.880 Q -383.115 925.245 -383.018 928.235 Q -382.922 931.225 -382.877 931.273 "></path>
    <path id="STROKE_ab9edb51-41a1-49fb-b6b8-c44c14138551" opacity="1.000" fill="none" stroke="#000000" stroke-width="0.587" stroke-opacity="1.000" stroke-linecap="round" stroke-linejoin="round" d="M -391.318 940.250 Q -391.323 940.149 -391.337 940.133 Q -391.560 940.168 -389.345 940.003 Q -387.130 939.837 -387.036 939.848 "></path>
    <path id="STROKE_ca4d4b4c-d825-4a1b-80a7-9a89385d98ac" opacity="1.000" fill="none" stroke="#000000" stroke-width="0.558" stroke-opacity="1.000" stroke-linecap="round" stroke-linejoin="round" d="M -388.989 938.018 Q -388.989 938.005 -388.989 937.991 Q -389.002 937.991 -389.048 937.991 Q -388.819 938.534 -389.239 942.306 Q -389.659 946.079 -389.649 946.101 "></path>
    <path id="STROKE_c171f606-1f43-486e-9d1e-93ab0d5a9367" opacity="1.000" fill="none" stroke="#000000" stroke-width="0.608" stroke-opacity="1.000" stroke-linecap="round" stroke-linejoin="round" d="M -386.732 942.762 Q -386.660 942.840 -386.965 942.554 Q -386.525 942.536 -386.738 942.539 Q -386.951 942.542 -386.185 942.675 Q -385.419 942.808 -384.877 942.771 Q -384.336 942.733 -384.048 942.866 Q -383.760 943.000 -383.679 943.092 "></path>
    <path id="STROKE_504c52c0-3027-4fee-936b-4e295e17d8f9" opacity="1.000" fill="none" stroke="#000000" stroke-width="0.556" stroke-opacity="1.000" stroke-linecap="round" stroke-linejoin="round" d="M -386.286 945.351 Q -386.298 945.351 -386.376 945.351 Q -386.748 945.337 -385.283 945.361 Q -383.818 945.385 -383.724 945.374 "></path>
    <path id="STROKE_cfb0483e-6fe4-4c4b-9cad-93ba010411bf" opacity="1.000" fill="none" stroke="#000000" stroke-width="0.462" stroke-opacity="1.000" stroke-linecap="round" stroke-linejoin="round" d="M -383.627 939.825 Q -383.679 940.319 -383.283 940.372 Q -382.886 940.424 -382.806 940.435 "></path>
    <path id="STROKE_cebf0e37-5d59-466b-85b9-de9e59ed5a3f" opacity="1.000" fill="none" stroke="#000000" stroke-width="0.470" stroke-opacity="1.000" stroke-linecap="round" stroke-linejoin="round" d="M -381.842 938.556 Q -381.847 938.617 -381.720 938.845 Q -381.592 939.072 -381.376 939.156 Q -381.159 939.240 -381.066 939.288 "></path>
    <path id="STROKE_27b541fd-c8a1-4028-a6e9-10dfe14f50a9" opacity="1.000" fill="none" stroke="#000000" stroke-width="0.480" stroke-opacity="1.000" stroke-linecap="round" stroke-linejoin="round" d="M -390.962 953.976 Q -390.975 953.976 -391.150 953.976 Q -391.150 953.965 -391.150 953.940 Q -390.964 953.827 -389.839 953.416 Q -388.714 953.006 -387.987 953.014 Q -387.259 953.023 -387.152 953.059 "></path>
    <path id="STROKE_2a2feae9-8df3-4be8-8dbc-e3a2e40b2f96" opacity="1.000" fill="none" stroke="#000000" stroke-width="0.467" stroke-opacity="1.000" stroke-linecap="round" stroke-linejoin="round" d="M -389.222 951.835 Q -389.000 951.766 -388.639 952.988 Q -388.278 954.210 -388.314 955.408 Q -388.350 956.606 -388.582 957.455 Q -388.813 958.305 -389.542 958.652 Q -389.397 958.755 -389.726 958.424 Q -390.055 958.094 -390.344 957.685 Q -390.632 957.277 -390.597 956.957 Q -390.563 956.637 -390.368 956.325 Q -390.173 956.012 -389.333 955.757 Q -388.494 955.502 -387.428 955.591 Q -386.363 955.680 -385.776 955.863 Q -385.190 956.047 -384.844 956.281 Q -384.499 956.515 -384.305 957.247 Q -384.111 957.979 -384.341 958.693 Q -384.572 959.407 -385.005 959.927 Q -385.438 960.446 -385.821 960.437 Q -386.205 960.428 -386.286 960.369 "></path>
    <path id="STROKE_9296fd06-5f90-471f-a6f3-c59db65a7561" opacity="1.000" fill="none" stroke="#000000" stroke-width="0.574" stroke-opacity="1.000" stroke-linecap="round" stroke-linejoin="round" d="M -384.966 953.362 Q -384.979 953.362 -385.089 953.362 Q -384.858 953.689 -384.343 954.102 Q -383.828 954.516 -383.769 954.586 "></path>
    <path id="STROKE_f3522090-e100-46ab-b7ba-b9a4a83b9e30" opacity="1.000" fill="none" stroke="#000000" stroke-width="0.459" stroke-opacity="1.000" stroke-linecap="round" stroke-linejoin="round" d="M -390.257 964.409 Q -390.241 964.421 -390.269 964.377 Q -390.297 964.334 -390.271 964.365 Q -390.245 964.396 -390.101 964.597 Q -389.956 964.798 -389.690 965.108 Q -389.423 965.417 -389.305 965.533 Q -389.187 965.649 -388.642 965.964 Q -388.097 966.279 -387.980 966.338 "></path>
    <path id="STROKE_33c0b464-feed-4d99-a308-05f34d2a405d" opacity="1.000" fill="none" stroke="#000000" stroke-width="0.458" stroke-opacity="1.000" stroke-linecap="round" stroke-linejoin="round" d="M -383.679 964.811 Q -383.744 965.095 -383.779 965.082 Q -383.788 965.547 -384.720 965.972 Q -385.652 966.397 -385.723 966.433 "></path>
    <path id="STROKE_4b303293-2c47-4b56-a3d8-f3117fab6955" opacity="1.000" fill="none" stroke="#000000" stroke-width="0.553" stroke-opacity="1.000" stroke-linecap="round" stroke-linejoin="round" d="M -391.318 967.020 Q -391.341 967.020 -391.460 967.043 Q -391.460 967.054 -391.460 967.101 Q -391.686 967.312 -389.217 967.043 Q -386.748 966.773 -384.565 966.856 Q -382.382 966.939 -382.262 966.997 "></path>
    <path id="STROKE_11263bf3-8fa3-40c9-8e01-5f55c437180d" opacity="1.000" fill="none" stroke="#000000" stroke-width="0.464" stroke-opacity="1.000" stroke-linecap="round" stroke-linejoin="round" d="M -390.496 969.324 Q -390.462 969.175 -390.471 969.157 L -390.458 969.157 Q -390.338 968.841 -390.238 974.868 Q -390.283 975.120 -390.194 974.630 Q -390.105 974.141 -390.070 974.023 "></path>
    <path id="STROKE_b892b128-2cb2-44f3-b6a2-8cd08d6cacf2" opacity="1.000" fill="none" stroke="#000000" stroke-width="0.474" stroke-opacity="1.000" stroke-linecap="round" stroke-linejoin="round" d="M -389.979 969.442 Q -389.979 969.026 -389.979 969.168 Q -390.037 969.044 -389.756 969.045 Q -389.475 969.046 -388.859 969.009 Q -388.242 968.972 -387.893 969.060 Q -387.544 969.149 -387.356 969.237 Q -387.168 969.325 -387.086 969.393 Q -387.003 969.460 -387.042 969.451 Q -387.080 969.442 -386.986 969.632 Q -386.893 969.821 -387.088 974.448 Q -387.088 974.412 -387.063 974.335 Q -387.039 974.258 -386.991 974.141 "></path>
    <path id="STROKE_858d257f-ee5b-478e-8f9a-f309bacd92dd" opacity="1.000" fill="none" stroke="#000000" stroke-width="0.515" stroke-opacity="1.000" stroke-linecap="round" stroke-linejoin="round" d="M -389.908 970.874 Q -390.038 970.706 -390.034 970.723 Q -390.057 970.698 -390.095 970.628 Q -390.400 970.333 -387.004 970.815 Q -386.978 970.885 -386.960 970.986 Q -386.942 971.086 -386.919 971.181 "></path>
    <path id="STROKE_81e69f78-b4d8-4f9a-a00a-4e2f17854427" opacity="1.000" fill="none" stroke="#000000" stroke-width="0.534" stroke-opacity="1.000" stroke-linecap="round" stroke-linejoin="round" d="M -389.953 972.306 Q -389.953 972.318 -389.953 972.424 Q -389.599 972.452 -388.775 972.370 Q -387.951 972.289 -387.430 972.528 Q -386.910 972.767 -386.829 972.826 "></path>
    <path id="STROKE_0c02b494-30bf-4f97-bffa-1019b4ba9053" opacity="1.000" fill="none" stroke="#000000" stroke-width="0.459" stroke-opacity="1.000" stroke-linecap="round" stroke-linejoin="round" d="M -385.037 969.275 Q -385.050 969.275 -385.154 969.275 Q -385.179 969.341 -385.131 969.771 Q -385.083 970.200 -384.830 971.461 Q -384.782 971.439 -384.733 971.416 "></path>
    <path id="STROKE_6cdbc0c3-b31b-4345-8cfa-51f9e1e6bcf7" opacity="1.000" fill="none" stroke="#000000" stroke-width="0.476" stroke-opacity="1.000" stroke-linecap="round" stroke-linejoin="round" d="M -382.967 969.979 Q -382.967 969.957 -382.967 969.817 Q -382.958 969.817 -382.841 969.817 Q -382.732 969.397 -382.734 976.490 Q -382.857 976.458 -382.749 976.534 Q -382.640 976.610 -383.258 976.509 Q -383.876 976.409 -383.983 976.305 "></path>
    <path id="STROKE_19573975-41aa-492b-8096-0086245d734c" opacity="1.000" fill="none" stroke="#000000" stroke-width="0.466" stroke-opacity="1.000" stroke-linecap="round" stroke-linejoin="round" d="M -349.879 978.912 Q -349.772 978.508 -349.853 978.655 Q -349.934 978.803 -349.789 978.540 Q -349.644 978.277 -349.437 977.985 Q -349.230 977.694 -349.178 977.730 Q -349.125 977.765 -348.885 977.469 Q -348.645 977.172 -347.541 976.667 Q -346.437 976.162 -344.945 976.115 Q -343.453 976.068 -341.687 976.828 Q -339.921 977.587 -339.022 978.018 Q -338.124 978.448 -337.431 979.502 Q -336.739 980.555 -336.698 981.829 Q -336.658 983.104 -336.658 983.417 "></path>
    <path id="STROKE_f6c43620-f8af-4193-8dbb-ff9df451670e" opacity="1.000" fill="none" stroke="#000000" stroke-width="0.461" stroke-opacity="1.000" stroke-linecap="round" stroke-linejoin="round" d="M -350.242 978.694 Q -350.227 978.694 -350.131 978.511 Q -350.052 978.214 -350.912 979.047 Q -351.772 979.879 -352.240 981.455 Q -352.708 983.030 -352.732 984.338 Q -352.757 985.646 -352.316 986.279 Q -351.874 986.912 -351.673 987.112 "></path>
    <path id="STROKE_30b59faf-1ee2-4f9a-abf3-e76cd3fc8ba7" opacity="1.000" fill="none" stroke="#000000" stroke-width="0.511" stroke-opacity="1.000" stroke-linecap="round" stroke-linejoin="round" d="M -347.420 990.589 Q -347.002 991.106 -347.048 991.026 Q -347.094 990.947 -347.043 991.004 Q -346.992 991.061 -346.501 991.377 Q -346.010 991.693 -345.509 991.865 Q -345.007 992.037 -344.581 992.142 Q -344.155 992.247 -343.447 992.361 Q -342.739 992.476 -342.593 992.532 "></path>
    <path id="STROKE_9a6213fc-44b7-447c-8563-4adc2add12cf" opacity="1.000" fill="none" stroke="#000000" stroke-width="0.482" stroke-opacity="1.000" stroke-linecap="round" stroke-linejoin="round" d="M -341.607 992.788 Q -341.620 992.788 -341.680 992.788 Q -341.330 992.873 -340.055 991.280 Q -338.781 989.686 -338.624 989.469 "></path>
    <path id="STROKE_4dceeb21-5901-4bd9-9bc9-f9c78b50eeae" opacity="1.000" fill="none" stroke="#000000" stroke-width="0.464" stroke-opacity="1.000" stroke-linecap="round" stroke-linejoin="round" d="M -342.067 986.048 Q -342.081 986.048 -342.167 986.099 Q -342.190 986.288 -342.165 985.890 Q -342.141 985.491 -342.106 985.101 Q -342.071 984.710 -341.643 984.463 Q -341.216 984.215 -340.894 984.118 Q -340.572 984.021 -340.305 984.081 Q -340.039 984.141 -339.841 984.350 Q -339.643 984.559 -339.528 984.711 Q -339.414 984.864 -339.223 985.142 Q -339.032 985.420 -338.932 985.650 Q -338.831 985.880 -338.844 985.903 "></path>
    <path id="STROKE_0ba86b37-b4c4-4532-8aff-643447e498ac" opacity="1.000" fill="none" stroke="#000000" stroke-width="0.461" stroke-opacity="1.000" stroke-linecap="round" stroke-linejoin="round" d="M -347.359 988.206 Q -347.588 987.621 -347.512 987.831 Q -347.581 987.505 -347.582 987.458 Q -347.584 987.410 -347.573 987.444 Q -347.573 986.973 -347.572 986.998 Q -347.572 987.023 -347.569 986.941 Q -347.566 986.860 -347.561 986.775 Q -347.556 986.690 -347.502 986.578 Q -347.447 986.467 -347.487 986.535 Q -347.527 986.604 -347.419 986.264 Q -347.312 985.924 -346.783 985.776 Q -346.254 985.627 -345.809 985.672 Q -345.365 985.716 -345.093 985.821 Q -344.821 985.926 -344.874 985.895 Q -344.926 985.865 -344.910 985.882 Q -344.893 985.898 -344.896 985.898 Q -344.899 985.898 -344.865 985.916 Q -344.831 985.933 -344.662 986.136 Q -344.493 986.339 -344.470 986.365 "></path>
    <path id="STROKE_5621c579-97f9-40ae-b55b-7dbab018dfe2" opacity="1.000" fill="none" stroke="#000000" stroke-width="0.459" stroke-opacity="1.000" stroke-linecap="round" stroke-linejoin="round" d="M -343.455 988.961 Q -343.369 989.234 -343.719 988.280 Q -343.417 988.043 -343.442 988.073 Q -343.292 987.935 -342.555 987.727 Q -341.819 987.519 -341.218 987.702 Q -340.616 987.886 -340.297 988.156 Q -339.978 988.427 -339.853 988.731 Q -339.728 989.035 -339.866 989.305 Q -340.005 989.575 -340.145 989.721 Q -340.285 989.868 -340.368 989.956 Q -340.451 990.044 -340.628 990.187 Q -340.805 990.329 -341.156 990.542 Q -341.508 990.756 -341.690 990.800 Q -341.872 990.844 -342.206 990.869 Q -342.541 990.893 -342.739 990.760 Q -342.938 990.626 -343.021 990.481 Q -343.104 990.337 -343.141 990.269 Q -343.178 990.202 -343.174 990.208 Q -343.170 990.214 -343.313 989.891 Q -343.456 989.568 -343.539 989.258 Q -343.622 988.947 -343.669 988.863 "></path>
    <path id="STROKE_8af152a7-ff3c-4213-bb56-1680e5303386" opacity="1.000" fill="none" stroke="#000000" stroke-width="0.460" stroke-opacity="1.000" stroke-linecap="round" stroke-linejoin="round" d="M -350.362 982.338 Q -350.583 982.323 -350.635 983.219 Q -350.687 984.115 -350.559 984.860 Q -350.431 985.605 -349.784 985.955 Q -349.137 986.304 -348.980 986.388 "></path>
    <path id="STROKE_9a40c929-073d-4200-bca4-83134927d22a" opacity="1.000" fill="none" stroke="#000000" stroke-width="0.463" stroke-opacity="1.000" stroke-linecap="round" stroke-linejoin="round" d="M -341.173 979.844 Q -341.173 980.029 -341.173 979.480 Q -340.937 979.602 -340.751 979.932 Q -340.565 980.262 -340.550 980.300 Q -340.536 980.339 -340.366 980.721 Q -340.195 981.104 -339.883 982.430 Q -339.571 983.757 -339.525 983.843 "></path>
    <path id="STROKE_1b519d5a-f009-4684-85e5-7c15863a2311" opacity="1.000" fill="none" stroke="#000000" stroke-width="0.460" stroke-opacity="1.000" stroke-linecap="round" stroke-linejoin="round" d="M -347.599 981.177 Q -347.634 981.204 -347.619 982.421 Q -347.605 983.639 -346.976 984.395 Q -346.348 985.151 -346.238 985.223 "></path>
    <path id="STROKE_c79b3e66-fa9a-44df-83bb-01c79d638998" opacity="1.000" fill="none" stroke="#000000" stroke-width="0.456" stroke-opacity="1.000" stroke-linecap="round" stroke-linejoin="round" d="M -344.977 981.396 Q -345.299 981.875 -344.600 982.713 Q -343.902 983.552 -343.769 983.647 "></path>
    <path id="STROKE_b0a6723e-be91-4f82-88fa-0946ffcee558" opacity="1.000" fill="none" stroke="#000000" stroke-width="0.464" stroke-opacity="1.000" stroke-linecap="round" stroke-linejoin="round" d="M -352.648 982.948 Q -352.871 983.016 -352.896 985.427 Q -352.921 987.837 -352.671 989.583 Q -352.421 991.330 -352.047 992.317 Q -351.672 993.305 -351.172 993.959 Q -350.673 994.614 -349.262 994.762 Q -347.852 994.910 -347.619 994.993 "></path>
    <path id="STROKE_979ebd8d-fcf6-44c9-a390-1d186a1e21e5" opacity="1.000" fill="none" stroke="#000000" stroke-width="0.463" stroke-opacity="1.000" stroke-linecap="round" stroke-linejoin="round" d="M -337.553 980.199 Q -337.749 980.252 -336.919 981.505 Q -336.089 982.758 -335.355 983.993 Q -334.622 985.228 -334.440 986.791 Q -334.257 988.353 -334.256 989.538 Q -334.255 990.722 -334.959 991.459 Q -335.663 992.196 -335.795 992.212 "></path>
    <path id="STROKE_c19147ff-7518-4418-925f-1641124f7c70" opacity="1.000" fill="none" stroke="#000000" stroke-width="0.463" stroke-opacity="1.000" stroke-linecap="round" stroke-linejoin="round" d="M -350.134 984.634 Q -350.134 985.070 -350.134 985.047 Q -350.095 985.218 -350.183 986.866 Q -350.271 988.513 -350.007 989.951 Q -349.742 991.388 -349.048 992.632 Q -348.355 993.875 -346.994 994.318 Q -345.633 994.760 -345.369 994.859 "></path>
    <path id="STROKE_b9d0223a-d2c4-4a92-a0a7-6e76d28b0379" opacity="1.000" fill="none" stroke="#000000" stroke-width="0.457" stroke-opacity="1.000" stroke-linecap="round" stroke-linejoin="round" d="M -352.056 991.417 Q -351.593 991.918 -349.579 993.382 Q -347.565 994.846 -347.319 995.031 "></path>
    <path id="STROKE_cfd04f66-2ed1-4ae5-95db-59a4a59d9dc0" opacity="1.000" fill="none" stroke="#000000" stroke-width="0.463" stroke-opacity="1.000" stroke-linecap="round" stroke-linejoin="round" d="M -338.710 983.476 Q -338.432 983.818 -338.419 983.857 Q -338.405 983.895 -338.430 983.883 Q -338.455 983.871 -338.438 983.824 Q -338.420 983.776 -337.723 985.281 Q -337.027 986.786 -336.841 988.305 Q -336.655 989.823 -336.605 991.079 Q -336.556 992.335 -337.128 992.746 Q -337.699 993.157 -337.881 993.173 "></path>
    <path id="STROKE_1c9be4e2-8ec8-4ea1-a00e-338a06fe5ed7" opacity="1.000" fill="none" stroke="#000000" stroke-width="0.463" stroke-opacity="1.000" stroke-linecap="round" stroke-linejoin="round" d="M -335.631 986.358 Q -335.686 986.292 -335.373 987.602 Q -335.060 988.912 -335.015 990.041 Q -334.970 991.170 -335.368 991.868 Q -335.766 992.565 -336.402 992.664 Q -337.039 992.763 -337.253 992.778 "></path>
    <circle id="STROKE_3a5c0aee-538d-416e-9a84-72f9676df6ec" opacity="1.000" fill="#000000" stroke="#000000" stroke-width="0.1" stroke-opacity="1.000" fill-opacity="1.000" cx="-344.176" cy="992.747" r="0.259"></circle>
    <path id="STROKE_6d5b96d6-fe16-41d7-96f7-458eb996d42f" opacity="1.000" fill="none" stroke="#000000" stroke-width="0.462" stroke-opacity="1.000" stroke-linecap="round" stroke-linejoin="round" d="M -343.210 992.416 Q -343.167 992.397 -343.186 992.397 Q -343.205 992.397 -343.223 992.573 Q -343.240 992.750 -343.074 993.046 Q -342.907 993.341 -342.812 993.525 Q -342.718 993.709 -342.738 993.844 Q -342.757 993.980 -342.755 993.979 Q -342.753 993.978 -342.743 994.081 Q -342.732 994.185 -342.718 994.267 "></path>
    <path id="STROKE_68c184bb-dd0a-4cf3-9948-36af64ea5a63" opacity="1.000" fill="none" stroke="#000000" stroke-width="0.462" stroke-opacity="1.000" stroke-linecap="round" stroke-linejoin="round" d="M -339.867 991.786 Q -339.867 991.770 -339.867 991.487 Q -339.867 992.235 -339.867 992.018 Q -339.749 992.561 -339.721 992.546 Q -339.527 993.092 -339.585 992.909 Q -339.553 992.960 -339.521 992.992 Q -339.489 993.023 -339.439 993.039 "></path>
    <path id="STROKE_da1dbd3e-8e66-40aa-ac89-2bfac3fbe3a7" opacity="1.000" fill="none" stroke="#000000" stroke-width="0.533" stroke-opacity="1.000" stroke-linecap="round" stroke-linejoin="round" d="M -342.154 993.771 Q -342.101 993.771 -342.482 993.771 Q -342.096 993.928 -342.122 993.867 Q -341.600 993.867 -341.644 993.867 Q -340.902 993.822 -341.061 993.819 Q -340.767 993.662 -339.503 993.536 Q -339.472 993.594 -339.513 993.375 Q -339.553 993.157 -339.603 993.039 "></path>
    <path id="STROKE_ad49df92-dd76-4590-9cb5-b7e218eecc56" opacity="1.000" fill="none" stroke="#000000" stroke-width="0.462" stroke-opacity="1.000" stroke-linecap="round" stroke-linejoin="round" d="M -343.247 993.205 Q -343.265 993.205 -343.374 993.224 Q -343.432 993.580 -343.411 993.520 Q -343.399 994.279 -343.393 994.019 Q -343.606 993.826 -343.294 994.121 Q -342.983 994.417 -342.919 994.433 "></path>
    <path id="STROKE_6adc5701-cf67-464d-b403-fae9b22d935e" opacity="1.000" fill="none" stroke="#000000" stroke-width="0.462" stroke-opacity="1.000" stroke-linecap="round" stroke-linejoin="round" d="M -339.211 992.581 Q -339.225 992.581 -339.403 992.581 Q -339.403 993.272 -339.403 993.058 Q -339.322 993.551 -339.339 993.421 Q -339.321 993.488 -339.302 993.637 Q -339.289 993.637 -339.275 993.637 "></path>
    <path id="STROKE_615d5dca-b66f-4597-b664-eaa80dfc63e5" opacity="1.000" fill="none" stroke="#000000" stroke-width="0.463" stroke-opacity="1.000" stroke-linecap="round" stroke-linejoin="round" d="M -343.247 994.827 Q -343.297 994.827 -343.547 994.827 Q -343.659 995.425 -342.300 995.160 Q -340.942 994.894 -340.760 994.796 "></path>
    <path id="STROKE_3775156b-f2b4-4ab6-9c43-f30a7f43744a" opacity="1.000" fill="none" stroke="#000000" stroke-width="0.483" stroke-opacity="1.000" stroke-linecap="round" stroke-linejoin="round" d="M -337.881 991.251 Q -337.900 991.334 -338.132 991.757 Q -338.364 992.180 -338.483 992.314 "></path>
    <circle id="STROKE_e80fb7ff-eddf-41eb-b76d-7b9846394683" opacity="1.000" fill="#000000" stroke="#000000" stroke-width="0.1" stroke-opacity="1.000" fill-opacity="1.000" cx="-338.810" cy="993.338" r="0.258"></circle>
    <circle id="STROKE_90134a15-59ec-4978-8780-b9f88905fbc1" opacity="1.000" fill="#000000" stroke="#000000" stroke-width="0.1" stroke-opacity="1.000" fill-opacity="1.000" cx="-338.118" cy="993.440" r="0.260"></circle>
    <path id="STROKE_a5f59f68-6dfa-4089-b7df-7afad9aec707" opacity="1.000" fill="none" stroke="#000000" stroke-width="0.470" stroke-opacity="1.000" stroke-linecap="round" stroke-linejoin="round" d="M -333.281 987.943 Q -333.281 987.148 -333.281 987.364 Q -333.622 987.621 -332.293 983.534 Q -330.965 979.447 -328.744 973.314 Q -328.744 973.330 -328.754 973.387 Q -328.763 973.445 -328.781 973.543 "></path>
    <path id="STROKE_81bf911c-86b2-45b4-9804-c37b76213013" opacity="1.000" fill="none" stroke="#000000" stroke-width="0.461" stroke-opacity="1.000" stroke-linecap="round" stroke-linejoin="round" d="M -328.608 972.487 Q -328.608 972.503 -328.608 972.952 Q -328.883 973.140 -328.559 971.329 Q -328.235 969.519 -327.817 968.396 Q -327.398 967.272 -327.052 966.841 Q -326.706 966.409 -326.410 966.457 Q -326.114 966.505 -325.853 966.779 Q -325.592 967.053 -325.635 967.043 Q -325.677 967.034 -325.443 967.636 Q -325.209 968.238 -325.282 969.693 Q -325.354 971.149 -326.640 973.709 Q -326.759 973.677 -326.859 973.645 "></path>
    <path id="STROKE_cdaaafe8-f5fb-4409-835e-33db51c7ccd0" opacity="1.000" fill="none" stroke="#000000" stroke-width="0.464" stroke-opacity="1.000" stroke-linecap="round" stroke-linejoin="round" d="M -326.522 972.551 Q -326.274 972.431 -326.710 974.685 Q -327.146 976.938 -327.630 978.648 Q -328.114 980.357 -328.542 981.743 Q -328.969 983.130 -330.070 987.087 Q -331.170 991.045 -331.541 995.709 Q -331.391 995.709 -331.259 995.693 "></path>
    <path id="STROKE_e8a6c8aa-9c7e-4ddf-bf35-f91f35f06cc4" opacity="1.000" fill="none" stroke="#000000" stroke-width="0.483" stroke-opacity="1.000" stroke-linecap="round" stroke-linejoin="round" d="M -328.344 972.455 Q -328.403 973.089 -328.380 973.050 Q -328.125 973.713 -328.118 973.630 Q -328.111 973.547 -328.097 973.560 Q -328.083 973.574 -328.169 973.625 Q -328.256 973.676 -326.312 973.712 Q -326.276 973.928 -326.258 974.078 "></path>
    <path id="STROKE_0e14ebbf-d7de-4315-a41a-6c229c2e9720" opacity="1.000" fill="none" stroke="#000000" stroke-width="0.466" stroke-opacity="1.000" stroke-linecap="round" stroke-linejoin="round" d="M -348.375 993.536 Q -348.405 993.552 -348.305 993.703 Q -348.204 993.854 -347.403 994.320 Q -346.603 994.786 -346.000 994.982 Q -345.397 995.177 -345.296 995.260 "></path>
    <path id="STROKE_b6896e6e-24df-4731-bdf1-620d1941c732" opacity="1.000" fill="none" stroke="#000000" stroke-width="0.478" stroke-opacity="1.000" stroke-linecap="round" stroke-linejoin="round" d="M -343.475 994.630 Q -343.621 994.583 -343.928 994.781 Q -344.236 994.978 -344.636 995.251 Q -345.037 995.524 -345.069 995.591 "></path>
    <path id="STROKE_4f1887ba-00a1-400d-8322-27841d69034c" opacity="1.000" fill="none" stroke="#000000" stroke-width="0.471" stroke-opacity="1.000" stroke-linecap="round" stroke-linejoin="round" d="M -352.520 991.881 Q -352.249 992.099 -353.042 991.711 Q -353.836 991.324 -355.220 990.178 Q -356.605 989.032 -360.527 985.494 Q -364.449 981.955 -364.763 981.656 "></path>
    <path id="STROKE_5e54145d-cec7-4b39-9271-1d2a88d47c0f" opacity="1.000" fill="none" stroke="#000000" stroke-width="0.465" stroke-opacity="1.000" stroke-linecap="round" stroke-linejoin="round" d="M -364.663 981.357 Q -364.837 981.234 -365.045 981.115 Q -365.252 980.997 -365.253 980.978 Q -365.255 980.959 -365.267 980.951 Q -365.280 980.943 -365.339 980.927 Q -365.398 980.911 -365.441 980.761 Q -365.484 980.610 -366.775 978.821 Q -368.065 977.033 -368.833 976.081 Q -369.601 975.129 -369.965 974.766 Q -370.328 974.403 -371.058 974.024 L -371.058 974.008 Q -371.161 973.766 -371.371 974.527 Q -371.581 975.288 -371.177 976.288 Q -370.773 977.288 -370.248 978.217 Q -369.722 979.146 -369.239 980.231 Q -368.755 981.317 -368.237 981.858 Q -367.718 982.399 -367.245 982.571 Q -366.772 982.743 -366.424 982.902 Q -366.075 983.062 -365.893 983.177 "></path>
    <path id="STROKE_e5d52c50-6fc1-447a-8a76-a78dedad859d" opacity="1.000" fill="none" stroke="#000000" stroke-width="0.484" stroke-opacity="1.000" stroke-linecap="round" stroke-linejoin="round" d="M -366.986 982.515 Q -367.198 982.359 -367.842 982.350 Q -368.250 982.182 -365.953 983.943 Q -363.657 985.705 -361.169 988.413 Q -358.681 991.121 -356.693 993.110 Q -354.706 995.099 -353.738 996.058 Q -352.770 997.017 -351.755 997.767 Q -350.740 998.518 -350.186 998.528 Q -349.633 998.537 -349.532 998.473 "></path>
    <path id="STROKE_3e5cae18-bb1b-4c09-b967-c01299a4e11e" opacity="1.000" fill="none" stroke="#000000" stroke-width="0.475" stroke-opacity="1.000" stroke-linecap="round" stroke-linejoin="round" d="M -364.836 984.666 Q -364.850 984.666 -365.365 984.405 Q -365.366 983.920 -365.346 983.953 Q -365.387 983.794 -364.761 983.131 Q -364.135 982.467 -363.971 982.350 "></path>
    <path id="STROKE_b31490b1-074a-4c3a-bd2d-80c91d4d236e" opacity="1.000" fill="none" stroke="#000000" stroke-width="0.466" stroke-opacity="1.000" stroke-linecap="round" stroke-linejoin="round" d="M -350.334 998.206 Q -350.230 998.218 -349.523 998.681 Q -348.816 999.143 -347.778 999.831 Q -346.741 1000.519 -345.258 1001.440 Q -343.775 1002.361 -343.575 1002.476 "></path>
    <path id="STROKE_9a5e1cd8-5045-4e16-8e36-416852dd84c0" opacity="1.000" fill="none" stroke="#000000" stroke-width="0.464" stroke-opacity="1.000" stroke-linecap="round" stroke-linejoin="round" d="M -331.158 992.778 Q -331.203 992.844 -331.186 992.803 Q -331.169 992.762 -331.161 992.706 Q -331.153 992.650 -331.176 992.680 Q -331.200 992.710 -331.216 992.758 Q -331.233 992.806 -331.380 993.245 Q -331.528 993.685 -331.542 993.940 Q -331.556 994.195 -331.595 994.347 Q -331.634 994.499 -331.688 994.725 Q -331.742 994.951 -331.817 997.597 Q -331.892 1000.242 -331.860 1000.357 "></path>
    <path id="STROKE_201614cc-4919-408d-b150-200a0fc35077" opacity="1.000" fill="none" stroke="#000000" stroke-width="0.464" stroke-opacity="1.000" stroke-linecap="round" stroke-linejoin="round" d="M -343.875 1002.673 Q -343.671 1002.940 -342.596 1006.230 Q -341.522 1009.521 -341.135 1011.946 Q -340.748 1014.370 -340.081 1016.229 Q -339.981 1016.245 -339.915 1016.188 Q -339.849 1016.130 -339.767 1016.016 "></path>
    <path id="STROKE_999d2457-c722-4c79-b034-40f33778d9e7" opacity="1.000" fill="none" stroke="#000000" stroke-width="0.459" stroke-opacity="1.000" stroke-linecap="round" stroke-linejoin="round" d="M -331.787 999.332 Q -331.923 999.313 -330.701 1003.187 Q -329.480 1007.060 -328.795 1009.643 Q -328.109 1012.227 -327.746 1013.618 Q -327.383 1015.010 -326.508 1016.773 Q -326.408 1016.725 -326.358 1016.678 "></path>
    <path id="STROKE_771ba6b5-6223-4cf5-bd36-e611d5bc3801" opacity="1.000" fill="none" stroke="#000000" stroke-width="0.462" stroke-opacity="1.000" stroke-linecap="round" stroke-linejoin="round" d="M -314.570 977.285 Q -314.556 977.285 -314.543 977.285 Q -314.609 977.333 -314.832 978.997 Q -315.054 980.661 -314.990 981.864 Q -314.925 983.066 -314.526 983.673 Q -314.127 984.280 -313.846 984.660 Q -313.566 985.041 -312.531 985.258 Q -311.497 985.476 -310.736 985.039 Q -309.974 984.602 -309.742 984.437 "></path>
    <path id="STROKE_5c92a8f2-8849-4ebc-8940-418a1127fe68" opacity="1.000" fill="none" stroke="#000000" stroke-width="0.515" stroke-opacity="1.000" stroke-linecap="round" stroke-linejoin="round" d="M -312.220 988.439 Q -312.220 988.423 -312.293 988.344 Q -312.331 988.251 -312.296 988.635 Q -312.260 989.019 -311.422 989.747 Q -310.585 990.475 -310.498 990.558 "></path>
    <path id="STROKE_4d24779d-de4c-4cc0-a4f0-742194ba2a67" opacity="1.000" fill="none" stroke="#000000" stroke-width="0.471" stroke-opacity="1.000" stroke-linecap="round" stroke-linejoin="round" d="M -312.220 991.455 Q -312.238 991.455 -312.256 991.455 Q -311.885 990.662 -313.313 995.063 Q -313.374 995.052 -312.632 994.886 Q -311.890 994.721 -311.431 994.869 Q -310.971 995.016 -310.870 995.032 Q -310.770 995.047 -310.162 995.121 Q -309.555 995.195 -309.230 995.425 Q -308.905 995.655 -308.794 995.913 Q -308.684 996.171 -308.697 996.266 Q -308.709 996.360 -308.675 996.603 Q -308.640 996.846 -308.638 997.780 Q -308.636 998.714 -310.412 998.881 Q -312.188 999.049 -312.220 999.097 "></path>
    <path id="STROKE_7ca6980f-bfaa-4de7-b082-7b5742869960" opacity="1.000" fill="none" stroke="#000000" stroke-width="0.478" stroke-opacity="1.000" stroke-linecap="round" stroke-linejoin="round" d="M -310.334 1002.673 Q -310.352 1002.673 -310.535 1002.641 Q -310.657 1002.882 -310.961 1004.787 Q -311.265 1006.692 -314.078 1011.078 Q -314.065 1010.664 -313.400 1009.769 Q -312.735 1008.875 -311.997 1008.347 Q -311.259 1007.820 -310.978 1007.865 Q -310.696 1007.910 -310.657 1007.926 Q -310.619 1007.941 -310.480 1008.087 Q -310.341 1008.233 -310.272 1008.331 Q -310.203 1008.430 -309.885 1009.210 Q -309.566 1009.990 -309.092 1010.426 Q -308.617 1010.861 -308.362 1010.791 Q -308.107 1010.720 -307.931 1010.697 Q -307.755 1010.674 -307.714 1010.626 Q -307.673 1010.577 -307.512 1010.434 Q -307.352 1010.290 -307.144 1010.078 Q -306.936 1009.865 -306.886 1009.815 Q -306.836 1009.765 -306.736 1009.666 Q -306.637 1009.567 -306.434 1009.381 Q -306.230 1009.195 -306.135 1009.093 "></path>
  </g>
</svg>