<?xml version="1.0" encoding="UTF-8" standalone="yes"?>
<svg xmlns="http://www.w3.org/2000/svg" xmlns:xlink="http://www.w3.org/1999/xlink" width="157.305939pt" height="123.141556pt" version="1.1" viewBox="-180.090790 1017.0 157.305939 123.141541">
  <!--
	Exported with Concepts: Smarter Sketching
	Version: 864 on iOS 13.5
	https://concepts.app/
	-->
  <title>Untitled_7-1</title>
  <desc>Drawing exported from Concepts: Smarter Sketching</desc>
  <g id="Pen" opacity="1.000">
    <path id="STROKE_0c374a31-a73f-46de-8ce4-ee326e0bcd56" opacity="1.000" fill="none" stroke="#000000" stroke-width="0.460" stroke-opacity="1.000" stroke-linecap="round" stroke-linejoin="round" d="M -151.687 1053.377 Q -151.032 1052.713 -150.687 1052.303 Q -150.343 1051.894 -149.458 1050.984 Q -148.573 1050.075 -146.710 1049.020 Q -144.848 1047.965 -142.692 1047.171 Q -140.536 1046.377 -138.236 1046.093 Q -135.935 1045.809 -133.733 1045.804 Q -131.532 1045.798 -129.121 1046.178 Q -126.710 1046.558 -123.082 1048.426 Q -119.453 1050.294 -119.179 1050.568 "></path>
    <path id="STROKE_0fc6de8a-16ae-4d38-9cbc-963dd7953378" opacity="1.000" fill="none" stroke="#000000" stroke-width="0.466" stroke-opacity="1.000" stroke-linecap="round" stroke-linejoin="round" d="M -119.091 1049.792 Q -119.091 1049.814 -119.091 1049.836 Q -118.985 1049.884 -116.468 1046.656 Q -113.951 1043.429 -111.253 1040.856 Q -108.555 1038.283 -107.000 1036.891 Q -105.445 1035.500 -104.043 1034.324 Q -102.641 1033.148 -100.107 1031.540 Q -97.573 1029.931 -95.659 1028.983 Q -93.745 1028.036 -90.420 1026.084 Q -87.095 1024.133 -86.733 1023.840 "></path>
    <path id="STROKE_72b12bd2-e50a-44cc-8525-259a48301a2b" opacity="1.000" fill="none" stroke="#000000" stroke-width="0.460" stroke-opacity="1.000" stroke-linecap="round" stroke-linejoin="round" d="M -86.496 1023.701 Q -86.861 1024.384 -86.752 1024.246 Q -86.483 1024.359 -87.630 1028.255 Q -88.777 1032.151 -90.279 1035.269 Q -91.781 1038.387 -93.230 1041.105 Q -94.679 1043.823 -97.044 1047.147 Q -99.409 1050.471 -100.812 1052.268 Q -102.215 1054.065 -104.267 1056.583 Q -106.320 1059.101 -108.925 1060.775 Q -109.150 1060.640 -109.288 1060.504 "></path>
    <path id="STROKE_4188f98f-4840-42c5-8f19-8c158a272a2b" opacity="1.000" fill="none" stroke="#000000" stroke-width="0.507" stroke-opacity="1.000" stroke-linecap="round" stroke-linejoin="round" d="M -151.013 1051.849 Q -151.216 1051.457 -153.040 1047.387 Q -154.864 1043.318 -157.366 1038.554 Q -159.868 1033.791 -164.676 1027.061 Q -169.484 1020.332 -169.621 1020.218 "></path>
    <path id="STROKE_bc0553d6-00fd-420b-9652-596d6a1ff453" opacity="1.000" fill="none" stroke="#000000" stroke-width="0.461" stroke-opacity="1.000" stroke-linecap="round" stroke-linejoin="round" d="M -173.015 1017.149 Q -173.015 1017.969 -173.015 1017.803 Q -173.222 1017.414 -172.431 1024.224 Q -171.640 1031.034 -170.661 1035.999 Q -169.682 1040.963 -169.329 1043.330 Q -168.976 1045.697 -168.995 1046.742 Q -169.015 1047.787 -167.590 1050.284 Q -166.165 1052.782 -164.890 1054.451 Q -163.614 1056.120 -161.312 1058.760 Q -159.011 1061.399 -156.417 1064.255 Q -156.330 1064.229 -156.267 1064.202 "></path>
    <path id="STROKE_77e79611-985d-4597-875f-d4667b39df0b" opacity="1.000" fill="none" stroke="#000000" stroke-width="0.461" stroke-opacity="1.000" stroke-linecap="round" stroke-linejoin="round" d="M -173.377 1017.236 Q -172.514 1016.889 -166.452 1024.320 Q -166.383 1024.184 -166.333 1024.049 "></path>
    <path id="STROKE_bded93c2-4161-48b7-ac20-eae3264c2581" opacity="1.000" fill="none" stroke="#000000" stroke-width="0.460" stroke-opacity="1.000" stroke-linecap="round" stroke-linejoin="round" d="M -169.243 1041.653 Q -169.197 1041.559 -169.221 1041.707 Q -169.246 1041.854 -169.473 1041.035 Q -169.701 1040.215 -169.647 1039.575 Q -169.594 1038.934 -169.598 1038.281 Q -169.603 1037.628 -168.728 1035.715 Q -167.854 1033.802 -166.550 1031.821 Q -165.247 1029.839 -164.376 1028.929 Q -163.505 1028.018 -163.348 1027.861 "></path>
    <path id="STROKE_a672f959-09e5-4a22-9657-f1b3c505539d" opacity="1.000" fill="none" stroke="#000000" stroke-width="0.468" stroke-opacity="1.000" stroke-linecap="round" stroke-linejoin="round" d="M -101.121 1032.008 Q -100.956 1031.573 -99.578 1032.661 Q -98.200 1033.748 -97.344 1034.797 Q -96.488 1035.846 -96.144 1036.212 Q -95.800 1036.578 -95.803 1037.024 Q -95.806 1037.469 -95.840 1044.760 Q -95.953 1044.802 -96.066 1044.843 "></path>
    <path id="STROKE_afe8d97e-a8be-43d2-8c6b-5bd4c2329e97" opacity="1.000" fill="none" stroke="#000000" stroke-width="0.467" stroke-opacity="1.000" stroke-linecap="round" stroke-linejoin="round" d="M -156.505 1062.301 Q -156.551 1063.022 -156.554 1062.832 Q -156.428 1061.867 -156.712 1064.538 Q -156.996 1067.209 -157.033 1068.527 Q -157.069 1069.844 -157.011 1070.502 Q -156.953 1071.160 -156.925 1071.372 Q -156.896 1071.584 -156.875 1071.930 Q -156.854 1072.276 -156.827 1072.569 Q -156.801 1072.863 -156.824 1072.782 Q -156.846 1072.701 -156.660 1073.302 Q -156.473 1073.903 -156.389 1073.879 Q -156.305 1073.855 -156.142 1074.565 Q -155.978 1075.276 -155.916 1075.822 Q -155.853 1076.369 -155.715 1076.620 Q -155.576 1076.871 -155.588 1076.933 Q -155.601 1076.994 -155.583 1076.999 Q -155.566 1077.004 -155.544 1077.305 Q -155.521 1077.606 -155.530 1077.618 Q -155.538 1077.630 -155.535 1077.601 Q -155.531 1077.572 -155.533 1078.218 Q -155.534 1078.865 -155.533 1079.631 Q -155.533 1080.397 -155.533 1080.652 Q -155.533 1080.907 -155.533 1081.250 Q -155.533 1081.593 -155.533 1081.441 Q -155.533 1081.289 -155.526 1081.964 Q -155.519 1082.640 -155.551 1082.700 Q -155.582 1082.760 -155.583 1083.623 Q -155.584 1084.485 -155.585 1085.006 Q -155.586 1085.526 -155.590 1085.473 Q -155.595 1085.420 -155.331 1086.182 Q -155.067 1086.944 -155.040 1086.937 Q -155.013 1086.931 -154.999 1086.929 Q -154.984 1086.927 -155.068 1087.018 Q -155.152 1087.109 -149.329 1092.767 Q -149.287 1092.746 -149.262 1092.725 "></path>
    <path id="STROKE_bf3b4573-770c-492c-87b8-d9322c7e5e1c" opacity="1.000" fill="none" stroke="#000000" stroke-width="0.464" stroke-opacity="1.000" stroke-linecap="round" stroke-linejoin="round" d="M -109.377 1060.400 Q -109.315 1060.787 -109.107 1065.126 Q -108.898 1069.465 -108.893 1072.599 Q -108.888 1075.732 -109.366 1081.625 Q -109.845 1087.517 -109.911 1087.869 "></path>
    <path id="STROKE_ec5a4c6f-0e10-4c19-a8fb-30f739376e34" opacity="1.000" fill="none" stroke="#000000" stroke-width="0.467" stroke-opacity="1.000" stroke-linecap="round" stroke-linejoin="round" d="M -124.750 1068.922 Q -124.659 1069.160 -124.723 1068.474 Q -124.787 1067.789 -123.586 1067.108 Q -122.384 1066.427 -121.607 1066.327 Q -120.829 1066.228 -119.978 1066.676 Q -119.126 1067.124 -118.432 1068.524 Q -117.738 1069.925 -117.502 1071.381 Q -117.265 1072.837 -117.540 1074.083 Q -117.816 1075.329 -118.555 1075.986 Q -119.295 1076.642 -119.800 1076.870 Q -120.305 1077.099 -120.625 1077.101 Q -120.945 1077.104 -121.264 1077.178 Q -121.583 1077.252 -122.182 1076.988 Q -122.780 1076.724 -123.024 1076.335 Q -123.267 1075.947 -123.425 1075.773 "></path>
    <path id="STROKE_9d9c3c7a-1c9f-40cd-b779-749d8dc2589c" opacity="1.000" fill="none" stroke="#000000" stroke-width="0.461" stroke-opacity="1.000" stroke-linecap="round" stroke-linejoin="round" d="M -124.300 1069.101 Q -124.325 1069.101 -124.483 1069.143 Q -124.483 1069.164 -124.483 1069.186 Q -124.670 1069.019 -124.839 1070.377 Q -125.008 1071.735 -125.059 1072.652 Q -125.111 1073.569 -124.966 1074.077 Q -124.822 1074.584 -124.538 1074.845 Q -124.254 1075.106 -124.290 1075.057 Q -124.326 1075.007 -124.390 1074.971 Q -124.454 1074.935 -124.150 1075.152 Q -123.845 1075.370 -123.693 1075.501 "></path>
    <path id="STROKE_6354c060-5ae0-443b-bd8f-f434b10b9d46" opacity="1.000" fill="none" stroke="#000000" stroke-width="0.466" stroke-opacity="1.000" stroke-linecap="round" stroke-linejoin="round" d="M -148.023 1068.617 Q -148.039 1069.103 -147.993 1068.828 Q -147.948 1068.554 -148.229 1069.572 Q -148.511 1070.590 -148.675 1071.671 Q -148.839 1072.752 -148.887 1073.199 Q -148.935 1073.647 -148.992 1074.082 Q -149.049 1074.517 -148.785 1075.104 Q -148.521 1075.692 -148.327 1075.754 Q -148.133 1075.816 -147.939 1075.979 Q -147.746 1076.142 -147.780 1076.109 Q -147.815 1076.077 -147.792 1076.094 Q -147.770 1076.111 -147.822 1076.055 Q -147.875 1075.998 -147.287 1076.508 Q -146.700 1077.018 -146.270 1077.355 Q -145.840 1077.693 -145.891 1077.673 Q -145.942 1077.652 -145.867 1077.655 Q -145.792 1077.657 -145.834 1077.663 Q -145.876 1077.669 -145.785 1077.657 Q -145.693 1077.646 -145.704 1077.681 Q -145.715 1077.716 -145.383 1077.772 Q -145.051 1077.828 -144.786 1077.661 Q -144.522 1077.494 -144.413 1077.372 Q -144.304 1077.250 -143.996 1076.871 Q -143.689 1076.492 -143.782 1076.787 Q -143.874 1077.082 -143.507 1076.018 Q -143.139 1074.954 -143.143 1074.750 Q -143.147 1074.545 -143.083 1074.019 Q -143.019 1073.494 -143.006 1073.223 Q -142.992 1072.952 -142.992 1072.585 Q -142.991 1072.217 -142.992 1071.835 Q -142.993 1071.452 -143.002 1071.178 Q -143.011 1070.904 -142.994 1070.963 Q -142.978 1071.022 -142.999 1070.592 Q -143.019 1070.163 -143.222 1069.968 Q -143.425 1069.772 -143.565 1069.621 Q -143.706 1069.470 -143.615 1069.567 Q -143.524 1069.665 -143.963 1069.227 Q -144.402 1068.788 -144.752 1068.457 Q -145.102 1068.125 -145.480 1067.838 Q -145.858 1067.552 -145.842 1067.570 Q -145.825 1067.589 -145.804 1067.597 Q -145.783 1067.606 -145.881 1067.562 Q -145.979 1067.518 -146.120 1067.460 Q -146.261 1067.403 -146.394 1067.335 "></path>
    <path id="STROKE_2818dac3-e89c-4853-b52c-28a904146cc0" opacity="1.000" fill="none" stroke="#000000" stroke-width="0.463" stroke-opacity="1.000" stroke-linecap="round" stroke-linejoin="round" d="M -145.993 1068.082 Q -145.993 1068.061 -145.993 1067.955 Q -146.018 1067.955 -146.042 1067.955 Q -146.042 1067.360 -146.042 1067.513 Q -146.042 1067.445 -146.042 1067.335 Q -146.042 1067.356 -146.042 1067.378 Q -146.570 1067.378 -146.437 1067.378 Q -147.365 1067.312 -147.099 1067.335 Q -147.847 1067.718 -147.610 1067.751 Q -147.786 1068.018 -147.938 1068.176 "></path>
    <path id="STROKE_5a8db401-73dd-4a10-bba7-53c002da971c" opacity="1.000" fill="none" stroke="#000000" stroke-width="0.474" stroke-opacity="1.000" stroke-linecap="round" stroke-linejoin="round" d="M -112.245 1077.097 Q -112.245 1077.072 -112.245 1077.004 Q -112.615 1076.662 -112.403 1076.833 Q -112.191 1077.004 -112.660 1076.551 Q -113.129 1076.097 -113.736 1076.019 Q -114.343 1075.942 -114.787 1076.036 Q -115.231 1076.130 -116.006 1076.539 Q -116.781 1076.948 -117.744 1077.600 Q -118.707 1078.252 -119.884 1079.356 Q -121.062 1080.460 -121.671 1081.179 Q -122.279 1081.897 -122.500 1082.480 Q -122.721 1083.063 -122.883 1084.421 Q -123.044 1085.779 -122.556 1087.387 Q -122.069 1088.995 -121.084 1089.888 Q -120.100 1090.781 -119.446 1091.032 Q -118.791 1091.284 -118.044 1091.423 Q -117.298 1091.562 -115.634 1091.395 Q -113.971 1091.226 -113.788 1091.137 "></path>
    <path id="STROKE_716843a2-480c-4de9-a956-8cc3373455ce" opacity="1.000" fill="none" stroke="#000000" stroke-width="0.459" stroke-opacity="1.000" stroke-linecap="round" stroke-linejoin="round" d="M -112.342 1077.488 Q -112.411 1077.353 -112.400 1077.430 Q -112.389 1077.507 -112.369 1077.534 Q -112.350 1077.561 -111.988 1078.057 Q -111.627 1078.553 -111.478 1078.577 Q -111.330 1078.601 -110.991 1079.393 Q -110.651 1080.186 -110.458 1080.657 Q -110.264 1081.129 -110.461 1083.540 Q -110.659 1085.951 -110.750 1086.061 "></path>
    <path id="STROKE_10ef1126-a24a-4169-ba63-74be6dd96573" opacity="1.000" fill="none" stroke="#000000" stroke-width="0.462" stroke-opacity="1.000" stroke-linecap="round" stroke-linejoin="round" d="M -154.427 1080.365 Q -155.097 1080.286 -154.006 1079.920 Q -152.914 1079.554 -152.288 1079.540 Q -151.663 1079.526 -150.726 1079.463 Q -149.789 1079.400 -148.900 1079.630 Q -148.012 1079.860 -147.022 1081.163 Q -146.032 1082.465 -145.689 1083.906 Q -145.345 1085.346 -145.157 1086.342 Q -144.969 1087.338 -144.827 1090.212 Q -144.936 1090.212 -145.355 1090.055 Q -145.775 1089.898 -145.993 1089.720 "></path>
    <path id="STROKE_fdc0dcf5-d558-4a76-9ad9-ee1df5ba94ac" opacity="1.000" fill="none" stroke="#000000" stroke-width="0.467" stroke-opacity="1.000" stroke-linecap="round" stroke-linejoin="round" d="M -145.070 1090.382 Q -145.250 1090.935 -145.222 1090.827 Q -145.547 1091.299 -145.507 1091.201 Q -145.905 1091.591 -145.866 1091.511 Q -146.877 1091.823 -146.546 1091.706 Q -147.325 1091.706 -147.233 1091.706 Q -148.118 1091.769 -147.822 1091.757 Q -147.956 1091.778 -148.594 1092.020 Q -148.618 1091.999 -148.709 1091.899 Q -148.801 1091.799 -148.959 1091.621 "></path>
    <path id="STROKE_97648645-8669-4e31-911d-7e5b7f9c815f" opacity="1.000" fill="none" stroke="#000000" stroke-width="0.484" stroke-opacity="1.000" stroke-linecap="round" stroke-linejoin="round" d="M -136.939 1078.107 Q -136.421 1077.868 -136.453 1077.908 Q -137.030 1077.725 -133.755 1077.780 Q -133.755 1077.802 -133.768 1077.846 Q -133.780 1077.891 -133.804 1077.980 "></path>
    <path id="STROKE_ad1b8279-9543-4fc0-82a7-897c7d10c980" opacity="1.000" fill="none" stroke="#000000" stroke-width="0.466" stroke-opacity="1.000" stroke-linecap="round" stroke-linejoin="round" d="M -133.889 1078.243 Q -134.075 1078.456 -134.372 1078.745 Q -134.668 1079.035 -134.623 1078.992 Q -134.577 1078.948 -134.622 1078.993 Q -134.668 1079.038 -135.096 1079.368 Q -135.524 1079.699 -135.615 1079.745 "></path>
    <path id="STROKE_6bb2e834-d1f3-4944-a2c8-64d558ee4b05" opacity="1.000" fill="none" stroke="#000000" stroke-width="0.465" stroke-opacity="1.000" stroke-linecap="round" stroke-linejoin="round" d="M -137.158 1078.328 Q -136.995 1078.816 -136.751 1079.056 Q -136.508 1079.296 -136.339 1079.395 Q -136.170 1079.493 -136.297 1079.412 Q -136.424 1079.331 -136.217 1079.481 Q -136.010 1079.631 -135.967 1079.695 "></path>
    <path id="STROKE_015a5f33-8f76-4879-a408-3be2d726e771" opacity="1.000" fill="none" stroke="#000000" stroke-width="0.456" stroke-opacity="1.000" stroke-linecap="round" stroke-linejoin="round" d="M -135.347 1086.188 Q -135.851 1086.376 -136.781 1087.651 Q -137.711 1088.926 -137.778 1089.058 "></path>
    <path id="STROKE_a84173e9-d574-44e7-a3a4-14aabaccb94a" opacity="1.000" fill="none" stroke="#000000" stroke-width="0.455" stroke-opacity="1.000" stroke-linecap="round" stroke-linejoin="round" d="M -135.177 1086.010 Q -135.562 1086.149 -131.845 1087.338 Q -128.129 1088.527 -127.971 1088.659 "></path>
    <path id="STROKE_5300465f-ed3d-45fe-afa0-b949a55d7bf3" opacity="1.000" fill="none" stroke="#000000" stroke-width="0.463" stroke-opacity="1.000" stroke-linecap="round" stroke-linejoin="round" d="M -121.557 1102.801 Q -122.150 1103.775 -123.456 1106.267 Q -124.763 1108.759 -125.719 1110.825 Q -126.675 1112.892 -128.069 1115.887 Q -129.463 1118.882 -129.623 1118.950 "></path>
    <path id="STROKE_bdd6bd64-635a-4691-8629-009862683d85" opacity="1.000" fill="none" stroke="#000000" stroke-width="0.463" stroke-opacity="1.000" stroke-linecap="round" stroke-linejoin="round" d="M -130.188 1119.560 Q -130.774 1119.691 -130.683 1119.744 Q -131.328 1120.250 -131.128 1120.073 Q -130.928 1119.897 -131.292 1120.234 Q -131.656 1120.570 -131.735 1120.650 Q -131.814 1120.730 -131.786 1120.695 Q -131.759 1120.660 -131.790 1120.680 Q -131.820 1120.700 -132.385 1121.358 Q -132.133 1121.912 -130.420 1122.682 Q -130.445 1122.682 -130.471 1122.682 Q -130.409 1122.648 -130.543 1122.829 Q -130.677 1123.009 -130.792 1123.148 "></path>
    <path id="STROKE_6a5a0539-bbc1-426f-8cce-659f1202730d" opacity="1.000" fill="none" stroke="#000000" stroke-width="0.461" stroke-opacity="1.000" stroke-linecap="round" stroke-linejoin="round" d="M -130.471 1123.014 Q -130.471 1123.705 -130.471 1123.574 Q -130.471 1124.673 -130.471 1124.341 Q -130.555 1125.223 -130.561 1125.064 Q -130.486 1124.991 -131.165 1127.024 Q -131.075 1126.979 -130.985 1126.934 "></path>
    <path id="STROKE_327bd7cc-801f-46bf-ae4f-044df0119443" opacity="1.000" fill="none" stroke="#000000" stroke-width="0.464" stroke-opacity="1.000" stroke-linecap="round" stroke-linejoin="round" d="M -130.843 1127.822 Q -130.322 1127.654 -128.416 1127.746 Q -128.292 1128.392 -128.300 1128.262 Q -128.429 1127.752 -127.318 1131.456 Q -126.667 1131.102 -126.926 1131.200 L -126.926 1131.177 Q -127.037 1131.227 -126.776 1131.211 Q -126.514 1131.196 -125.814 1130.918 Q -125.114 1130.639 -124.780 1130.606 Q -124.447 1130.572 -124.357 1130.523 "></path>
    <path id="STROKE_556ebdad-82e8-41cb-b79a-106786885c37" opacity="1.000" fill="none" stroke="#000000" stroke-width="0.464" stroke-opacity="1.000" stroke-linecap="round" stroke-linejoin="round" d="M -123.882 1130.011 Q -123.908 1130.011 -123.933 1130.011 Q -123.933 1130.693 -123.933 1130.550 Q -123.923 1131.554 -123.908 1131.200 Q -123.030 1131.478 -123.349 1131.366 Q -122.652 1131.134 -122.605 1131.117 Q -122.558 1131.101 -122.604 1131.110 Q -121.600 1130.997 -121.878 1131.043 Q -121.410 1131.029 -121.339 1130.951 Q -121.268 1130.873 -121.082 1130.756 "></path>
    <path id="STROKE_42d979d0-7c99-431a-a8bf-412463682898" opacity="1.000" fill="none" stroke="#000000" stroke-width="0.470" stroke-opacity="1.000" stroke-linecap="round" stroke-linejoin="round" d="M -120.568 1131.222 Q -120.990 1131.211 -120.966 1131.155 Q -121.018 1131.110 -121.082 1131.088 Q -120.511 1131.109 -120.345 1131.005 Q -120.178 1130.901 -119.903 1130.680 Q -119.627 1130.459 -119.396 1130.191 Q -119.165 1129.923 -118.734 1129.407 Q -118.303 1128.890 -118.042 1128.507 Q -117.781 1128.124 -115.768 1125.405 Q -113.755 1122.686 -113.427 1122.269 "></path>
    <path id="STROKE_b9f72a0c-f8f3-478f-af18-4c2d4dbb3f76" opacity="1.000" fill="none" stroke="#000000" stroke-width="0.464" stroke-opacity="1.000" stroke-linecap="round" stroke-linejoin="round" d="M -142.236 1104.255 Q -142.234 1104.063 -140.764 1108.672 Q -139.295 1113.280 -139.153 1113.396 "></path>
    <path id="STROKE_931a515c-2634-43c7-b1a3-73ed3dc4a61e" opacity="1.000" fill="none" stroke="#000000" stroke-width="0.460" stroke-opacity="1.000" stroke-linecap="round" stroke-linejoin="round" d="M -139.102 1113.208 Q -139.174 1113.586 -139.064 1113.948 Q -138.954 1114.309 -138.577 1115.455 Q -138.200 1116.601 -137.566 1117.484 Q -136.931 1118.366 -136.816 1118.438 "></path>
    <path id="STROKE_532b9f86-bbdf-4e8c-812d-3625a63db499" opacity="1.000" fill="none" stroke="#000000" stroke-width="0.466" stroke-opacity="1.000" stroke-linecap="round" stroke-linejoin="round" d="M -137.330 1118.295 Q -137.355 1118.295 -137.381 1118.295 Q -136.913 1119.225 -136.957 1118.977 Q -137.144 1118.708 -135.416 1120.304 Q -136.400 1120.304 -136.071 1120.304 Q -136.268 1120.197 -137.240 1121.569 Q -137.214 1121.569 -137.121 1121.581 Q -137.028 1121.592 -136.867 1121.614 "></path>
    <path id="STROKE_ccdfe256-1dc2-4b29-8ef0-0901f98dbc05" opacity="1.000" fill="none" stroke="#000000" stroke-width="0.470" stroke-opacity="1.000" stroke-linecap="round" stroke-linejoin="round" d="M -137.419 1121.515 Q -137.419 1122.373 -137.419 1122.197 Q -137.419 1123.155 -137.419 1122.875 Q -137.419 1123.535 -137.419 1123.525 Q -137.419 1124.677 -137.419 1124.413 Q -137.502 1125.031 -137.188 1126.979 Q -137.173 1126.834 -137.220 1126.836 Q -137.267 1126.839 -137.199 1126.841 Q -137.131 1126.844 -137.071 1126.868 Q -137.011 1126.892 -137.070 1126.872 Q -137.130 1126.853 -137.548 1126.696 Q -137.967 1126.538 -138.102 1126.496 Q -138.238 1126.454 -138.255 1126.450 Q -138.272 1126.445 -138.302 1126.445 Q -138.332 1126.445 -138.617 1126.326 Q -138.902 1126.208 -138.871 1126.234 Q -138.897 1126.234 -139.038 1126.189 Q -139.231 1126.677 -139.350 1126.945 Q -139.468 1127.213 -139.465 1127.181 Q -139.461 1127.150 -139.548 1127.380 Q -139.635 1127.610 -139.624 1127.569 Q -139.613 1127.528 -139.907 1128.107 Q -140.201 1128.687 -140.181 1128.589 Q -140.181 1128.634 -140.245 1128.890 L -140.271 1128.890 Q -140.271 1128.912 -140.386 1129.267 L -140.412 1129.267 Q -141.439 1129.221 -141.061 1129.222 Q -140.900 1129.138 -141.902 1129.078 Q -141.902 1129.056 -141.902 1129.033 Q -142.672 1129.033 -142.396 1129.033 Q -142.416 1129.033 -142.499 1128.998 Q -142.583 1128.962 -142.698 1128.890 "></path>
    <path id="STROKE_a1230bd7-6ac2-46f7-aa6e-3193825abbc4" opacity="1.000" fill="none" stroke="#000000" stroke-width="0.468" stroke-opacity="1.000" stroke-linecap="round" stroke-linejoin="round" d="M -142.506 1129.123 Q -142.755 1129.324 -142.966 1129.569 Q -143.177 1129.813 -143.209 1129.820 Q -143.241 1129.826 -143.223 1129.816 Q -143.205 1129.806 -143.272 1129.844 Q -143.340 1129.882 -144.214 1130.577 Q -144.065 1130.974 -145.074 1129.078 Q -145.100 1129.078 -145.126 1129.033 Q -145.820 1128.494 -145.569 1128.679 Q -145.588 1128.634 -145.649 1128.531 Q -145.710 1128.428 -145.832 1128.289 "></path>
    <path id="STROKE_1c776df8-e669-4d5a-9478-55a5ffe89a05" opacity="1.000" fill="none" stroke="#000000" stroke-width="0.465" stroke-opacity="1.000" stroke-linecap="round" stroke-linejoin="round" d="M -146.205 1128.468 Q -146.414 1128.656 -146.410 1128.657 Q -146.882 1129.043 -146.738 1128.912 Q -146.783 1128.935 -147.091 1129.011 L -147.091 1129.033 Q -147.110 1129.033 -147.271 1129.011 Q -147.296 1128.917 -147.380 1128.728 Q -147.463 1128.540 -147.605 1128.379 "></path>
    <path id="STROKE_ac06ffad-9f4c-4cd5-94f9-28cf3b6c00b3" opacity="1.000" fill="none" stroke="#000000" stroke-width="0.463" stroke-opacity="1.000" stroke-linecap="round" stroke-linejoin="round" d="M -153.718 1111.485 Q -153.669 1111.323 -153.786 1111.532 Q -153.904 1111.741 -153.285 1113.525 Q -152.666 1115.308 -151.470 1118.183 Q -150.273 1121.058 -149.261 1124.082 Q -148.250 1127.106 -147.622 1128.794 Q -146.995 1130.482 -146.898 1130.577 "></path>
    <path id="STROKE_08313530-c00f-4ffb-8037-6aaf333b2db9" opacity="1.000" fill="none" stroke="#000000" stroke-width="0.461" stroke-opacity="1.000" stroke-linecap="round" stroke-linejoin="round" d="M -110.062 1092.215 Q -110.062 1092.188 -110.062 1092.116 Q -110.057 1092.043 -109.360 1094.952 Q -108.663 1097.861 -108.453 1101.689 Q -108.242 1105.518 -108.138 1108.389 Q -108.033 1111.260 -108.241 1113.475 Q -108.449 1115.691 -109.503 1116.995 Q -110.557 1118.299 -110.768 1118.393 "></path>
    <path id="STROKE_ece3d624-7d38-4f90-9393-ba92e66bc8e1" opacity="1.000" fill="none" stroke="#000000" stroke-width="0.462" stroke-opacity="1.000" stroke-linecap="round" stroke-linejoin="round" d="M -150.777 1093.749 Q -150.537 1093.743 -151.284 1093.727 Q -151.112 1093.585 -152.153 1095.942 Q -153.195 1098.300 -154.282 1101.167 Q -155.370 1104.034 -155.148 1107.047 Q -154.926 1110.059 -154.784 1110.409 "></path>
    <path id="STROKE_85878c29-3c98-4e66-b76d-3eedddecd351" opacity="1.000" fill="none" stroke="#000000" stroke-width="0.468" stroke-opacity="1.000" stroke-linecap="round" stroke-linejoin="round" d="M -151.435 1120.315 Q -151.583 1121.514 -151.541 1121.228 Q -151.664 1121.913 -151.648 1121.918 Q -151.775 1122.500 -151.948 1123.651 Q -152.120 1124.801 -152.594 1126.570 Q -153.068 1128.338 -153.464 1129.418 Q -153.860 1130.497 -154.582 1132.266 Q -155.303 1134.036 -155.449 1136.919 Q -155.595 1139.803 -155.651 1141.451 Q -155.707 1143.098 -155.423 1144.018 Q -155.139 1144.937 -154.961 1145.326 Q -154.783 1145.715 -154.811 1145.740 Q -154.839 1145.766 -154.433 1146.640 Q -154.028 1147.513 -153.324 1148.306 Q -152.621 1149.098 -151.811 1149.801 Q -151.000 1150.504 -150.290 1151.092 Q -149.579 1151.679 -148.311 1152.607 Q -147.042 1153.534 -146.845 1153.725 "></path>
    <path id="STROKE_ba3c5475-162f-4100-ad82-f96577cce258" opacity="1.000" fill="none" stroke="#000000" stroke-width="0.468" stroke-opacity="1.000" stroke-linecap="round" stroke-linejoin="round" d="M -107.677 1109.497 Q -107.525 1110.460 -107.547 1110.213 Q -107.788 1109.669 -105.473 1116.846 Q -103.159 1124.023 -101.780 1129.056 Q -100.400 1134.089 -99.991 1136.416 Q -99.582 1138.743 -99.278 1141.631 Q -98.973 1144.519 -99.021 1146.248 Q -99.070 1147.976 -100.146 1149.979 Q -101.222 1151.983 -101.946 1153.154 Q -102.671 1154.326 -106.116 1154.843 Q -109.561 1155.360 -109.835 1155.551 "></path>
    <path id="STROKE_a743ab3c-a358-4e50-936b-1228391cae19" opacity="1.000" fill="none" stroke="#000000" stroke-width="0.600" stroke-opacity="1.000" stroke-linecap="round" stroke-linejoin="round" d="M -136.079 1155.366 Q -136.112 1155.366 -136.297 1155.366 Q -135.348 1155.207 -133.285 1154.420 Q -131.222 1153.634 -125.689 1154.005 Q -120.156 1154.377 -120.001 1154.453 "></path>
    <path id="STROKE_2c3541d2-ffb6-4512-9d54-3f1b9a81ebe4" opacity="1.000" fill="none" stroke="#000000" stroke-width="0.469" stroke-opacity="1.000" stroke-linecap="round" stroke-linejoin="round" d="M -148.106 1154.635 Q -148.106 1154.609 -148.181 1154.416 Q -148.818 1154.409 -148.696 1154.442 Q -148.841 1154.306 -150.363 1157.525 Q -151.885 1160.743 -152.618 1162.378 Q -153.350 1164.013 -153.581 1164.840 Q -153.813 1165.667 -153.685 1165.984 Q -153.556 1166.302 -153.422 1166.411 "></path>
    <path id="STROKE_84964d55-914c-490a-9535-c77837928113" opacity="1.000" fill="none" stroke="#000000" stroke-width="0.460" stroke-opacity="1.000" stroke-linecap="round" stroke-linejoin="round" d="M -153.527 1165.754 Q -153.470 1166.125 -153.545 1165.964 Q -153.619 1165.802 -153.566 1165.878 Q -153.513 1165.954 -153.553 1165.918 Q -153.593 1165.882 -153.391 1166.211 Q -153.190 1166.540 -152.992 1166.828 Q -152.794 1167.115 -152.815 1167.058 Q -152.837 1167.000 -152.808 1167.054 Q -152.780 1167.108 -152.610 1167.267 Q -152.441 1167.427 -151.953 1167.500 Q -151.466 1167.574 -151.302 1167.600 "></path>
    <path id="STROKE_bdea6fe2-7dc6-4027-8608-335c62ee45d5" opacity="1.000" fill="none" stroke="#000000" stroke-width="0.718" stroke-opacity="1.000" stroke-linecap="round" stroke-linejoin="round" d="M -150.704 1168.038 Q -150.894 1168.022 -150.929 1168.025 Q -150.965 1168.029 -151.038 1168.040 Q -151.110 1168.052 -151.065 1168.042 Q -151.020 1168.032 -150.955 1168.023 Q -150.889 1168.014 -150.999 1168.024 Q -151.109 1168.034 -152.018 1168.143 Q -151.551 1168.508 -147.532 1167.934 Q -143.514 1167.360 -143.327 1167.172 "></path>
    <path id="STROKE_0256bc12-c3fb-40f7-a6c8-7e451a310200" opacity="1.000" fill="none" stroke="#000000" stroke-width="0.630" stroke-opacity="1.000" stroke-linecap="round" stroke-linejoin="round" d="M -143.268 1166.630 Q -143.298 1166.630 -143.925 1166.515 Q -143.895 1167.089 -141.864 1165.427 Q -139.832 1163.766 -138.712 1162.566 Q -137.592 1161.365 -136.730 1161.106 Q -135.868 1160.846 -135.682 1160.768 "></path>
    <path id="STROKE_456e0bf9-68cd-428a-a3b6-bf9a9d9bd40e" opacity="1.000" fill="none" stroke="#000000" stroke-width="0.468" stroke-opacity="1.000" stroke-linecap="round" stroke-linejoin="round" d="M -135.891 1156.752 Q -135.891 1156.726 -135.891 1156.648 Q -135.836 1156.168 -135.995 1161.144 Q -136.055 1161.118 -136.115 1161.092 "></path>
    <path id="STROKE_2306ca35-576f-48be-8c98-ae78faf7c2ca" opacity="1.000" fill="none" stroke="#000000" stroke-width="0.460" stroke-opacity="1.000" stroke-linecap="round" stroke-linejoin="round" d="M -119.345 1155.073 Q -119.345 1155.042 -119.345 1154.906 Q -119.449 1154.751 -119.039 1157.189 Q -118.628 1159.626 -118.464 1159.788 "></path>
    <path id="STROKE_53149895-17a7-4a18-a128-1fbea2e48707" opacity="1.000" fill="none" stroke="#000000" stroke-width="0.509" stroke-opacity="1.000" stroke-linecap="round" stroke-linejoin="round" d="M -118.793 1160.059 Q -118.995 1160.653 -115.463 1164.265 Q -111.931 1167.877 -111.789 1167.934 "></path>
    <path id="STROKE_7d379b10-ef5f-476c-ac05-8410abd79dcb" opacity="1.000" fill="none" stroke="#000000" stroke-width="0.476" stroke-opacity="1.000" stroke-linecap="round" stroke-linejoin="round" d="M -112.118 1167.496 Q -111.690 1167.420 -110.931 1168.051 Q -110.171 1168.681 -109.421 1168.709 Q -108.670 1168.737 -108.731 1168.727 Q -108.791 1168.716 -108.708 1168.724 Q -108.624 1168.732 -108.017 1168.810 Q -107.409 1168.888 -107.162 1168.883 Q -106.914 1168.878 -106.861 1168.852 "></path>
    <path id="STROKE_642d0400-74b6-4ffd-83c6-6367b9d8d6df" opacity="1.000" fill="none" stroke="#000000" stroke-width="0.519" stroke-opacity="1.000" stroke-linecap="round" stroke-linejoin="round" d="M -106.906 1155.887 Q -106.906 1155.861 -106.906 1155.720 Q -106.082 1155.513 -101.023 1165.702 Q -100.963 1165.702 -100.784 1165.702 Q -100.724 1165.592 -100.664 1165.483 "></path>
    <path id="STROKE_97da0e86-89f2-4bae-bfd9-c84a897408b8" opacity="1.000" fill="none" stroke="#000000" stroke-width="0.460" stroke-opacity="1.000" stroke-linecap="round" stroke-linejoin="round" d="M -100.500 1165.973 Q -100.530 1165.973 -100.560 1165.973 Q -100.560 1165.161 -100.560 1167.986 Q -100.590 1167.960 -100.683 1167.864 Q -100.776 1167.767 -100.933 1167.600 "></path>
    <path id="STROKE_7da72eba-170c-4b5c-a3d2-e4964e688dbf" opacity="1.000" fill="none" stroke="#000000" stroke-width="0.495" stroke-opacity="1.000" stroke-linecap="round" stroke-linejoin="round" d="M -100.784 1168.633 Q -101.128 1168.633 -101.097 1168.633 Q -102.353 1168.633 -101.941 1168.633 Q -101.965 1168.639 -102.351 1168.668 Q -102.737 1168.697 -102.701 1168.689 Q -102.666 1168.681 -102.766 1168.684 Q -102.866 1168.686 -102.588 1168.685 Q -102.311 1168.684 -103.974 1168.685 Q -105.637 1168.685 -105.771 1168.685 "></path>
    <path id="STROKE_2a52f441-9375-43b9-90d4-87a5d5294114" opacity="1.000" fill="none" stroke="#000000" stroke-width="0.460" stroke-opacity="1.000" stroke-linecap="round" stroke-linejoin="round" d="M -150.435 1164.732 Q -150.465 1164.732 -150.682 1164.700 Q -150.704 1164.643 -151.115 1164.643 Q -151.239 1165.217 -151.227 1165.159 Q -151.417 1166.538 -151.361 1166.135 Q -151.361 1167.237 -151.361 1167.225 Q -151.431 1167.812 -150.825 1168.006 Q -150.219 1168.200 -150.002 1168.309 "></path>
    <path id="STROKE_214489b4-fa9a-430f-aa4e-61f9b73c417f" opacity="1.000" fill="none" stroke="#000000" stroke-width="0.460" stroke-opacity="1.000" stroke-linecap="round" stroke-linejoin="round" d="M -147.553 1163.803 Q -147.471 1163.686 -147.719 1164.091 Q -147.966 1164.495 -147.897 1164.462 Q -147.829 1164.428 -147.948 1164.253 Q -148.068 1164.078 -147.397 1167.032 Q -147.262 1167.058 -147.128 1167.113 Q -146.993 1167.167 -146.807 1167.277 "></path>
    <path id="STROKE_90ed0e05-6261-4636-97a4-c6f8e75c1fac" opacity="1.000" fill="none" stroke="#000000" stroke-width="0.460" stroke-opacity="1.000" stroke-linecap="round" stroke-linejoin="round" d="M -107.608 1164.461 Q -107.638 1164.461 -107.727 1164.461 Q -107.722 1165.323 -107.698 1165.217 Q -107.394 1166.485 -107.451 1166.192 Q -107.281 1166.974 -107.328 1166.658 Q -107.375 1166.342 -107.130 1168.090 Q -107.212 1168.090 -107.294 1168.090 "></path>
    <path id="STROKE_592afeda-68a4-46ff-8fcf-cf0fb562ccdb" opacity="1.000" fill="none" stroke="#000000" stroke-width="0.460" stroke-opacity="1.000" stroke-linecap="round" stroke-linejoin="round" d="M -103.979 1164.888 Q -103.979 1164.862 -103.979 1164.732 Q -103.161 1165.553 -103.434 1165.321 Q -102.916 1166.260 -102.949 1168.257 Q -103.001 1168.257 -103.109 1168.283 Q -103.218 1168.309 -103.382 1168.362 "></path>
    <path id="STROKE_3801ad38-4baf-4bae-8663-2f0567388989" opacity="1.000" fill="none" stroke="#000000" stroke-width="0.464" stroke-opacity="1.000" stroke-linecap="round" stroke-linejoin="round" d="M -148.182 1068.353 Q -148.599 1068.384 -148.543 1068.845 Q -148.487 1069.306 -148.180 1069.638 Q -147.872 1069.971 -147.585 1070.138 Q -147.298 1070.304 -146.890 1070.315 Q -146.482 1070.326 -146.283 1070.286 Q -146.085 1070.245 -146.039 1070.211 Q -145.992 1070.177 -145.817 1070.068 Q -145.641 1069.959 -145.700 1069.985 Q -145.759 1070.011 -145.490 1069.828 Q -145.222 1069.645 -145.027 1069.373 Q -144.833 1069.101 -144.801 1068.928 Q -144.769 1068.756 -144.772 1068.806 Q -144.776 1068.857 -144.965 1068.486 Q -145.153 1068.115 -145.864 1067.937 Q -146.575 1067.758 -146.637 1067.740 "></path>
    <path id="STROKE_a31fc8c3-6470-4ae4-8fe7-f0c30731f1f0" opacity="1.000" fill="none" stroke="#000000" stroke-width="0.463" stroke-opacity="1.000" stroke-linecap="round" stroke-linejoin="round" d="M -124.105 1067.110 Q -124.478 1067.452 -124.353 1067.339 Q -124.640 1067.846 -124.544 1067.683 Q -124.714 1067.916 -124.685 1068.385 Q -124.656 1068.854 -124.507 1069.020 Q -124.357 1069.185 -124.153 1069.226 Q -123.949 1069.266 -124.011 1069.250 Q -124.073 1069.235 -123.805 1069.281 Q -123.537 1069.327 -123.104 1069.285 Q -122.672 1069.243 -122.399 1069.093 Q -122.126 1068.942 -121.903 1068.764 Q -121.679 1068.586 -121.686 1068.590 Q -121.694 1068.594 -121.617 1068.505 Q -121.541 1068.416 -121.381 1068.160 Q -121.221 1067.905 -121.193 1067.755 Q -121.164 1067.605 -121.168 1067.630 Q -121.171 1067.655 -121.163 1067.621 Q -121.155 1067.588 -121.158 1067.393 Q -121.161 1067.198 -121.163 1067.204 Q -121.165 1067.211 -121.151 1067.195 Q -121.137 1067.179 -121.268 1067.126 Q -121.400 1067.072 -122.124 1066.673 Q -122.124 1066.659 -122.144 1066.637 Q -122.165 1066.615 -122.207 1066.572 "></path>
    <path id="STROKE_35a6a47a-40da-4816-a972-678d4340c58a" opacity="1.000" fill="none" stroke="#000000" stroke-width="0.460" stroke-opacity="1.000" stroke-linecap="round" stroke-linejoin="round" d="M -147.786 1070.034 Q -147.802 1070.034 -148.001 1070.077 Q -148.132 1070.531 -148.105 1070.454 Q -148.316 1071.125 -148.271 1070.980 Q -148.393 1071.351 -148.701 1072.033 Q -149.008 1072.715 -149.054 1072.743 "></path>
    <path id="STROKE_9d195605-378e-400c-8bb6-dbba47dd9426" opacity="1.000" fill="none" stroke="#000000" stroke-width="0.470" stroke-opacity="1.000" stroke-linecap="round" stroke-linejoin="round" d="M -147.829 1070.114 Q -147.902 1070.189 -148.211 1070.710 Q -148.519 1071.231 -148.559 1071.343 "></path>
    <circle id="STROKE_ee02c6bd-850e-416e-997f-4a7f9b6f3f95" opacity="1.000" fill="#000000" stroke="#000000" stroke-width="0.1" stroke-opacity="1.000" fill-opacity="1.000" cx="-148.616" cy="1071.486" r="0.260"></circle>
    <path id="STROKE_05c8f0ab-cd61-496f-a395-e305724025f6" opacity="1.000" fill="none" stroke="#000000" stroke-width="0.462" stroke-opacity="1.000" stroke-linecap="round" stroke-linejoin="round" d="M -147.574 1070.194 Q -147.566 1070.187 -147.558 1070.179 Q -147.838 1070.680 -147.760 1070.540 Q -147.830 1070.738 -148.189 1071.273 Q -148.548 1071.807 -148.558 1071.833 "></path>
    <path id="STROKE_eeab05cf-ea78-4f11-921c-ea6e31a7c896" opacity="1.000" fill="none" stroke="#000000" stroke-width="0.462" stroke-opacity="1.000" stroke-linecap="round" stroke-linejoin="round" d="M -147.019 1070.441 Q -147.178 1070.490 -148.836 1073.708 Q -148.813 1073.735 -148.744 1073.718 Q -148.674 1073.701 -148.573 1073.658 "></path>
    <path id="STROKE_e2f609e0-3b46-419a-afc3-fbb78966a398" opacity="1.000" fill="none" stroke="#000000" stroke-width="0.462" stroke-opacity="1.000" stroke-linecap="round" stroke-linejoin="round" d="M -146.154 1070.235 Q -146.192 1070.461 -146.811 1071.563 Q -147.430 1072.665 -147.939 1073.555 Q -148.448 1074.446 -148.464 1074.552 "></path>
    <path id="STROKE_22f0f43c-50c4-42de-97cd-eb50044979a3" opacity="1.000" fill="none" stroke="#000000" stroke-width="0.457" stroke-opacity="1.000" stroke-linecap="round" stroke-linejoin="round" d="M -144.774 1069.533 Q -144.901 1069.450 -146.395 1072.230 Q -147.888 1075.010 -147.877 1075.076 "></path>
    <path id="STROKE_3f6a0d1f-c03f-423d-8e7c-3a3fea3a3c99" opacity="1.000" fill="none" stroke="#000000" stroke-width="0.461" stroke-opacity="1.000" stroke-linecap="round" stroke-linejoin="round" d="M -144.109 1069.657 Q -144.132 1069.670 -144.146 1069.694 Q -144.160 1069.719 -144.279 1069.901 Q -144.397 1070.083 -145.212 1071.681 Q -146.026 1073.279 -146.725 1074.486 Q -147.425 1075.693 -147.413 1075.742 "></path>
    <path id="STROKE_8fe69126-d727-4e80-9d36-f6539d44a61f" opacity="1.000" fill="none" stroke="#000000" stroke-width="0.466" stroke-opacity="1.000" stroke-linecap="round" stroke-linejoin="round" d="M -143.483 1070.400 Q -143.435 1070.208 -144.222 1071.413 Q -145.009 1072.617 -145.846 1074.306 Q -146.682 1075.994 -146.712 1076.114 "></path>
    <path id="STROKE_719d0442-6dd5-4451-9a65-10b0fe90083e" opacity="1.000" fill="none" stroke="#000000" stroke-width="0.460" stroke-opacity="1.000" stroke-linecap="round" stroke-linejoin="round" d="M -143.284 1071.080 Q -143.366 1070.716 -144.574 1073.187 Q -145.782 1075.657 -145.814 1075.778 "></path>
    <path id="STROKE_e92ab153-6323-46eb-9cf9-d481b73d8fcd" opacity="1.000" fill="none" stroke="#000000" stroke-width="0.462" stroke-opacity="1.000" stroke-linecap="round" stroke-linejoin="round" d="M -143.165 1072.609 Q -143.242 1072.463 -144.932 1075.939 Q -144.918 1075.956 -144.889 1075.954 Q -144.860 1075.952 -144.808 1075.940 "></path>
    <path id="STROKE_7060e7bc-08ac-4bc6-aeda-2a9482e5e167" opacity="1.000" fill="none" stroke="#000000" stroke-width="0.467" stroke-opacity="1.000" stroke-linecap="round" stroke-linejoin="round" d="M -143.107 1073.820 Q -143.265 1073.885 -143.284 1074.043 Q -143.304 1074.201 -143.684 1074.994 Q -144.064 1075.787 -144.066 1075.835 "></path>
    <path id="STROKE_d3144c26-7a1c-4e1e-bf45-9145da0949a2" opacity="1.000" fill="none" stroke="#000000" stroke-width="0.460" stroke-opacity="1.000" stroke-linecap="round" stroke-linejoin="round" d="M -123.950 1069.253 Q -123.944 1069.243 -123.930 1069.216 Q -123.940 1069.211 -123.964 1069.198 Q -124.045 1069.204 -124.521 1070.436 Q -124.998 1071.668 -124.990 1071.717 "></path>
    <path id="STROKE_c9861ac7-a55d-4cc4-89a0-1a735174db3b" opacity="1.000" fill="none" stroke="#000000" stroke-width="0.456" stroke-opacity="1.000" stroke-linecap="round" stroke-linejoin="round" d="M -123.305 1069.453 Q -123.301 1069.444 -123.287 1069.419 Q -123.225 1069.284 -123.968 1070.750 Q -124.710 1072.215 -124.721 1072.299 "></path>
    <path id="STROKE_6733465c-f8af-4992-ade3-4de424ae60df" opacity="1.000" fill="none" stroke="#000000" stroke-width="0.463" stroke-opacity="1.000" stroke-linecap="round" stroke-linejoin="round" d="M -122.505 1069.448 Q -122.479 1069.398 -122.369 1069.187 Q -122.336 1069.146 -123.421 1071.188 Q -124.505 1073.230 -124.525 1073.243 "></path>
    <path id="STROKE_0d9bf0eb-aef7-40b8-be9e-e0aa78196518" opacity="1.000" fill="none" stroke="#000000" stroke-width="0.468" stroke-opacity="1.000" stroke-linecap="round" stroke-linejoin="round" d="M -120.769 1067.389 Q -120.850 1067.429 -122.446 1070.893 Q -124.042 1074.356 -124.043 1074.400 "></path>
    <path id="STROKE_eccd3e18-87c5-44f1-804f-baf701c166ea" opacity="1.000" fill="none" stroke="#000000" stroke-width="0.455" stroke-opacity="1.000" stroke-linecap="round" stroke-linejoin="round" d="M -120.074 1066.759 Q -119.999 1067.188 -121.709 1070.943 Q -123.419 1074.698 -123.448 1074.815 "></path>
    <path id="STROKE_82b20b98-26c1-46cf-813c-9af03c8a55a9" opacity="1.000" fill="none" stroke="#000000" stroke-width="0.455" stroke-opacity="1.000" stroke-linecap="round" stroke-linejoin="round" d="M -119.951 1067.058 Q -120.331 1067.652 -121.892 1071.301 Q -123.452 1074.950 -123.447 1074.998 "></path>
    <path id="STROKE_4ed58d63-77ca-4615-8faa-e70bd7fc2921" opacity="1.000" fill="none" stroke="#000000" stroke-width="0.464" stroke-opacity="1.000" stroke-linecap="round" stroke-linejoin="round" d="M -119.364 1067.373 Q -119.545 1067.744 -119.545 1067.743 Q -119.753 1067.785 -121.369 1071.814 Q -122.985 1075.844 -122.960 1075.884 "></path>
    <path id="STROKE_3282544a-903c-47fe-a560-b8f6b4f736c0" opacity="1.000" fill="none" stroke="#000000" stroke-width="0.457" stroke-opacity="1.000" stroke-linecap="round" stroke-linejoin="round" d="M -119.084 1068.250 Q -118.885 1068.164 -120.610 1072.081 Q -122.336 1075.999 -122.330 1076.044 "></path>
    <path id="STROKE_bc772681-1108-45ef-9f05-4224fc13ffeb" opacity="1.000" fill="none" stroke="#000000" stroke-width="0.457" stroke-opacity="1.000" stroke-linecap="round" stroke-linejoin="round" d="M -118.499 1069.303 Q -118.494 1069.292 -118.488 1069.280 Q -118.562 1069.615 -121.153 1075.703 Q -121.125 1075.703 -121.096 1075.703 "></path>
    <path id="STROKE_7776fe41-07bc-4620-842e-75f0d5efe50f" opacity="1.000" fill="none" stroke="#000000" stroke-width="0.457" stroke-opacity="1.000" stroke-linecap="round" stroke-linejoin="round" d="M -118.084 1070.871 Q -118.139 1070.953 -119.994 1074.847 Q -119.984 1074.852 -119.938 1074.861 Q -119.891 1074.869 -119.834 1074.869 "></path>
    <path id="STROKE_29b58521-71e6-4786-894f-b0e08f004c0e" opacity="1.000" fill="none" stroke="#000000" stroke-width="0.474" stroke-opacity="1.000" stroke-linecap="round" stroke-linejoin="round" d="M -117.588 1071.671 Q -117.406 1071.167 -117.973 1072.549 Q -118.541 1073.930 -118.527 1074.028 "></path>
    <path id="STROKE_38f2a5e3-9b2e-409c-89cf-6aaf1eeb5935" opacity="1.000" fill="none" stroke="#000000" stroke-width="0.470" stroke-opacity="1.000" stroke-linecap="round" stroke-linejoin="round" d="M -98.777 1031.005 Q -98.816 1030.860 -99.440 1031.423 Q -100.064 1031.987 -100.096 1032.068 "></path>
    <path id="STROKE_17f33fb2-52c8-4c41-9fd8-77f25f778723" opacity="1.000" fill="none" stroke="#000000" stroke-width="0.455" stroke-opacity="1.000" stroke-linecap="round" stroke-linejoin="round" d="M -96.560 1029.663 Q -96.652 1029.738 -99.690 1032.475 Q -99.670 1032.489 -99.606 1032.478 Q -99.541 1032.467 -99.426 1032.443 "></path>
    <path id="STROKE_6bcc830f-8120-4e87-9326-809ae35fd68a" opacity="1.000" fill="none" stroke="#000000" stroke-width="0.461" stroke-opacity="1.000" stroke-linecap="round" stroke-linejoin="round" d="M -94.517 1029.030 Q -94.521 1029.022 -94.526 1029.014 Q -94.865 1029.107 -95.672 1029.801 Q -96.479 1030.495 -97.432 1031.289 Q -98.385 1032.082 -99.355 1033.086 Q -99.345 1033.105 -99.299 1033.107 Q -99.254 1033.108 -99.169 1033.101 "></path>
    <path id="STROKE_55457915-92a0-41f4-b42f-621426fd3eb1" opacity="1.000" fill="none" stroke="#000000" stroke-width="0.460" stroke-opacity="1.000" stroke-linecap="round" stroke-linejoin="round" d="M -91.720 1027.476 Q -92.099 1027.589 -92.010 1027.578 Q -92.508 1027.894 -92.433 1027.863 Q -92.812 1028.364 -95.758 1030.828 Q -98.704 1033.292 -98.776 1033.395 "></path>
    <path id="STROKE_fd5bfaa8-6a95-4329-b23d-705f49f11edf" opacity="1.000" fill="none" stroke="#000000" stroke-width="0.463" stroke-opacity="1.000" stroke-linecap="round" stroke-linejoin="round" d="M -88.432 1025.186 Q -88.646 1025.075 -91.525 1027.738 Q -94.403 1030.400 -96.330 1032.149 Q -98.256 1033.897 -98.329 1033.976 "></path>
    <path id="STROKE_a8905227-9b2e-49f7-a801-aac9f09bff88" opacity="1.000" fill="none" stroke="#000000" stroke-width="0.465" stroke-opacity="1.000" stroke-linecap="round" stroke-linejoin="round" d="M -86.968 1024.948 Q -87.444 1024.853 -96.718 1033.680 Q -96.673 1033.645 -96.629 1033.610 "></path>
    <path id="STROKE_9a8ac764-663c-404e-bc7c-eccb36464021" opacity="1.000" fill="none" stroke="#000000" stroke-width="0.466" stroke-opacity="1.000" stroke-linecap="round" stroke-linejoin="round" d="M -86.688 1025.926 Q -87.157 1025.981 -97.324 1035.250 Q -97.255 1035.187 -97.186 1035.124 "></path>
    <path id="STROKE_6c2a7900-405f-4594-927a-9a9e5116d653" opacity="1.000" fill="none" stroke="#000000" stroke-width="0.463" stroke-opacity="1.000" stroke-linecap="round" stroke-linejoin="round" d="M -87.366 1027.500 Q -87.357 1027.495 -87.328 1027.479 Q -87.244 1027.402 -90.190 1030.019 Q -93.137 1032.636 -96.388 1035.274 Q -96.360 1035.297 -96.332 1035.321 "></path>
    <path id="STROKE_7dae7af5-2d75-42a1-a3d5-103297a22b47" opacity="1.000" fill="none" stroke="#000000" stroke-width="0.463" stroke-opacity="1.000" stroke-linecap="round" stroke-linejoin="round" d="M -88.043 1029.030 Q -87.650 1028.862 -88.833 1030.044 Q -90.016 1031.226 -91.348 1032.348 Q -92.680 1033.470 -93.880 1034.468 Q -95.081 1035.465 -96.173 1036.647 Q -96.104 1036.702 -96.047 1036.734 "></path>
    <path id="STROKE_439de02b-b13f-4369-b27e-e91d789e68d4" opacity="1.000" fill="none" stroke="#000000" stroke-width="0.459" stroke-opacity="1.000" stroke-linecap="round" stroke-linejoin="round" d="M -88.736 1031.234 Q -88.717 1031.224 -88.637 1031.180 Q -88.817 1031.142 -95.391 1037.092 Q -95.375 1037.122 -95.328 1037.135 Q -95.281 1037.148 -95.194 1037.164 "></path>
    <path id="STROKE_1a7ac765-50f3-42a8-9d79-bf6c60aea03f" opacity="1.000" fill="none" stroke="#000000" stroke-width="0.462" stroke-opacity="1.000" stroke-linecap="round" stroke-linejoin="round" d="M -89.120 1032.830 Q -89.111 1032.825 -89.059 1032.797 Q -89.086 1032.655 -90.300 1033.696 Q -91.514 1034.738 -92.427 1035.552 Q -93.339 1036.366 -93.920 1036.888 Q -94.501 1037.410 -95.559 1038.559 L -95.553 1038.570 Q -95.469 1038.562 -95.384 1038.555 "></path>
    <path id="STROKE_8c69a96a-88b7-4196-aed7-3d6e3498546b" opacity="1.000" fill="none" stroke="#000000" stroke-width="0.460" stroke-opacity="1.000" stroke-linecap="round" stroke-linejoin="round" d="M -90.069 1034.892 Q -90.401 1034.891 -91.895 1036.182 Q -93.388 1037.472 -94.337 1038.298 Q -95.286 1039.124 -95.579 1039.588 Q -95.872 1040.052 -95.889 1040.111 "></path>
    <path id="STROKE_536830c6-7ff6-472e-8701-c1807072ebf0" opacity="1.000" fill="none" stroke="#000000" stroke-width="0.461" stroke-opacity="1.000" stroke-linecap="round" stroke-linejoin="round" d="M -91.160 1036.883 Q -91.151 1036.877 -91.084 1036.841 Q -91.164 1037.001 -92.604 1038.232 Q -94.045 1039.463 -96.115 1041.204 Q -96.075 1041.231 -96.041 1041.248 "></path>
    <path id="STROKE_ed4e20de-8bdf-4c97-b439-0b9f8e090227" opacity="1.000" fill="none" stroke="#000000" stroke-width="0.461" stroke-opacity="1.000" stroke-linecap="round" stroke-linejoin="round" d="M -92.494 1038.999 Q -92.431 1038.875 -95.452 1041.710 L -95.446 1041.721 Q -95.427 1041.710 -95.364 1041.683 Q -95.301 1041.656 -95.195 1041.611 "></path>
    <path id="STROKE_06ac340c-eb69-4f3f-bd71-293eea1da9e7" opacity="1.000" fill="none" stroke="#000000" stroke-width="0.461" stroke-opacity="1.000" stroke-linecap="round" stroke-linejoin="round" d="M -93.474 1040.823 Q -93.571 1040.729 -95.172 1042.688 Q -95.161 1042.710 -95.120 1042.725 Q -95.080 1042.740 -95.014 1042.743 "></path>
    <path id="STROKE_180dae89-d929-437b-95b1-5d50ba874264" opacity="1.000" fill="none" stroke="#000000" stroke-width="0.462" stroke-opacity="1.000" stroke-linecap="round" stroke-linejoin="round" d="M -93.940 1042.260 Q -94.220 1042.267 -94.690 1043.110 Q -95.160 1043.954 -95.169 1044.008 "></path>
    <path id="STROKE_b9303851-7139-40db-8854-b661047cf0f6" opacity="1.000" fill="none" stroke="#000000" stroke-width="0.465" stroke-opacity="1.000" stroke-linecap="round" stroke-linejoin="round" d="M -172.165 1017.967 Q -172.158 1017.961 -172.109 1017.918 Q -172.184 1018.039 -172.483 1018.301 Q -172.782 1018.563 -172.798 1018.576 "></path>
    <path id="STROKE_7d2810a9-3415-447b-9610-d1585b269eda" opacity="1.000" fill="none" stroke="#000000" stroke-width="0.465" stroke-opacity="1.000" stroke-linecap="round" stroke-linejoin="round" d="M -171.984 1018.584 Q -171.933 1018.533 -172.711 1019.316 Q -172.699 1019.330 -172.662 1019.335 Q -172.625 1019.340 -172.569 1019.330 "></path>
    <path id="STROKE_4ee952f7-830b-48d7-99a9-3c07d0508f34" opacity="1.000" fill="none" stroke="#000000" stroke-width="0.475" stroke-opacity="1.000" stroke-linecap="round" stroke-linejoin="round" d="M -171.400 1018.923 Q -171.081 1018.543 -171.870 1019.398 Q -172.659 1020.254 -172.667 1020.301 "></path>
    <path id="STROKE_c00d114f-13f3-4ad1-b324-355a962314d4" opacity="1.000" fill="none" stroke="#000000" stroke-width="0.464" stroke-opacity="1.000" stroke-linecap="round" stroke-linejoin="round" d="M -170.536 1019.636 Q -170.734 1019.764 -170.711 1019.762 Q -170.924 1019.950 -170.908 1019.936 Q -171.307 1020.289 -171.212 1020.206 Q -171.460 1020.344 -171.948 1020.887 Q -172.436 1021.430 -172.441 1021.498 "></path>
    <path id="STROKE_2986fe96-82ed-407d-9115-6dd345c5074e" opacity="1.000" fill="none" stroke="#000000" stroke-width="0.464" stroke-opacity="1.000" stroke-linecap="round" stroke-linejoin="round" d="M -169.995 1020.191 Q -170.002 1020.183 -170.051 1020.127 Q -170.355 1020.372 -170.320 1020.351 Q -170.033 1019.936 -171.203 1021.179 Q -172.373 1022.423 -172.377 1022.505 "></path>
    <path id="STROKE_31a808bd-74e3-4d2f-be7b-2155fcb74a14" opacity="1.000" fill="none" stroke="#000000" stroke-width="0.457" stroke-opacity="1.000" stroke-linecap="round" stroke-linejoin="round" d="M -169.598 1020.668 Q -169.858 1020.840 -171.046 1022.194 Q -172.235 1023.548 -172.253 1023.643 "></path>
    <path id="STROKE_4b8d5ce1-86ae-440a-a0a4-d8e4b752a600" opacity="1.000" fill="none" stroke="#000000" stroke-width="0.464" stroke-opacity="1.000" stroke-linecap="round" stroke-linejoin="round" d="M -169.280 1021.349 Q -169.273 1021.343 -169.218 1021.245 Q -169.326 1021.229 -170.768 1022.733 Q -172.210 1024.236 -172.242 1024.304 "></path>
    <path id="STROKE_5b032d92-c230-43af-96ba-aff6a1d72a62" opacity="1.000" fill="none" stroke="#000000" stroke-width="0.457" stroke-opacity="1.000" stroke-linecap="round" stroke-linejoin="round" d="M -168.680 1021.853 Q -168.595 1021.544 -170.192 1023.392 Q -171.788 1025.240 -171.805 1025.294 "></path>
    <path id="STROKE_f25717fd-14f1-49ff-82b4-455cafca8efe" opacity="1.000" fill="none" stroke="#000000" stroke-width="0.464" stroke-opacity="1.000" stroke-linecap="round" stroke-linejoin="round" d="M -168.489 1022.334 Q -168.695 1022.568 -168.629 1022.497 Q -168.574 1022.414 -168.875 1022.842 Q -169.176 1023.270 -170.555 1024.708 Q -171.933 1026.146 -171.973 1026.219 "></path>
    <path id="STROKE_90b4573c-34c8-47cf-8e51-fab43489626e" opacity="1.000" fill="none" stroke="#000000" stroke-width="0.463" stroke-opacity="1.000" stroke-linecap="round" stroke-linejoin="round" d="M -167.715 1022.533 Q -167.709 1022.539 -167.690 1022.561 Q -167.639 1022.610 -168.996 1023.998 Q -170.352 1025.386 -170.995 1026.204 Q -171.637 1027.021 -171.642 1027.089 "></path>
    <path id="STROKE_653c5bfa-074c-4b9c-b011-00d0ef42b66a" opacity="1.000" fill="none" stroke="#000000" stroke-width="0.461" stroke-opacity="1.000" stroke-linecap="round" stroke-linejoin="round" d="M -167.318 1023.659 Q -167.311 1023.652 -167.200 1023.526 Q -167.206 1023.520 -167.225 1023.498 Q -167.520 1023.607 -171.516 1028.055 Q -171.502 1028.071 -171.474 1028.086 Q -171.447 1028.101 -171.400 1028.124 "></path>
    <path id="STROKE_466623d6-a655-44b7-892c-063302705100" opacity="1.000" fill="none" stroke="#000000" stroke-width="0.458" stroke-opacity="1.000" stroke-linecap="round" stroke-linejoin="round" d="M -166.423 1023.645 Q -166.430 1023.637 -166.437 1023.629 Q -166.421 1023.646 -166.495 1023.637 Q -166.569 1023.629 -171.165 1028.668 Q -171.154 1028.694 -171.108 1028.726 Q -171.061 1028.758 -171.001 1028.783 "></path>
    <path id="STROKE_83ff571e-fb1a-4489-8549-aea09bedcf52" opacity="1.000" fill="none" stroke="#000000" stroke-width="0.466" stroke-opacity="1.000" stroke-linecap="round" stroke-linejoin="round" d="M -165.972 1024.358 Q -165.977 1024.352 -166.011 1024.314 Q -166.166 1024.399 -166.797 1025.075 Q -167.427 1025.750 -168.971 1027.292 Q -170.514 1028.834 -171.834 1030.450 Q -171.789 1030.515 -171.757 1030.565 "></path>
    <path id="STROKE_6d8c9b7d-d783-4604-a35b-c5e9b7b7785f" opacity="1.000" fill="none" stroke="#000000" stroke-width="0.465" stroke-opacity="1.000" stroke-linecap="round" stroke-linejoin="round" d="M -166.158 1025.201 Q -165.978 1025.034 -167.056 1026.104 Q -168.134 1027.174 -169.681 1028.867 Q -171.228 1030.560 -171.298 1030.701 "></path>
    <path id="STROKE_d82fc17a-f5f0-4d11-bd41-027ac7662d0c" opacity="1.000" fill="none" stroke="#000000" stroke-width="0.456" stroke-opacity="1.000" stroke-linecap="round" stroke-linejoin="round" d="M -165.366 1025.071 Q -165.373 1025.063 -165.395 1025.039 Q -165.661 1025.049 -168.258 1028.075 Q -170.855 1031.101 -170.874 1031.181 "></path>
    <path id="STROKE_7bb3ce93-0832-496f-84f3-c5444dc737b3" opacity="1.000" fill="none" stroke="#000000" stroke-width="0.472" stroke-opacity="1.000" stroke-linecap="round" stroke-linejoin="round" d="M -165.247 1026.028 Q -165.185 1025.973 -165.175 1025.964 Q -165.105 1025.927 -166.381 1026.998 Q -167.656 1028.069 -169.355 1029.965 Q -171.053 1031.860 -171.043 1031.902 "></path>
    <path id="STROKE_cb10fcae-eb71-478e-9b09-2f4a977c2ec1" opacity="1.000" fill="none" stroke="#000000" stroke-width="0.462" stroke-opacity="1.000" stroke-linecap="round" stroke-linejoin="round" d="M -164.897 1026.368 Q -165.012 1026.537 -167.097 1028.490 Q -169.182 1030.444 -170.197 1031.714 Q -171.212 1032.985 -171.251 1033.070 "></path>
    <path id="STROKE_3406fae2-669a-403c-b3c6-7677c1690696" opacity="1.000" fill="none" stroke="#000000" stroke-width="0.464" stroke-opacity="1.000" stroke-linecap="round" stroke-linejoin="round" d="M -164.553 1026.841 Q -164.629 1026.891 -166.808 1029.155 Q -168.987 1031.418 -169.986 1032.769 Q -170.986 1034.119 -171.004 1034.199 "></path>
    <path id="STROKE_9ed02fad-b871-427f-8a29-f8e4c6d2f4d5" opacity="1.000" fill="none" stroke="#000000" stroke-width="0.463" stroke-opacity="1.000" stroke-linecap="round" stroke-linejoin="round" d="M -163.500 1026.658 Q -163.448 1026.571 -165.719 1028.907 Q -167.991 1031.242 -169.220 1032.904 Q -170.450 1034.565 -170.440 1034.606 "></path>
    <path id="STROKE_4a3f4ac4-adf2-43a6-9ebb-1547a2216667" opacity="1.000" fill="none" stroke="#000000" stroke-width="0.462" stroke-opacity="1.000" stroke-linecap="round" stroke-linejoin="round" d="M -164.261 1028.344 Q -164.517 1028.571 -164.489 1028.557 Q -164.590 1028.590 -170.499 1035.518 Q -170.487 1035.546 -170.453 1035.556 Q -170.420 1035.565 -170.360 1035.577 "></path>
    <path id="STROKE_fc3e34db-d058-40c6-8b08-4d157b4b5f06" opacity="1.000" fill="none" stroke="#000000" stroke-width="0.471" stroke-opacity="1.000" stroke-linecap="round" stroke-linejoin="round" d="M -167.755 1033.480 Q -168.027 1033.433 -168.947 1034.812 Q -169.868 1036.190 -169.864 1036.250 "></path>
    <path id="STROKE_79282d0c-dae6-4812-b0de-e5708895dc15" opacity="1.000" fill="none" stroke="#000000" stroke-width="0.459" stroke-opacity="1.000" stroke-linecap="round" stroke-linejoin="round" d="M -168.928 1035.815 Q -168.969 1035.604 -169.678 1036.710 Q -170.388 1037.816 -170.404 1037.898 "></path>
    <path id="STROKE_a74c0078-c3f4-4153-a7a3-f73dced7cd41" opacity="1.000" fill="none" stroke="#000000" stroke-width="0.540" stroke-opacity="1.000" stroke-linecap="round" stroke-linejoin="round" d="M -107.518 1069.848 Q -107.357 1070.030 -102.100 1069.109 Q -96.844 1068.189 -91.533 1067.774 Q -86.223 1067.359 -83.609 1067.327 Q -80.996 1067.295 -78.254 1067.250 Q -75.513 1067.205 -73.381 1067.377 Q -71.249 1067.549 -69.768 1068.120 Q -68.287 1068.691 -67.931 1068.886 "></path>
    <path id="STROKE_e4d77a33-ffce-40f8-9d16-b7499b715c0c" opacity="1.000" fill="none" stroke="#000000" stroke-width="0.514" stroke-opacity="1.000" stroke-linecap="round" stroke-linejoin="round" d="M -66.759 1071.301 Q -66.734 1071.251 -66.744 1071.199 Q -66.754 1071.147 -66.804 1070.894 Q -66.854 1070.641 -66.905 1070.482 Q -66.518 1070.529 -67.483 1075.460 Q -68.447 1080.391 -68.908 1085.757 Q -69.369 1091.124 -68.947 1095.821 Q -68.908 1095.821 -68.873 1095.821 Q -68.835 1095.836 -68.908 1095.528 Q -68.981 1095.220 -69.103 1095.009 "></path>
    <path id="STROKE_cf769059-b0f5-4ba2-810b-af667684a64d" opacity="1.000" fill="none" stroke="#000000" stroke-width="0.461" stroke-opacity="1.000" stroke-linecap="round" stroke-linejoin="round" d="M -107.192 1094.200 Q -107.441 1094.301 -104.046 1093.582 Q -100.651 1092.864 -93.469 1093.168 Q -86.287 1093.471 -81.300 1093.960 Q -76.313 1094.449 -73.865 1095.100 Q -71.418 1095.750 -71.084 1095.899 "></path>
    <path id="STROKE_ead1272f-067a-4e01-93c6-a5ed246bf415" opacity="1.000" fill="none" stroke="#000000" stroke-width="0.473" stroke-opacity="1.000" stroke-linecap="round" stroke-linejoin="round" d="M -107.079 1094.912 Q -106.963 1094.901 -107.516 1094.954 Q -107.460 1094.957 -107.215 1098.705 Q -106.969 1102.454 -106.666 1105.461 Q -106.362 1108.469 -106.263 1108.640 "></path>
    <path id="STROKE_7eab815f-a16b-4a10-89e0-dab998d8e22c" opacity="1.000" fill="none" stroke="#000000" stroke-width="0.463" stroke-opacity="1.000" stroke-linecap="round" stroke-linejoin="round" d="M -106.171 1108.792 Q -106.484 1108.778 -106.228 1108.608 Q -105.971 1108.437 -107.478 1109.396 Q -107.480 1109.377 -107.479 1109.267 Q -107.479 1109.158 -107.476 1108.958 "></path>
    <path id="STROKE_d2d6c073-d7dc-457a-a9e5-1f7593b9abd4" opacity="1.000" fill="none" stroke="#000000" stroke-width="0.461" stroke-opacity="1.000" stroke-linecap="round" stroke-linejoin="round" d="M -133.946 1099.017 Q -133.937 1098.901 -133.915 1098.734 Q -134.205 1098.679 -134.679 1099.556 Q -134.597 1099.529 -134.515 1099.502 "></path>
    <path id="STROKE_a0f90271-3e6e-4391-ba4f-fbf3eb6a736e" opacity="1.000" fill="none" stroke="#000000" stroke-width="0.461" stroke-opacity="1.000" stroke-linecap="round" stroke-linejoin="round" d="M -132.356 1098.396 Q -132.608 1098.882 -132.586 1098.805 Q -132.887 1099.191 -133.665 1100.318 Q -133.650 1100.318 -133.591 1100.291 Q -133.533 1100.264 -133.431 1100.209 "></path>
    <path id="STROKE_21b5b7d2-09d0-4ed7-9c6f-75a4d9efe031" opacity="1.000" fill="none" stroke="#000000" stroke-width="0.461" stroke-opacity="1.000" stroke-linecap="round" stroke-linejoin="round" d="M -131.030 1098.821 Q -131.222 1099.303 -131.237 1099.243 Q -131.468 1099.627 -131.440 1099.570 Q -131.356 1099.369 -131.646 1099.981 Q -131.619 1099.924 -131.592 1099.866 "></path>
    <path id="STROKE_f3de2360-5ce3-44d3-bfdd-c96929d09b23" opacity="1.000" fill="none" stroke="#000000" stroke-width="0.461" stroke-opacity="1.000" stroke-linecap="round" stroke-linejoin="round" d="M -128.621 1098.935 Q -128.588 1098.942 -129.300 1099.529 Q -129.229 1099.472 -129.159 1099.414 "></path>
    <path id="STROKE_3aadf182-34f4-47a7-8a52-fdd8c38880a4" opacity="1.000" fill="none" stroke="#000000" stroke-width="0.459" stroke-opacity="1.000" stroke-linecap="round" stroke-linejoin="round" d="M -62.303 1116.346 Q -62.300 1115.997 -62.294 1116.128 Q -62.289 1116.258 -62.310 1115.873 Q -62.332 1115.489 -61.948 1115.045 Q -61.565 1114.601 -60.984 1114.438 Q -60.402 1114.275 -59.370 1114.291 Q -58.338 1114.306 -57.581 1114.246 Q -56.824 1114.186 -56.402 1114.406 Q -55.981 1114.627 -55.917 1115.239 Q -55.854 1115.850 -55.963 1116.140 Q -56.072 1116.430 -56.244 1116.682 Q -56.416 1116.934 -56.385 1116.972 Q -56.353 1117.011 -57.323 1117.877 Q -58.292 1118.743 -58.807 1119.132 Q -59.323 1119.520 -59.379 1119.865 Q -59.435 1120.209 -59.245 1120.963 Q -59.055 1121.717 -59.009 1121.792 "></path>
    <path id="STROKE_35c8f3f5-e3eb-4029-89b4-645187babf2c" opacity="1.000" fill="none" stroke="#000000" stroke-width="0.479" stroke-opacity="1.000" stroke-linecap="round" stroke-linejoin="round" d="M -58.170 1126.519 Q -58.162 1126.656 -58.203 1125.950 Q -58.203 1125.978 -58.203 1126.128 Q -58.225 1126.285 -58.282 1125.998 Q -58.338 1125.711 -58.384 1125.593 "></path>
  </g>
</svg>