<?xml version="1.0" encoding="UTF-8" standalone="yes"?>
<svg xmlns="http://www.w3.org/2000/svg" xmlns:xlink="http://www.w3.org/1999/xlink" width="51.852448pt" height="93.164673pt" version="1.1" viewBox="-355.960175 1200.727783 51.852448 93.164795">
  <!--
	Exported with Concepts: Smarter Sketching
	Version: 864 on iOS 13.5
	https://concepts.app/
	-->
  <title>Untitled 7</title>
  <desc>Drawing exported from Concepts: Smarter Sketching</desc>
  <g id="Pen" opacity="1.000">
    <path id="STROKE_4e884ec0-6a30-4a12-a711-ed3fca7c355f" opacity="1.000" fill="none" stroke="#000000" stroke-width="0.464" stroke-opacity="1.000" stroke-linecap="round" stroke-linejoin="round" d="M -349.204 1215.167 Q -349.460 1216.013 -349.400 1215.746 Q -349.814 1216.171 -349.714 1216.057 Q -349.641 1215.988 -350.313 1216.697 Q -350.985 1217.406 -351.130 1218.039 Q -351.276 1218.672 -351.282 1218.984 Q -351.288 1219.296 -351.289 1219.524 Q -351.291 1219.751 -351.290 1219.709 Q -351.289 1219.668 -351.290 1219.707 Q -351.290 1219.745 -351.290 1219.964 Q -351.290 1220.184 -351.290 1220.260 Q -351.290 1220.336 -351.290 1220.286 Q -351.290 1220.237 -351.290 1220.826 Q -351.291 1221.416 -351.291 1221.808 Q -351.292 1222.200 -351.292 1222.404 Q -351.292 1222.607 -351.294 1222.586 Q -351.296 1222.564 -351.269 1222.544 Q -351.241 1222.523 -351.357 1222.800 Q -351.472 1223.076 -351.554 1223.177 "></path>
    <path id="STROKE_a28638b3-a9b4-482a-9942-45957bd91d5f" opacity="1.000" fill="none" stroke="#000000" stroke-width="0.470" stroke-opacity="1.000" stroke-linecap="round" stroke-linejoin="round" d="M -351.581 1222.878 Q -351.581 1222.863 -351.581 1222.808 Q -351.568 1222.808 -351.518 1222.808 Q -351.550 1223.163 -351.618 1223.092 Q -351.820 1223.202 -352.455 1223.668 Q -353.090 1224.135 -353.385 1224.486 Q -353.680 1224.838 -353.695 1224.987 Q -353.710 1225.136 -353.682 1225.391 Q -353.655 1225.645 -353.740 1225.592 Q -353.825 1225.539 -353.493 1226.818 Q -353.161 1228.098 -352.908 1228.765 Q -352.654 1229.432 -352.434 1229.828 Q -352.215 1230.224 -352.183 1230.291 "></path>
    <path id="STROKE_1669f27e-b4a1-49c1-bc9e-754cc33445ed" opacity="1.000" fill="none" stroke="#000000" stroke-width="0.502" stroke-opacity="1.000" stroke-linecap="round" stroke-linejoin="round" d="M -351.554 1230.787 Q -351.554 1230.803 -351.536 1230.889 Q -351.679 1230.680 -349.289 1230.966 Q -346.899 1231.252 -346.753 1231.316 "></path>
    <path id="STROKE_55ccb9a3-efaa-42f6-a036-dae82a7569cd" opacity="1.000" fill="none" stroke="#000000" stroke-width="0.459" stroke-opacity="1.000" stroke-linecap="round" stroke-linejoin="round" d="M -348.375 1220.893 Q -347.870 1220.673 -347.910 1220.712 Q -347.472 1220.622 -347.496 1220.642 Q -346.778 1220.621 -346.824 1220.627 Q -346.870 1220.633 -346.597 1220.727 Q -346.324 1220.821 -346.429 1220.767 Q -346.533 1220.713 -346.247 1220.938 Q -345.960 1221.162 -345.617 1221.424 Q -345.275 1221.686 -345.066 1221.920 Q -344.857 1222.153 -344.851 1222.374 Q -344.845 1222.595 -344.795 1222.713 "></path>
    <path id="STROKE_11030954-6672-448a-a65d-5bedd5945d50" opacity="1.000" fill="none" stroke="#000000" stroke-width="0.459" stroke-opacity="1.000" stroke-linecap="round" stroke-linejoin="round" d="M -347.610 1220.925 Q -348.123 1220.930 -347.960 1220.941 Q -348.341 1220.593 -348.088 1224.250 Q -348.195 1224.286 -347.424 1224.203 Q -346.654 1224.121 -346.329 1223.735 Q -346.005 1223.348 -345.749 1223.037 Q -345.494 1222.726 -345.531 1222.469 Q -345.567 1222.213 -345.591 1221.810 Q -345.615 1221.406 -346.152 1220.696 Q -346.152 1220.712 -346.170 1220.761 Q -346.189 1220.810 -346.225 1220.893 "></path>
    <path id="STROKE_f2f2b504-f46e-4569-bb4e-103bdc774af1" opacity="1.000" fill="none" stroke="#000000" stroke-width="0.458" stroke-opacity="1.000" stroke-linecap="round" stroke-linejoin="round" d="M -347.081 1221.122 Q -347.081 1221.106 -347.081 1220.760 Q -347.063 1221.046 -348.138 1222.713 Q -348.204 1222.792 -346.152 1221.154 Q -346.146 1221.588 -347.446 1223.107 Q -347.262 1222.724 -345.888 1222.083 Q -345.923 1221.969 -345.880 1222.340 Q -345.838 1222.710 -345.788 1222.777 "></path>
    <path id="STROKE_e3597660-a79a-4d20-8286-60dc58613632" opacity="1.000" fill="none" stroke="#000000" stroke-width="0.464" stroke-opacity="1.000" stroke-linecap="round" stroke-linejoin="round" d="M -335.230 1213.741 Q -335.235 1213.500 -335.262 1213.645 Q -335.289 1213.790 -335.157 1213.411 Q -335.026 1213.031 -335.646 1212.255 Q -336.265 1211.480 -336.794 1210.852 Q -337.322 1210.225 -337.567 1209.897 Q -337.812 1209.569 -337.962 1209.330 Q -338.112 1209.091 -338.115 1209.107 Q -338.119 1209.123 -338.115 1209.115 Q -338.111 1209.107 -338.329 1208.835 Q -338.547 1208.564 -338.476 1208.657 Q -338.406 1208.750 -338.560 1208.573 Q -338.714 1208.396 -338.845 1208.250 Q -338.975 1208.103 -338.948 1208.130 Q -338.920 1208.156 -339.049 1208.018 Q -339.179 1207.881 -340.246 1206.777 Q -341.313 1205.674 -342.020 1204.727 Q -342.727 1203.780 -342.909 1203.548 "></path>
    <path id="STROKE_b2d098b7-8295-4a46-98a3-103503603ac2" opacity="1.000" fill="none" stroke="#000000" stroke-width="0.462" stroke-opacity="1.000" stroke-linecap="round" stroke-linejoin="round" d="M -342.873 1204.273 Q -342.638 1204.961 -342.631 1204.887 Q -341.958 1204.706 -340.796 1210.448 Q -339.634 1216.191 -339.602 1216.223 "></path>
    <path id="STROKE_14ab4de2-5c9a-4fd0-8a77-233051aa4b4b" opacity="1.000" fill="none" stroke="#000000" stroke-width="0.462" stroke-opacity="1.000" stroke-linecap="round" stroke-linejoin="round" d="M -343.146 1203.083 Q -343.146 1203.067 -343.192 1202.950 Q -343.210 1202.950 -343.237 1202.950 Q -342.888 1202.557 -343.081 1207.718 Q -343.274 1212.879 -343.237 1212.946 "></path>
    <path id="STROKE_50fdaeb1-5173-42d3-9742-59fd245388ba" opacity="1.000" fill="none" stroke="#000000" stroke-width="0.456" stroke-opacity="1.000" stroke-linecap="round" stroke-linejoin="round" d="M -342.909 1208.282 Q -342.846 1208.547 -341.589 1210.938 Q -340.331 1213.328 -340.331 1213.379 "></path>
    <path id="STROKE_c957edbb-6980-42bd-8109-1d41402899ae" opacity="1.000" fill="none" stroke="#000000" stroke-width="0.456" stroke-opacity="1.000" stroke-linecap="round" stroke-linejoin="round" d="M -342.080 1211.228 Q -341.849 1211.635 -341.147 1212.556 Q -340.445 1213.477 -340.395 1213.576 "></path>
    <circle id="STROKE_24ff20fc-c0c7-4dde-a29d-2215d4f56110" opacity="1.000" fill="#000000" stroke="#000000" stroke-width="0.1" stroke-opacity="1.000" fill-opacity="1.000" cx="-341.023" cy="1214.174" r="0.261"></circle>
    <path id="STROKE_f0b68b29-a9e8-47f1-9b3c-3dd4aebc1d82" opacity="1.000" fill="none" stroke="#000000" stroke-width="0.461" stroke-opacity="1.000" stroke-linecap="round" stroke-linejoin="round" d="M -341.452 1213.309 Q -341.431 1213.718 -341.388 1213.643 Q -341.364 1213.664 -341.235 1213.860 Q -341.105 1214.056 -341.023 1214.174 "></path>
    <path id="STROKE_d4eb880a-27a9-4e0b-aad8-31441920b326" opacity="1.000" fill="none" stroke="#000000" stroke-width="0.463" stroke-opacity="1.000" stroke-linecap="round" stroke-linejoin="round" d="M -349.067 1215.167 Q -349.054 1215.167 -349.040 1215.167 Q -349.363 1215.054 -349.363 1215.049 Q -349.239 1215.111 -350.397 1214.686 Q -350.397 1214.654 -350.424 1214.537 Q -349.724 1214.537 -349.946 1214.537 Q -349.085 1214.524 -349.331 1214.521 Q -349.580 1214.558 -348.547 1214.447 Q -347.514 1214.336 -347.446 1214.238 "></path>
    <path id="STROKE_bdbdde54-797d-443b-93a8-f18effd9a7c6" opacity="1.000" fill="none" stroke="#000000" stroke-width="0.469" stroke-opacity="1.000" stroke-linecap="round" stroke-linejoin="round" d="M -347.947 1214.174 Q -347.947 1214.294 -347.947 1213.843 Q -347.928 1213.843 -347.910 1213.811 Q -347.881 1213.753 -347.846 1213.576 Q -347.341 1213.523 -347.459 1213.544 Q -347.262 1213.603 -346.690 1213.526 Q -346.118 1213.448 -345.668 1213.347 Q -345.219 1213.246 -345.089 1213.245 Q -344.960 1213.244 -344.954 1213.248 Q -344.948 1213.251 -345.028 1213.237 Q -345.108 1213.223 -344.888 1213.260 Q -344.667 1213.296 -344.567 1213.347 "></path>
    <path id="STROKE_82c8bdd6-3747-4871-8887-884afa98310f" opacity="1.000" fill="none" stroke="#000000" stroke-width="0.465" stroke-opacity="1.000" stroke-linecap="round" stroke-linejoin="round" d="M -349.331 1206.131 Q -349.290 1206.165 -346.307 1208.713 Q -343.324 1211.260 -343.237 1211.323 "></path>
    <path id="STROKE_7fd1605c-9f11-4935-b327-2167ddaf145d" opacity="1.000" fill="none" stroke="#000000" stroke-width="0.464" stroke-opacity="1.000" stroke-linecap="round" stroke-linejoin="round" d="M -349.368 1206.258 Q -349.368 1206.243 -349.368 1205.928 Q -349.615 1206.083 -348.797 1209.623 Q -347.979 1213.162 -347.947 1213.245 "></path>
    <path id="STROKE_1646e464-16a4-49c6-8374-e5d6d4cbbe2e" opacity="1.000" fill="none" stroke="#000000" stroke-width="0.464" stroke-opacity="1.000" stroke-linecap="round" stroke-linejoin="round" d="M -348.603 1207.716 Q -348.211 1208.167 -348.288 1208.129 Q -347.983 1208.306 -345.542 1213.639 Q -345.510 1213.639 -345.478 1213.639 Q -345.446 1213.639 -345.396 1213.639 "></path>
    <path id="STROKE_c1b6193e-706b-45bb-95b2-03f6cdb18bf1" opacity="1.000" fill="none" stroke="#000000" stroke-width="0.462" stroke-opacity="1.000" stroke-linecap="round" stroke-linejoin="round" d="M -334.993 1212.685 Q -335.107 1213.432 -335.048 1213.178 Q -334.741 1213.664 -334.834 1213.509 Q -334.295 1213.728 -334.483 1213.639 Q -333.774 1213.055 -333.908 1213.177 Q -334.043 1213.298 -334.018 1213.271 Q -333.992 1213.242 -333.978 1213.241 Q -333.964 1213.240 -333.936 1213.245 Q -333.905 1213.779 -333.891 1213.674 Q -333.847 1213.835 -333.807 1213.979 Q -333.768 1214.124 -333.751 1214.207 Q -333.734 1214.291 -333.684 1214.429 Q -333.634 1214.567 -333.539 1214.888 Q -333.445 1215.210 -333.440 1215.438 Q -333.435 1215.667 -333.378 1215.706 Q -333.321 1215.746 -333.271 1215.796 "></path>
    <path id="STROKE_7ce71ce7-7817-44ba-9b43-aac517ef63d5" opacity="1.000" fill="none" stroke="#000000" stroke-width="0.461" stroke-opacity="1.000" stroke-linecap="round" stroke-linejoin="round" d="M -332.615 1215.427 Q -332.615 1215.411 -332.629 1215.364 L -332.643 1215.364 Q -332.643 1215.348 -332.716 1215.332 Q -332.716 1215.316 -332.743 1215.167 Q -332.761 1215.167 -332.843 1215.135 Q -332.819 1215.606 -332.766 1215.596 Q -331.636 1217.202 -328.835 1225.093 Q -328.885 1225.045 -329.063 1224.872 Q -329.240 1224.698 -329.372 1224.565 "></path>
    <path id="STROKE_85f10ec4-4420-4a0f-b727-00aba0c02d7d" opacity="1.000" fill="none" stroke="#000000" stroke-width="0.462" stroke-opacity="1.000" stroke-linecap="round" stroke-linejoin="round" d="M -353.112 1224.730 Q -353.112 1224.714 -353.112 1224.666 Q -352.829 1225.153 -352.907 1224.981 Q -352.651 1225.172 -352.553 1225.445 Q -352.455 1225.719 -352.731 1226.044 Q -353.007 1226.368 -353.075 1226.416 "></path>
    <path id="STROKE_151d69ce-c0cd-4728-b097-43f274b79b47" opacity="1.000" fill="none" stroke="#000000" stroke-width="0.455" stroke-opacity="1.000" stroke-linecap="round" stroke-linejoin="round" d="M -350.689 1228.700 Q -350.800 1228.718 -349.503 1228.695 Q -348.206 1228.672 -348.074 1228.605 "></path>
    <path id="STROKE_5da4b04a-4d62-4687-90a3-fdfd5fe1fc7b" opacity="1.000" fill="none" stroke="#000000" stroke-width="0.467" stroke-opacity="1.000" stroke-linecap="round" stroke-linejoin="round" d="M -338.245 1229.693 Q -338.183 1229.619 -338.065 1229.890 Q -337.948 1230.162 -337.617 1231.087 Q -338.048 1231.058 -337.926 1231.004 Q -338.167 1230.752 -338.159 1230.772 Q -338.731 1230.626 -338.523 1230.686 Q -338.537 1230.686 -338.573 1230.756 Q -338.591 1230.756 -338.609 1230.756 Q -338.731 1231.078 -338.723 1231.020 Q -338.737 1231.071 -338.801 1231.118 Q -338.901 1231.071 -339.001 1231.023 "></path>
    <path id="STROKE_b7d437c2-d75d-46f1-874a-0e61f0672b8d" opacity="1.000" fill="none" stroke="#000000" stroke-width="0.464" stroke-opacity="1.000" stroke-linecap="round" stroke-linejoin="round" d="M -343.602 1243.202 Q -343.602 1243.735 -343.602 1243.631 Q -343.571 1244.216 -343.556 1244.159 Q -343.480 1244.195 -343.131 1246.648 Q -342.782 1249.101 -342.377 1251.064 Q -341.973 1253.027 -341.895 1254.219 Q -341.818 1255.411 -341.719 1256.859 Q -341.620 1258.307 -341.588 1258.390 "></path>
    <path id="STROKE_22b47ea0-d737-44b0-bdfe-7e0f0be33e89" opacity="1.000" fill="none" stroke="#000000" stroke-width="0.460" stroke-opacity="1.000" stroke-linecap="round" stroke-linejoin="round" d="M -329.536 1224.864 Q -329.696 1225.231 -328.543 1229.598 Q -328.834 1229.729 -328.878 1229.421 Q -328.922 1229.114 -329.008 1229.031 "></path>
    <path id="STROKE_b66b980e-3df8-419f-8ef6-502fa33ad1d9" opacity="1.000" fill="none" stroke="#000000" stroke-width="0.466" stroke-opacity="1.000" stroke-linecap="round" stroke-linejoin="round" d="M -327.842 1231.055 Q -327.880 1231.193 -328.293 1229.661 Q -328.307 1229.661 -328.407 1229.661 Q -328.407 1229.870 -327.834 1231.627 Q -327.261 1233.383 -326.789 1234.351 Q -326.317 1235.319 -326.022 1235.710 Q -325.726 1236.102 -325.518 1236.192 Q -325.310 1236.282 -325.228 1236.380 "></path>
    <path id="STROKE_4a6fce56-8ebf-4cc7-8773-cb8495d6940a" opacity="1.000" fill="none" stroke="#000000" stroke-width="0.462" stroke-opacity="1.000" stroke-linecap="round" stroke-linejoin="round" d="M -325.829 1236.081 Q -325.776 1236.170 -325.875 1236.094 Q -325.975 1236.018 -324.482 1238.488 Q -322.989 1240.958 -321.191 1243.895 Q -319.392 1246.832 -318.021 1248.785 Q -316.651 1250.737 -315.673 1251.937 Q -314.695 1253.136 -313.753 1254.916 Q -312.811 1256.696 -312.228 1258.800 Q -311.644 1260.904 -311.477 1262.473 Q -311.310 1264.042 -311.490 1266.840 Q -311.669 1269.638 -312.377 1272.309 Q -313.085 1274.981 -313.843 1276.079 Q -314.601 1277.176 -314.733 1277.294 "></path>
    <path id="STROKE_1ed3d6c0-3712-4596-83a8-0ed31808b21a" opacity="1.000" fill="none" stroke="#000000" stroke-width="0.463" stroke-opacity="1.000" stroke-linecap="round" stroke-linejoin="round" d="M -312.019 1273.190 Q -311.919 1273.384 -312.283 1272.859 Q -312.199 1273.077 -312.145 1273.100 Q -312.092 1273.124 -312.140 1273.089 Q -312.189 1273.055 -311.808 1273.293 Q -311.427 1273.531 -309.869 1273.852 Q -309.800 1273.866 -310.033 1277.491 Q -310.015 1277.491 -309.942 1277.466 Q -309.869 1277.440 -309.805 1277.389 "></path>
    <path id="STROKE_1972eb72-8870-43fd-9f60-c343e1e69532" opacity="1.000" fill="none" stroke="#000000" stroke-width="0.462" stroke-opacity="1.000" stroke-linecap="round" stroke-linejoin="round" d="M -314.406 1276.931 Q -314.387 1276.931 -314.342 1276.931 Q -314.282 1276.435 -315.295 1277.649 Q -316.309 1278.862 -317.695 1279.915 Q -319.081 1280.968 -320.799 1281.266 Q -322.518 1281.563 -322.650 1281.595 "></path>
    <path id="STROKE_8ec4a25d-92c5-41a3-9612-27d2f72b7837" opacity="1.000" fill="none" stroke="#000000" stroke-width="0.462" stroke-opacity="1.000" stroke-linecap="round" stroke-linejoin="round" d="M -321.557 1281.824 Q -321.824 1281.880 -322.750 1282.092 Q -322.750 1281.937 -322.750 1282.454 Q -322.851 1282.384 -325.016 1282.909 Q -327.182 1283.434 -327.314 1283.485 "></path>
    <path id="STROKE_3cc27d1d-d4ce-4604-88a4-8df19e22d859" opacity="1.000" fill="none" stroke="#000000" stroke-width="0.465" stroke-opacity="1.000" stroke-linecap="round" stroke-linejoin="round" d="M -325.127 1282.951 Q -324.605 1283.070 -327.852 1283.299 Q -331.100 1283.528 -333.220 1283.486 Q -335.340 1283.444 -336.763 1283.298 Q -338.186 1283.153 -341.716 1281.713 Q -341.995 1281.314 -341.998 1281.347 Q -342.026 1281.114 -343.046 1281.163 Q -343.127 1281.849 -343.110 1281.627 Q -343.361 1282.108 -343.274 1281.926 Q -343.292 1281.926 -343.310 1281.926 Q -343.310 1281.942 -343.310 1281.958 Q -343.324 1281.958 -343.337 1281.958 Q -343.530 1281.985 -344.021 1283.997 Q -344.047 1284.007 -343.544 1284.316 Q -343.041 1284.624 -342.909 1284.771 "></path>
    <path id="STROKE_eb477626-a861-49ed-8940-0032b6ed9626" opacity="1.000" fill="none" stroke="#000000" stroke-width="0.463" stroke-opacity="1.000" stroke-linecap="round" stroke-linejoin="round" d="M -342.609 1284.840 Q -342.585 1285.334 -342.579 1285.157 Q -342.573 1284.980 -342.661 1285.332 Q -342.749 1285.684 -342.234 1286.210 Q -341.719 1286.736 -341.384 1286.972 Q -341.050 1287.208 -340.775 1287.424 Q -340.500 1287.641 -340.504 1287.632 Q -340.508 1287.623 -340.455 1287.640 Q -340.403 1287.658 -340.494 1287.680 Q -340.586 1287.703 -339.874 1287.865 Q -339.163 1288.028 -338.859 1288.014 Q -338.555 1288.001 -338.205 1288.063 Q -337.854 1288.125 -337.371 1288.265 Q -336.888 1288.405 -336.141 1288.608 Q -335.394 1288.811 -335.193 1288.875 "></path>
    <path id="STROKE_6ae52397-cdd1-40d5-83b3-6c0aa469f364" opacity="1.000" fill="none" stroke="#000000" stroke-width="0.479" stroke-opacity="1.000" stroke-linecap="round" stroke-linejoin="round" d="M -334.173 1289.110 Q -334.205 1289.094 -334.501 1288.677 Q -333.618 1288.677 -333.873 1288.677 Q -332.707 1288.313 -327.016 1287.892 Q -321.324 1287.471 -320.892 1287.322 "></path>
    <path id="STROKE_61e16648-6f1f-497e-b843-3bde36d22c86" opacity="1.000" fill="none" stroke="#000000" stroke-width="0.462" stroke-opacity="1.000" stroke-linecap="round" stroke-linejoin="round" d="M -309.896 1277.389 Q -309.915 1277.389 -310.133 1277.507 Q -310.222 1277.583 -310.160 1277.500 Q -310.097 1277.417 -310.378 1279.136 Q -310.659 1280.856 -313.162 1284.312 Q -313.185 1284.199 -313.176 1283.415 Q -313.725 1283.415 -313.545 1283.415 Q -313.166 1282.881 -317.184 1285.833 Q -317.216 1285.798 -317.248 1285.763 "></path>
    <path id="STROKE_a0d3f1be-1eac-44bc-95c1-c6d565a12902" opacity="1.000" fill="none" stroke="#000000" stroke-width="0.462" stroke-opacity="1.000" stroke-linecap="round" stroke-linejoin="round" d="M -316.656 1285.400 Q -317.153 1285.567 -317.034 1285.502 Q -316.961 1285.196 -318.109 1285.895 Q -319.257 1286.594 -320.083 1287.120 Q -320.909 1287.645 -321.321 1287.615 Q -321.734 1287.586 -321.784 1287.551 "></path>
    <path id="STROKE_a4f82b3a-4c6b-4026-aa9f-e57aefedb5f1" opacity="1.000" fill="none" stroke="#000000" stroke-width="0.465" stroke-opacity="1.000" stroke-linecap="round" stroke-linejoin="round" d="M -328.607 1252.701 Q -328.593 1252.790 -328.657 1252.320 Q -329.330 1252.287 -329.154 1252.301 Q -329.786 1252.316 -329.714 1252.351 Q -330.096 1252.526 -332.002 1253.933 Q -333.907 1255.339 -334.676 1256.287 Q -335.444 1257.235 -335.530 1257.365 "></path>
    <path id="STROKE_12aefe77-4a82-4bfc-87ad-e43f1d84c015" opacity="1.000" fill="none" stroke="#000000" stroke-width="0.465" stroke-opacity="1.000" stroke-linecap="round" stroke-linejoin="round" d="M -335.294 1257.601 Q -335.537 1257.634 -335.461 1257.590 Q -335.385 1257.547 -335.403 1257.540 Q -335.421 1257.533 -335.698 1257.692 Q -335.974 1257.851 -336.020 1257.919 Q -336.066 1257.986 -339.202 1262.729 Q -339.162 1262.678 -338.436 1261.966 Q -338.263 1261.663 -338.579 1262.405 Q -338.895 1263.146 -339.027 1263.790 Q -339.160 1264.434 -339.203 1264.603 Q -339.246 1264.772 -339.233 1265.415 Q -339.220 1266.057 -339.202 1266.140 "></path>
    <path id="STROKE_9a1c7401-739a-4849-95e0-ed0bf3e52475" opacity="1.000" fill="none" stroke="#000000" stroke-width="0.465" stroke-opacity="1.000" stroke-linecap="round" stroke-linejoin="round" d="M -339.001 1267.629 Q -339.001 1267.827 -339.001 1267.266 Q -339.019 1267.266 -339.038 1267.266 Q -339.067 1267.461 -339.096 1268.143 Q -339.125 1268.824 -339.129 1269.238 Q -339.132 1269.653 -339.167 1270.383 Q -339.202 1271.112 -338.762 1272.348 Q -338.323 1273.584 -338.272 1273.750 "></path>
    <path id="STROKE_1894d515-a947-41bb-85d3-25454e0cf548" opacity="1.000" fill="none" stroke="#000000" stroke-width="0.465" stroke-opacity="1.000" stroke-linecap="round" stroke-linejoin="round" d="M -337.516 1273.686 Q -337.458 1274.121 -337.412 1274.084 Q -337.573 1274.090 -336.096 1275.750 Q -334.620 1277.409 -334.538 1277.523 "></path>
    <path id="STROKE_f0a40929-a50a-49fb-ace6-637c128357d8" opacity="1.000" fill="none" stroke="#000000" stroke-width="0.464" stroke-opacity="1.000" stroke-linecap="round" stroke-linejoin="round" d="M -334.629 1277.523 Q -334.629 1277.507 -334.629 1277.389 Q -335.296 1277.389 -335.061 1277.389 Q -335.544 1277.389 -335.576 1277.389 Q -335.608 1277.389 -335.544 1277.389 Q -336.265 1277.389 -336.036 1277.389 Q -336.793 1277.389 -336.574 1277.389 Q -337.265 1277.389 -337.020 1277.389 Q -337.065 1277.389 -337.152 1277.428 Q -337.582 1277.743 -337.547 1279.198 Q -337.512 1280.654 -337.443 1280.736 "></path>
    <path id="STROKE_f38be4fe-762a-42e9-a65c-636374737fb3" opacity="1.000" fill="none" stroke="#000000" stroke-width="0.463" stroke-opacity="1.000" stroke-linecap="round" stroke-linejoin="round" d="M -337.844 1280.539 Q -337.820 1280.746 -337.860 1280.621 Q -337.900 1280.497 -337.745 1280.919 Q -337.589 1281.342 -337.522 1281.468 Q -337.454 1281.593 -337.251 1281.924 Q -337.048 1282.256 -337.065 1282.209 Q -337.178 1282.223 -336.788 1282.225 Q -336.788 1282.241 -336.769 1282.283 Q -336.751 1282.324 -336.715 1282.391 "></path>
    <path id="STROKE_6786bcfe-7f89-4b07-bb64-9520eaa0a897" opacity="1.000" fill="none" stroke="#000000" stroke-width="0.502" stroke-opacity="1.000" stroke-linecap="round" stroke-linejoin="round" d="M -336.952 1282.359 Q -336.553 1282.295 -330.362 1282.382 Q -324.171 1282.470 -323.843 1282.454 "></path>
    <path id="STROKE_106264d4-dd04-4315-be20-c785055594a4" opacity="1.000" fill="none" stroke="#000000" stroke-width="0.463" stroke-opacity="1.000" stroke-linecap="round" stroke-linejoin="round" d="M -336.186 1279.445 Q -336.728 1279.451 -336.574 1279.461 Q -336.426 1279.288 -336.837 1279.714 Q -337.249 1280.139 -337.537 1280.751 Q -337.826 1281.363 -337.908 1281.462 "></path>
    <path id="STROKE_bc0247f2-a84c-4a39-b38e-af0438c766bb" opacity="1.000" fill="none" stroke="#000000" stroke-width="0.462" stroke-opacity="1.000" stroke-linecap="round" stroke-linejoin="round" d="M -333.836 1277.956 Q -333.955 1277.714 -333.590 1279.279 Q -333.558 1279.279 -333.517 1279.287 Q -333.476 1279.295 -333.408 1279.311 "></path>
    <path id="STROKE_2fe91232-fc61-4d41-8838-0d1cec013e48" opacity="1.000" fill="none" stroke="#000000" stroke-width="0.461" stroke-opacity="1.000" stroke-linecap="round" stroke-linejoin="round" d="M -332.779 1279.610 Q -333.037 1279.610 -333.025 1279.610 Q -333.062 1279.610 -333.107 1279.610 Q -333.107 1279.594 -333.107 1279.578 Q -333.339 1279.484 -331.718 1279.695 Q -330.097 1279.906 -329.965 1279.973 "></path>
    <path id="STROKE_3564d9f8-4d99-409c-8fc2-f09d545372e1" opacity="1.000" fill="none" stroke="#000000" stroke-width="0.462" stroke-opacity="1.000" stroke-linecap="round" stroke-linejoin="round" d="M -341.625 1257.485 Q -341.625 1257.855 -341.625 1257.818 Q -341.625 1258.222 -341.625 1258.198 Q -341.625 1258.935 -341.625 1258.797 Q -341.320 1258.591 -341.721 1267.594 Q -342.122 1276.595 -342.139 1276.656 "></path>
    <path id="STROKE_ae9397f1-b44d-47b0-9ff7-298a08396a90" opacity="1.000" fill="none" stroke="#000000" stroke-width="0.471" stroke-opacity="1.000" stroke-linecap="round" stroke-linejoin="round" d="M -342.587 1275.903 Q -342.686 1275.823 -342.543 1276.119 Q -342.401 1276.414 -342.970 1276.989 Q -343.538 1277.565 -343.839 1277.699 Q -344.141 1277.833 -344.440 1278.010 Q -344.739 1278.188 -344.719 1278.180 Q -344.699 1278.172 -344.729 1278.183 Q -344.759 1278.193 -344.766 1278.229 Q -344.772 1278.266 -344.852 1278.767 Q -344.931 1279.268 -344.649 1279.997 Q -344.366 1280.726 -344.337 1280.787 "></path>
    <path id="STROKE_62c0e557-525d-4c7d-a888-b7c99c3bbce6" opacity="1.000" fill="none" stroke="#000000" stroke-width="0.480" stroke-opacity="1.000" stroke-linecap="round" stroke-linejoin="round" d="M -343.732 1280.996 Q -344.257 1281.083 -344.159 1281.054 Q -344.204 1281.054 -344.304 1281.054 Q -344.668 1280.896 -343.816 1281.104 Q -342.964 1281.312 -342.919 1281.326 "></path>
    <path id="STROKE_13b41840-3536-4ae9-9077-ed6122b39560" opacity="1.000" fill="none" stroke="#000000" stroke-width="0.466" stroke-opacity="1.000" stroke-linecap="round" stroke-linejoin="round" d="M -340.779 1281.506 Q -341.033 1281.503 -341.202 1281.297 Q -341.336 1281.589 -339.882 1281.224 Q -338.427 1280.860 -338.307 1280.903 "></path>
    <path id="STROKE_56e9f171-4b83-44e0-8d58-54ce63b2346d" opacity="1.000" fill="none" stroke="#000000" stroke-width="0.474" stroke-opacity="1.000" stroke-linecap="round" stroke-linejoin="round" d="M -333.181 1252.995 Q -333.046 1252.702 -333.400 1254.153 Q -333.753 1255.605 -333.844 1255.741 "></path>
    <path id="STROKE_f8142fb2-7ed2-4091-83ae-e609542e26fa" opacity="1.000" fill="none" stroke="#000000" stroke-width="0.466" stroke-opacity="1.000" stroke-linecap="round" stroke-linejoin="round" d="M -346.361 1242.659 Q -346.354 1242.655 -346.326 1242.927 Q -346.299 1243.199 -346.221 1243.882 Q -346.143 1244.565 -345.871 1246.037 Q -345.917 1246.051 -345.963 1246.066 "></path>
    <path id="STROKE_ad5ab99e-398e-4cc4-9751-b38d87e01db6" opacity="1.000" fill="none" stroke="#000000" stroke-width="0.466" stroke-opacity="1.000" stroke-linecap="round" stroke-linejoin="round" d="M -346.054 1246.309 Q -346.054 1246.292 -346.029 1246.037 Q -346.013 1246.037 -345.950 1246.037 Q -345.773 1246.458 -345.733 1246.525 Q -345.693 1246.593 -345.701 1246.571 Q -345.710 1246.549 -345.664 1246.610 "></path>
    <path id="STROKE_e33619f0-c224-4a0b-9c5d-bbcb5d578b0b" opacity="1.000" fill="none" stroke="#000000" stroke-width="0.465" stroke-opacity="1.000" stroke-linecap="round" stroke-linejoin="round" d="M -345.697 1246.274 Q -345.681 1246.274 -345.631 1246.274 Q -345.613 1246.082 -344.899 1250.721 Q -344.185 1255.359 -343.598 1258.805 Q -343.010 1262.250 -342.952 1262.311 "></path>
    <path id="STROKE_6e5b4463-0531-442e-b100-54db83f0431d" opacity="1.000" fill="none" stroke="#000000" stroke-width="0.466" stroke-opacity="1.000" stroke-linecap="round" stroke-linejoin="round" d="M -343.856 1259.148 Q -343.839 1259.148 -343.719 1259.177 Q -343.676 1259.494 -343.673 1259.446 Q -343.260 1259.300 -342.906 1272.073 Q -342.894 1272.073 -342.861 1272.059 Q -342.861 1271.984 -342.838 1271.885 Q -342.815 1271.787 -342.769 1271.651 "></path>
    <path id="STROKE_f6b32fef-6e2a-4fc9-9b23-d2f831581621" opacity="1.000" fill="none" stroke="#000000" stroke-width="0.459" stroke-opacity="1.000" stroke-linecap="round" stroke-linejoin="round" d="M -343.192 1271.413 Q -343.192 1271.398 -343.192 1271.349 Q -343.209 1271.349 -343.226 1271.349 Q -343.275 1271.126 -343.068 1275.150 Q -343.068 1275.118 -343.053 1275.050 Q -343.039 1274.982 -343.010 1274.878 "></path>
    <path id="STROKE_d95fc2e1-bc4a-4fbb-acca-cec6b4a6069f" opacity="1.000" fill="none" stroke="#000000" stroke-width="0.466" stroke-opacity="1.000" stroke-linecap="round" stroke-linejoin="round" d="M -343.101 1275.121 Q -343.303 1275.714 -343.255 1275.495 Q -343.582 1275.779 -343.524 1275.735 Q -343.795 1276.041 -343.765 1276.007 Q -344.202 1276.688 -344.129 1276.567 Q -344.057 1276.447 -344.142 1276.604 Q -344.227 1276.760 -344.377 1276.847 Q -344.526 1276.933 -344.731 1276.961 Q -344.936 1276.988 -345.131 1277.161 Q -345.327 1277.333 -345.207 1277.238 Q -345.088 1277.143 -345.218 1277.296 Q -345.347 1277.449 -345.460 1277.508 Q -345.573 1277.567 -345.601 1277.590 Q -345.630 1277.613 -345.683 1277.985 Q -345.735 1278.358 -345.727 1278.358 Q -345.719 1278.357 -345.721 1278.367 Q -345.723 1278.378 -345.723 1278.533 Q -345.722 1278.689 -345.722 1278.949 Q -345.722 1279.209 -345.722 1279.097 Q -345.722 1278.984 -345.722 1279.460 Q -345.421 1279.640 -345.498 1279.576 Q -344.884 1279.724 -345.092 1279.683 Q -345.139 1279.665 -344.822 1279.789 Q -344.504 1279.913 -344.481 1279.979 Q -344.457 1280.046 -344.428 1280.121 "></path>
    <path id="STROKE_5fcf48eb-a535-43de-886b-09df70215ea3" opacity="1.000" fill="none" stroke="#000000" stroke-width="0.465" stroke-opacity="1.000" stroke-linecap="round" stroke-linejoin="round" d="M -344.727 1256.164 Q -344.799 1256.677 -344.864 1256.642 Q -345.153 1257.381 -347.381 1260.892 Q -346.604 1260.471 -346.827 1260.559 Q -347.050 1260.648 -346.236 1260.561 Q -346.236 1261.178 -346.236 1260.999 Q -346.236 1261.074 -346.236 1261.257 Q -346.282 1261.257 -346.328 1261.257 "></path>
    <path id="STROKE_f992bc70-33bc-46a6-9d1d-56c145df507a" opacity="1.000" fill="none" stroke="#000000" stroke-width="0.466" stroke-opacity="1.000" stroke-linecap="round" stroke-linejoin="round" d="M -346.236 1261.077 Q -346.416 1261.657 -346.390 1261.465 Q -346.506 1261.644 -346.684 1261.962 Q -346.861 1262.279 -346.852 1263.505 Q -346.842 1264.731 -346.894 1266.149 Q -346.946 1267.567 -347.009 1268.489 Q -347.072 1269.411 -346.948 1269.763 Q -346.825 1270.115 -346.751 1270.208 "></path>
    <path id="STROKE_23b037a0-6dc5-4558-abac-8f3cbc44b974" opacity="1.000" fill="none" stroke="#000000" stroke-width="0.466" stroke-opacity="1.000" stroke-linecap="round" stroke-linejoin="round" d="M -346.444 1271.500 Q -346.444 1271.485 -346.510 1271.199 Q -346.862 1270.923 -344.611 1274.304 Q -344.578 1274.243 -344.544 1274.182 "></path>
    <path id="STROKE_5797c633-b4fa-49ef-9824-c9cfe9b8142e" opacity="1.000" fill="none" stroke="#000000" stroke-width="0.466" stroke-opacity="1.000" stroke-linecap="round" stroke-linejoin="round" d="M -344.727 1274.455 Q -344.962 1274.592 -343.732 1275.874 Q -343.765 1275.874 -343.798 1275.874 "></path>
    <path id="STROKE_b5f6f7f7-0c63-4b6a-ad3c-457d2c828ea3" opacity="1.000" fill="none" stroke="#000000" stroke-width="0.481" stroke-opacity="1.000" stroke-linecap="round" stroke-linejoin="round" d="M -345.183 1274.426 Q -345.183 1273.945 -345.183 1274.124 Q -345.166 1274.124 -345.092 1274.124 Q -345.092 1274.139 -345.092 1274.260 Q -345.490 1274.351 -345.436 1274.350 Q -345.110 1274.181 -347.381 1275.271 Q -347.381 1275.286 -347.381 1275.301 Q -347.398 1275.301 -347.414 1275.301 Q -347.580 1275.031 -347.381 1277.954 Q -347.098 1278.253 -347.186 1278.177 Q -347.174 1278.192 -347.174 1278.220 Q -346.738 1278.354 -345.905 1278.858 Q -345.950 1278.901 -345.996 1278.945 "></path>
    <path id="STROKE_3ae020f6-b4a3-492d-97e0-625c30ffd5f0" opacity="1.000" fill="none" stroke="#000000" stroke-width="0.460" stroke-opacity="1.000" stroke-linecap="round" stroke-linejoin="round" d="M -342.808 1225.811 Q -343.036 1225.798 -343.004 1225.775 Q -343.107 1225.694 -343.160 1225.581 Q -342.795 1225.446 -340.558 1225.289 Q -338.322 1225.132 -336.634 1225.398 Q -334.946 1225.665 -334.631 1225.758 "></path>
    <path id="STROKE_ec57e457-22cf-4c79-a793-2b66222111d1" opacity="1.000" fill="none" stroke="#000000" stroke-width="0.458" stroke-opacity="1.000" stroke-linecap="round" stroke-linejoin="round" d="M -342.900 1227.111 Q -342.797 1227.166 -342.029 1227.071 Q -341.260 1226.976 -340.361 1227.148 Q -339.461 1227.320 -338.993 1227.649 Q -338.525 1227.977 -338.405 1228.079 "></path>
    <path id="STROKE_de9debcc-f1e9-4e35-b368-25a9fa94780f" opacity="1.000" fill="none" stroke="#000000" stroke-width="0.461" stroke-opacity="1.000" stroke-linecap="round" stroke-linejoin="round" d="M -346.246 1218.274 Q -346.200 1218.067 -346.328 1216.678 Q -346.456 1215.289 -346.737 1214.201 Q -347.017 1213.112 -347.292 1212.617 Q -347.566 1212.122 -347.766 1211.811 Q -347.966 1211.499 -348.276 1211.082 Q -348.586 1210.664 -348.858 1210.538 Q -349.131 1210.413 -349.199 1210.402 "></path>
    <path id="STROKE_8edf8529-8838-4cc0-81b0-90c34f3a6913" opacity="1.000" fill="none" stroke="#000000" stroke-width="0.461" stroke-opacity="1.000" stroke-linecap="round" stroke-linejoin="round" d="M -347.980 1216.472 Q -347.980 1216.887 -347.980 1216.799 Q -347.903 1217.358 -347.935 1217.184 Q -347.904 1217.492 -347.916 1217.479 Q -347.916 1217.571 -347.916 1217.733 Q -347.890 1217.733 -347.864 1217.733 "></path>
    <path id="STROKE_0b24b099-22e1-4413-875c-4d4b67b9d44c" opacity="1.000" fill="none" stroke="#000000" stroke-width="0.461" stroke-opacity="1.000" stroke-linecap="round" stroke-linejoin="round" d="M -352.335 1212.772 Q -352.213 1212.940 -351.405 1213.963 Q -350.596 1214.985 -350.319 1215.765 Q -350.041 1216.545 -350.005 1216.606 "></path>
    <circle id="STROKE_6a95bd06-fb0e-487f-8838-5eec2cb538e7" opacity="1.000" fill="#000000" stroke="#000000" stroke-width="0.1" stroke-opacity="1.000" fill-opacity="1.000" cx="-350.712" cy="1217.576" r="0.260"></circle>
    <circle id="STROKE_6f74b769-3dd5-404f-a5a7-28e011b862e6" opacity="1.000" fill="#000000" stroke="#000000" stroke-width="0.1" stroke-opacity="1.000" fill-opacity="1.000" cx="-351.367" cy="1217.380" r="0.260"></circle>
    <path id="STROKE_c05738d9-6257-4269-bfac-5f34b96d49fa" opacity="1.000" fill="none" stroke="#000000" stroke-width="0.460" stroke-opacity="1.000" stroke-linecap="round" stroke-linejoin="round" d="M -346.310 1231.830 Q -346.310 1231.818 -346.310 1231.766 Q -346.322 1231.766 -346.404 1231.776 Q -346.398 1231.969 -347.232 1234.554 Q -348.067 1237.140 -348.107 1237.243 "></path>
    <path id="STROKE_e6fb3359-1bf4-44b6-8104-da3d0ac5de69" opacity="1.000" fill="none" stroke="#000000" stroke-width="0.460" stroke-opacity="1.000" stroke-linecap="round" stroke-linejoin="round" d="M -348.334 1237.573 Q -348.346 1237.573 -348.482 1237.573 Q -348.445 1237.883 -347.895 1237.733 Q -347.345 1237.583 -347.220 1237.489 "></path>
    <path id="STROKE_bc06104c-74be-4d92-9352-93bc3b83f00f" opacity="1.000" fill="none" stroke="#000000" stroke-width="0.460" stroke-opacity="1.000" stroke-linecap="round" stroke-linejoin="round" d="M -346.913 1237.612 Q -347.185 1237.474 -347.106 1237.529 Q -347.155 1237.766 -347.518 1238.892 Q -347.881 1240.017 -347.862 1241.540 Q -347.851 1241.540 -347.826 1241.534 Q -347.800 1241.528 -347.760 1241.516 "></path>
    <path id="STROKE_e507d6ee-319f-4412-b17e-0fc7302f79c9" opacity="1.000" fill="none" stroke="#000000" stroke-width="0.460" stroke-opacity="1.000" stroke-linecap="round" stroke-linejoin="round" d="M -347.595 1241.044 Q -347.595 1241.034 -347.658 1241.024 Q -347.658 1241.365 -347.658 1241.332 Q -347.701 1241.402 -347.557 1242.023 Q -347.414 1242.643 -347.024 1243.355 Q -347.015 1243.355 -346.975 1243.355 Q -346.958 1243.115 -346.953 1243.151 Q -346.969 1243.263 -346.930 1242.922 Q -346.335 1242.987 -346.158 1243.837 Q -345.980 1244.688 -345.918 1244.801 "></path>
    <path id="STROKE_e2bc6ca6-21a1-4de3-a042-e4f8bf3b09af" opacity="1.000" fill="none" stroke="#000000" stroke-width="0.461" stroke-opacity="1.000" stroke-linecap="round" stroke-linejoin="round" d="M -345.855 1244.801 Q -345.782 1244.817 -345.551 1245.394 Q -345.319 1245.972 -345.099 1246.875 Q -344.880 1247.779 -344.644 1248.283 Q -344.408 1248.788 -344.259 1249.036 Q -344.110 1249.284 -344.007 1249.431 Q -343.904 1249.579 -343.841 1249.697 Q -343.778 1249.816 -343.716 1249.932 Q -343.654 1250.049 -343.665 1250.038 Q -343.675 1250.027 -343.645 1250.094 Q -343.616 1250.161 -343.584 1250.265 Q -343.553 1250.369 -343.541 1250.420 "></path>
    <path id="STROKE_e87d3901-9265-40fa-9ce4-11db9f56b671" opacity="1.000" fill="none" stroke="#000000" stroke-width="0.466" stroke-opacity="1.000" stroke-linecap="round" stroke-linejoin="round" d="M -343.337 1250.607 Q -343.389 1250.532 -343.315 1250.615 Q -343.241 1250.698 -343.081 1251.023 Q -342.921 1251.349 -342.924 1251.411 Q -342.928 1251.473 -342.722 1251.893 Q -342.515 1252.312 -342.211 1252.922 Q -342.086 1252.745 -342.106 1252.736 Q -342.054 1252.654 -342.012 1252.593 "></path>
    <circle id="STROKE_fcf08762-9444-4204-9bc0-7d4cd0dac55c" opacity="1.000" fill="#000000" stroke="#000000" stroke-width="0.1" stroke-opacity="1.000" fill-opacity="1.000" cx="-342.546" cy="1282.266" r="0.275"></circle>
    <path id="STROKE_4f24b345-6153-4c48-8886-dc0fa45e5bf3" opacity="1.000" fill="none" stroke="#000000" stroke-width="0.470" stroke-opacity="1.000" stroke-linecap="round" stroke-linejoin="round" d="M -339.176 1238.863 Q -339.216 1238.746 -339.133 1239.089 Q -339.050 1239.432 -338.946 1239.694 Q -338.842 1239.956 -338.786 1240.263 Q -338.729 1240.570 -338.562 1241.227 Q -338.523 1241.212 -338.484 1241.197 "></path>
    <path id="STROKE_70a64120-8574-4629-b35d-40022718081b" opacity="1.000" fill="none" stroke="#000000" stroke-width="0.467" stroke-opacity="1.000" stroke-linecap="round" stroke-linejoin="round" d="M -338.279 1238.454 Q -338.212 1238.457 -338.091 1239.107 Q -337.971 1239.756 -337.772 1239.997 Q -337.573 1240.237 -337.509 1240.274 "></path>
    <path id="STROKE_5ac98efd-8ab2-4f1a-a900-c9a8ccbdec71" opacity="1.000" fill="none" stroke="#000000" stroke-width="0.487" stroke-opacity="1.000" stroke-linecap="round" stroke-linejoin="round" d="M -336.584 1236.707 Q -336.412 1236.932 -335.716 1237.886 Q -335.019 1238.839 -334.889 1238.992 "></path>
    <path id="STROKE_7ced413e-56c5-4cf3-9f6b-2fdbbe305f2c" opacity="1.000" fill="none" stroke="#000000" stroke-width="0.505" stroke-opacity="1.000" stroke-linecap="round" stroke-linejoin="round" d="M -332.763 1236.505 Q -332.738 1236.594 -332.583 1236.889 Q -332.427 1237.183 -332.325 1237.324 "></path>
    <path id="STROKE_497d9fd1-dac1-4442-9c87-0a70f457cd19" opacity="1.000" fill="none" stroke="#000000" stroke-width="0.464" stroke-opacity="1.000" stroke-linecap="round" stroke-linejoin="round" d="M -329.245 1230.881 Q -329.204 1230.669 -328.243 1233.496 Q -327.282 1236.323 -327.218 1236.451 "></path>
    <path id="STROKE_c5aa0695-5873-4f34-bd36-0eaf77dd75af" opacity="1.000" fill="none" stroke="#000000" stroke-width="0.466" stroke-opacity="1.000" stroke-linecap="round" stroke-linejoin="round" d="M -330.043 1233.037 Q -330.004 1232.828 -329.572 1234.513 Q -329.139 1236.197 -329.139 1236.249 "></path>
    <path id="STROKE_e5a5e3c1-1f18-4219-a5af-46ee64e4f664" opacity="1.000" fill="none" stroke="#000000" stroke-width="0.470" stroke-opacity="1.000" stroke-linecap="round" stroke-linejoin="round" d="M -330.425 1233.989 Q -330.478 1234.116 -330.367 1234.769 Q -330.256 1235.422 -330.174 1236.194 Q -330.093 1236.966 -330.093 1237.043 "></path>
    <path id="STROKE_a7f79361-b387-4309-98ce-67288318d1b6" opacity="1.000" fill="none" stroke="#000000" stroke-width="0.470" stroke-opacity="1.000" stroke-linecap="round" stroke-linejoin="round" d="M -330.990 1234.142 Q -331.317 1234.109 -331.224 1234.863 Q -331.131 1235.617 -331.068 1235.656 "></path>
    <circle id="STROKE_183691e8-515e-433c-b1ca-4568e556217e" opacity="1.000" fill="#000000" stroke="#000000" stroke-width="0.1" stroke-opacity="1.000" fill-opacity="1.000" cx="-343.443" cy="1222.567" r="0.268"></circle>
    <path id="STROKE_d00d0687-ea71-4024-8e23-e138287fc332" opacity="1.000" fill="none" stroke="#000000" stroke-width="0.465" stroke-opacity="1.000" stroke-linecap="round" stroke-linejoin="round" d="M -343.082 1222.158 Q -342.699 1222.431 -342.814 1222.360 Q -342.123 1222.553 -342.231 1222.522 Q -342.339 1222.490 -342.284 1222.516 Q -342.230 1222.542 -342.217 1222.546 Q -342.205 1222.549 -341.684 1223.233 Q -341.581 1222.961 -341.540 1222.867 Q -341.500 1222.772 -341.437 1222.671 "></path>
    <path id="STROKE_988f88ab-cc6c-4776-8697-e0b3cd197bb7" opacity="1.000" fill="none" stroke="#000000" stroke-width="0.465" stroke-opacity="1.000" stroke-linecap="round" stroke-linejoin="round" d="M -340.850 1221.743 Q -340.850 1221.347 -340.850 1221.450 Q -340.850 1221.425 -340.850 1221.413 Q -340.735 1221.496 -340.792 1221.393 Q -340.849 1221.290 -340.675 1221.605 Q -340.501 1221.919 -340.321 1222.256 Q -340.125 1222.235 -340.103 1222.177 Q -340.080 1222.118 -340.003 1222.030 "></path>
    <path id="STROKE_6b9c1e2b-05be-42bd-8619-576e1e1236a6" opacity="1.000" fill="none" stroke="#000000" stroke-width="0.475" stroke-opacity="1.000" stroke-linecap="round" stroke-linejoin="round" d="M -338.745 1220.643 Q -338.756 1220.643 -338.823 1220.655 Q -339.022 1220.457 -338.570 1221.300 Q -338.117 1222.143 -338.053 1222.256 "></path>
    <path id="STROKE_0483cc6a-8956-43b7-9d83-a6af0c52325c" opacity="1.000" fill="none" stroke="#000000" stroke-width="0.473" stroke-opacity="1.000" stroke-linecap="round" stroke-linejoin="round" d="M -337.022 1220.589 Q -336.997 1220.611 -336.986 1220.555 Q -336.975 1220.499 -336.593 1220.849 Q -336.212 1221.198 -335.801 1221.671 Q -335.390 1222.143 -335.327 1222.207 "></path>
    <circle id="STROKE_d00ca5c1-d573-4aa7-a323-9622ddbab437" opacity="1.000" fill="#000000" stroke="#000000" stroke-width="0.1" stroke-opacity="1.000" fill-opacity="1.000" cx="-332.996" cy="1220.515" r="0.269"></circle>
    <path id="STROKE_7d90cba1-02f4-423c-91f9-b6817fcb953d" opacity="1.000" fill="none" stroke="#000000" stroke-width="0.467" stroke-opacity="1.000" stroke-linecap="round" stroke-linejoin="round" d="M -331.322 1221.205 Q -331.322 1221.193 -331.322 1221.077 Q -331.242 1221.503 -331.205 1221.489 Q -331.052 1221.208 -330.521 1223.422 Q -329.990 1225.636 -329.966 1225.700 "></path>
    <path id="STROKE_5ce86ea3-3445-4c0a-bfb3-a77e872fb39b" opacity="1.000" fill="none" stroke="#000000" stroke-width="0.470" stroke-opacity="1.000" stroke-linecap="round" stroke-linejoin="round" d="M -331.428 1223.080 Q -331.456 1223.409 -331.243 1224.329 Q -331.029 1225.249 -330.962 1225.414 "></path>
    <path id="STROKE_470c7589-a435-45b6-8842-533a300e864e" opacity="1.000" fill="none" stroke="#000000" stroke-width="0.472" stroke-opacity="1.000" stroke-linecap="round" stroke-linejoin="round" d="M -332.070 1223.056 Q -332.111 1223.643 -331.821 1225.254 Q -331.530 1226.865 -331.505 1226.929 "></path>
    <circle id="STROKE_f479afa5-01e5-4f87-a0f2-0df2168e63c4" opacity="1.000" fill="#000000" stroke="#000000" stroke-width="0.1" stroke-opacity="1.000" fill-opacity="1.000" cx="-332.862" cy="1227.827" r="0.272"></circle>
    <path id="STROKE_d21743bc-34ea-4e3d-922c-adf351d3ebe7" opacity="1.000" fill="none" stroke="#000000" stroke-width="0.467" stroke-opacity="1.000" stroke-linecap="round" stroke-linejoin="round" d="M -333.349 1226.312 Q -333.500 1226.319 -333.123 1229.317 Q -333.095 1229.265 -333.066 1229.213 "></path>
    <path id="STROKE_0ab2620d-f6bd-49db-8dbb-076af86b0f97" opacity="1.000" fill="none" stroke="#000000" stroke-width="0.467" stroke-opacity="1.000" stroke-linecap="round" stroke-linejoin="round" d="M -334.069 1229.011 Q -334.183 1229.400 -334.200 1231.088 Q -334.250 1231.088 -334.301 1231.094 Q -334.352 1231.100 -334.430 1231.113 "></path>
    <path id="STROKE_b701679b-90bb-432c-811e-86555c8b681c" opacity="1.000" fill="none" stroke="#000000" stroke-width="0.467" stroke-opacity="1.000" stroke-linecap="round" stroke-linejoin="round" d="M -335.588 1230.392 Q -335.624 1231.017 -335.609 1230.829 Q -335.609 1231.316 -335.609 1231.243 Q -335.609 1231.591 -335.623 1232.718 Q -335.676 1232.731 -335.740 1232.737 Q -335.804 1232.743 -335.892 1232.755 "></path>
    <path id="STROKE_999d2c0a-fd69-4f2c-9fb9-68a72a3c7454" opacity="1.000" fill="none" stroke="#000000" stroke-width="0.467" stroke-opacity="1.000" stroke-linecap="round" stroke-linejoin="round" d="M -336.563 1232.089 Q -336.542 1232.206 -336.565 1232.260 Q -336.589 1232.314 -336.569 1232.272 Q -336.549 1232.229 -336.682 1232.500 Q -336.814 1232.771 -336.820 1232.916 Q -336.825 1233.060 -336.809 1232.917 Q -336.792 1232.774 -336.881 1233.977 Q -336.851 1234.047 -336.982 1233.972 Q -337.114 1233.898 -337.206 1233.806 "></path>
    <path id="STROKE_74654123-4429-4fc9-b306-b7cc15bcc054" opacity="1.000" fill="none" stroke="#000000" stroke-width="0.467" stroke-opacity="1.000" stroke-linecap="round" stroke-linejoin="round" d="M -337.615 1232.859 Q -337.626 1232.859 -337.637 1232.859 Q -337.736 1233.100 -337.728 1233.101 Q -337.759 1233.189 -337.871 1233.416 Q -337.983 1233.642 -337.963 1233.624 Q -337.943 1233.607 -338.019 1233.657 Q -338.096 1233.707 -338.233 1234.367 Q -338.371 1235.027 -338.435 1235.119 "></path>
    <path id="STROKE_7461701d-1805-4dfd-9d76-81071c853e3c" opacity="1.000" fill="none" stroke="#000000" stroke-width="0.467" stroke-opacity="1.000" stroke-linecap="round" stroke-linejoin="round" d="M -339.176 1234.295 Q -339.422 1234.819 -339.346 1234.655 Q -339.352 1234.660 -339.414 1234.830 Q -339.477 1235.000 -339.515 1235.040 "></path>
    <path id="STROKE_5ebe322b-80f8-421e-a75b-ebea92f46e08" opacity="1.000" fill="none" stroke="#000000" stroke-width="0.465" stroke-opacity="1.000" stroke-linecap="round" stroke-linejoin="round" d="M -329.732 1226.568 Q -329.656 1227.188 -329.669 1226.993 Q -329.555 1227.345 -329.567 1227.328 Q -329.423 1227.803 -329.450 1227.713 Q -329.360 1227.939 -329.355 1227.966 Q -329.350 1227.992 -329.273 1228.285 Q -329.195 1228.578 -329.206 1228.535 Q -329.182 1228.611 -329.182 1228.675 Q -329.182 1228.739 -329.196 1228.754 "></path>
    <path id="STROKE_839d7dbf-340c-4e3b-a0f3-f4a7e154d932" opacity="1.000" fill="none" stroke="#000000" stroke-width="0.466" stroke-opacity="1.000" stroke-linecap="round" stroke-linejoin="round" d="M -329.909 1225.518 Q -329.933 1225.539 -329.372 1229.139 Q -329.358 1229.139 -329.344 1229.139 Q -329.344 1229.124 -329.332 1229.085 Q -329.319 1229.045 -329.295 1228.981 "></path>
    <path id="STROKE_3db286ac-2287-4ca2-b929-ae24c37b2f0d" opacity="1.000" fill="none" stroke="#000000" stroke-width="0.476" stroke-opacity="1.000" stroke-linecap="round" stroke-linejoin="round" d="M -330.912 1228.290 Q -330.918 1228.227 -330.905 1228.658 Q -330.891 1229.090 -330.748 1230.057 Q -330.605 1231.024 -330.630 1231.063 "></path>
    <path id="STROKE_68523710-88a1-47bb-95e6-49222467fd7e" opacity="1.000" fill="none" stroke="#000000" stroke-width="0.466" stroke-opacity="1.000" stroke-linecap="round" stroke-linejoin="round" d="M -331.244 1230.752 Q -331.225 1230.204 -331.350 1232.933 Q -331.414 1232.960 -331.477 1232.987 "></path>
    <path id="STROKE_ceda5fc3-73e9-45f7-9f68-2c4c2ec36759" opacity="1.000" fill="none" stroke="#000000" stroke-width="0.466" stroke-opacity="1.000" stroke-linecap="round" stroke-linejoin="round" d="M -332.890 1232.578 Q -333.029 1232.688 -332.996 1232.650 Q -332.964 1232.613 -333.102 1232.751 Q -333.241 1232.890 -333.333 1233.099 Q -333.426 1233.308 -333.508 1233.507 Q -333.591 1233.706 -333.669 1234.180 Q -333.748 1234.655 -333.787 1234.680 "></path>
    <path id="STROKE_b9b4cf7b-97b8-4126-8a0b-ff29c3013355" opacity="1.000" fill="none" stroke="#000000" stroke-width="0.465" stroke-opacity="1.000" stroke-linecap="round" stroke-linejoin="round" d="M -338.689 1244.177 Q -338.767 1244.797 -338.166 1245.613 Q -338.127 1245.600 -338.103 1245.588 "></path>
    <path id="STROKE_0aae4c5a-56be-48a7-a5e0-0635c2f97b6d" opacity="1.000" fill="none" stroke="#000000" stroke-width="0.465" stroke-opacity="1.000" stroke-linecap="round" stroke-linejoin="round" d="M -338.025 1244.202 Q -337.941 1244.385 -337.564 1244.973 Q -337.187 1245.561 -336.612 1245.998 Q -336.598 1245.946 -336.584 1245.894 "></path>
    <path id="STROKE_8fa6d071-0107-46e6-8a62-21c2653164d5" opacity="1.000" fill="none" stroke="#000000" stroke-width="0.465" stroke-opacity="1.000" stroke-linecap="round" stroke-linejoin="round" d="M -336.330 1244.537 Q -336.198 1244.863 -336.213 1244.806 Q -336.046 1245.131 -336.037 1245.115 Q -336.097 1245.025 -335.913 1245.307 Q -335.729 1245.589 -335.328 1245.915 Q -334.928 1246.242 -334.889 1246.254 "></path>
    <path id="STROKE_375cd26f-c4ae-4d74-812a-01ef35a8173c" opacity="1.000" fill="none" stroke="#000000" stroke-width="0.465" stroke-opacity="1.000" stroke-linecap="round" stroke-linejoin="round" d="M -334.945 1243.896 Q -334.931 1243.881 -334.829 1243.842 Q -334.818 1243.889 -334.566 1244.460 Q -334.314 1245.032 -333.973 1245.142 Q -333.632 1245.253 -333.554 1245.253 "></path>
    <path id="STROKE_c220a9f3-c471-4f41-872e-93e7af8c21e8" opacity="1.000" fill="none" stroke="#000000" stroke-width="0.461" stroke-opacity="1.000" stroke-linecap="round" stroke-linejoin="round" d="M -333.045 1241.685 Q -333.386 1242.266 -332.407 1243.130 Q -331.428 1243.995 -331.350 1243.995 "></path>
    <path id="STROKE_624f1a45-01a1-46c1-b398-97060afc39c5" opacity="1.000" fill="none" stroke="#000000" stroke-width="0.465" stroke-opacity="1.000" stroke-linecap="round" stroke-linejoin="round" d="M -331.449 1240.097 Q -331.330 1240.576 -331.339 1240.442 Q -331.192 1240.530 -330.674 1241.141 Q -330.156 1241.752 -330.065 1241.868 "></path>
    <path id="STROKE_d33fa21d-539e-48d4-98d0-fe70ff8695ab" opacity="1.000" fill="none" stroke="#000000" stroke-width="0.471" stroke-opacity="1.000" stroke-linecap="round" stroke-linejoin="round" d="M -329.966 1238.222 Q -329.773 1238.499 -329.771 1238.479 Q -329.694 1238.580 -329.501 1238.844 Q -329.309 1239.108 -329.217 1239.224 "></path>
    <path id="STROKE_c9f35b4f-f995-484d-913b-37a6df2bc4fe" opacity="1.000" fill="none" stroke="#000000" stroke-width="0.465" stroke-opacity="1.000" stroke-linecap="round" stroke-linejoin="round" d="M -328.348 1238.118 Q -327.863 1238.153 -327.998 1238.170 Q -327.748 1238.378 -327.765 1238.350 Q -327.609 1238.508 -327.566 1238.551 Q -327.522 1238.594 -327.444 1238.686 "></path>
    <path id="STROKE_926916ad-a3b1-4d1e-a7b8-fb1146574298" opacity="1.000" fill="none" stroke="#000000" stroke-width="0.486" stroke-opacity="1.000" stroke-linecap="round" stroke-linejoin="round" d="M -326.469 1238.094 Q -326.517 1238.012 -326.492 1238.043 Q -326.466 1238.074 -326.356 1238.262 Q -326.245 1238.450 -325.942 1238.747 Q -325.639 1239.043 -325.551 1239.120 "></path>
    <path id="STROKE_3b40c168-7d23-46fb-a243-81a1e5f1f2a3" opacity="1.000" fill="none" stroke="#000000" stroke-width="0.463" stroke-opacity="1.000" stroke-linecap="round" stroke-linejoin="round" d="M -325.085 1238.350 Q -325.151 1238.448 -324.788 1238.994 Q -324.424 1239.539 -324.165 1240.093 Q -323.905 1240.647 -323.828 1240.763 "></path>
    <path id="STROKE_3a824947-fa21-40ba-b2a9-b1ac89b3be69" opacity="1.000" fill="none" stroke="#000000" stroke-width="0.458" stroke-opacity="1.000" stroke-linecap="round" stroke-linejoin="round" d="M -323.933 1241.843 Q -323.936 1242.109 -323.919 1242.085 Q -323.597 1242.335 -322.755 1244.264 Q -321.913 1246.193 -321.899 1246.205 "></path>
    <path id="STROKE_4e2525c0-3fc3-4287-8462-cf5f4a4213d7" opacity="1.000" fill="none" stroke="#000000" stroke-width="0.466" stroke-opacity="1.000" stroke-linecap="round" stroke-linejoin="round" d="M -324.004 1243.432 Q -324.018 1243.412 -324.015 1243.747 Q -324.012 1244.081 -323.679 1244.875 Q -323.346 1245.669 -323.311 1246.148 Q -323.277 1246.627 -323.291 1246.718 "></path>
    <path id="STROKE_fdf6f707-4aae-4501-ad76-ce0e2dc756a7" opacity="1.000" fill="none" stroke="#000000" stroke-width="0.458" stroke-opacity="1.000" stroke-linecap="round" stroke-linejoin="round" d="M -326.293 1243.610 Q -326.293 1244.128 -326.279 1244.125 Q -326.235 1244.397 -325.506 1245.961 Q -324.778 1247.525 -324.703 1247.665 "></path>
    <path id="STROKE_f55d4ab8-4e86-48b9-bcbb-871d526ae52e" opacity="1.000" fill="none" stroke="#000000" stroke-width="0.513" stroke-opacity="1.000" stroke-linecap="round" stroke-linejoin="round" d="M -328.066 1243.610 Q -328.229 1243.542 -327.466 1245.387 Q -326.702 1247.231 -326.575 1247.488 "></path>
    <path id="STROKE_c7627b91-0715-4ed5-b4f7-7bff62068252" opacity="1.000" fill="none" stroke="#000000" stroke-width="0.496" stroke-opacity="1.000" stroke-linecap="round" stroke-linejoin="round" d="M -329.217 1246.052 Q -329.122 1246.292 -328.748 1247.455 Q -328.373 1248.617 -328.270 1248.899 "></path>
    <path id="STROKE_96a3f566-70ee-4b81-bced-3fda28dab431" opacity="1.000" fill="none" stroke="#000000" stroke-width="0.458" stroke-opacity="1.000" stroke-linecap="round" stroke-linejoin="round" d="M -332.939 1247.769 Q -333.078 1248.040 -332.984 1248.559 Q -332.890 1249.079 -332.812 1249.155 "></path>
    <path id="STROKE_e07d2579-0029-48b6-ba92-7de247a43448" opacity="1.000" fill="none" stroke="#000000" stroke-width="0.467" stroke-opacity="1.000" stroke-linecap="round" stroke-linejoin="round" d="M -333.554 1248.899 Q -333.554 1249.023 -333.554 1248.885 Q -333.554 1248.746 -333.554 1250.438 Q -333.582 1250.438 -333.704 1250.426 Q -333.826 1250.413 -333.942 1250.389 "></path>
    <circle id="STROKE_fa742570-0411-4536-b106-039eb6d91d1a" opacity="1.000" fill="#000000" stroke="#000000" stroke-width="0.1" stroke-opacity="1.000" fill-opacity="1.000" cx="-340.617" cy="1240.299" r="0.273"></circle>
    <path id="STROKE_e5d544d7-3e08-40b4-9061-56f647cac935" opacity="1.000" fill="none" stroke="#000000" stroke-width="0.471" stroke-opacity="1.000" stroke-linecap="round" stroke-linejoin="round" d="M -340.977 1239.529 Q -341.104 1239.762 -341.331 1240.423 Q -341.557 1241.084 -341.620 1241.123 "></path>
    <path id="STROKE_e34bcde7-83f7-44ed-8a81-cf3e7693b6e1" opacity="1.000" fill="none" stroke="#000000" stroke-width="0.459" stroke-opacity="1.000" stroke-linecap="round" stroke-linejoin="round" d="M -343.054 1240.684 Q -342.991 1240.619 -343.190 1241.120 Q -343.390 1241.621 -343.464 1241.661 "></path>
    <circle id="STROKE_50c59ce1-799b-4d4e-9a64-6dee02ef2322" opacity="1.000" fill="#000000" stroke="#000000" stroke-width="0.1" stroke-opacity="1.000" fill-opacity="1.000" cx="-339.593" cy="1246.846" r="0.273"></circle>
    <path id="STROKE_25c9b30a-d740-4c25-82d7-060b3e57ec26" opacity="1.000" fill="none" stroke="#000000" stroke-width="0.467" stroke-opacity="1.000" stroke-linecap="round" stroke-linejoin="round" d="M -339.720 1246.664 Q -339.662 1246.663 -339.876 1246.614 Q -339.978 1246.804 -339.954 1246.776 Q -339.930 1246.747 -339.905 1246.773 Q -339.881 1246.800 -340.022 1246.824 Q -340.163 1246.849 -340.305 1246.809 Q -340.448 1246.770 -340.511 1246.718 "></path>
    <path id="STROKE_7bbd0ce3-5d74-426e-bae0-c36b07e07c97" opacity="1.000" fill="none" stroke="#000000" stroke-width="0.467" stroke-opacity="1.000" stroke-linecap="round" stroke-linejoin="round" d="M -340.667 1246.639 Q -340.862 1246.653 -340.839 1246.597 Q -340.817 1246.542 -340.885 1246.669 Q -340.953 1246.797 -341.004 1246.935 Q -341.054 1247.073 -341.038 1247.041 Q -341.022 1247.009 -341.020 1247.113 Q -341.019 1247.216 -341.038 1247.529 Q -341.057 1247.841 -341.143 1248.079 Q -341.229 1248.316 -341.387 1248.508 Q -341.545 1248.700 -341.639 1248.639 Q -341.733 1248.578 -341.797 1248.538 "></path>
    <path id="STROKE_c9c1017f-9f2f-4fa4-86ce-afcd5f6ca69d" opacity="1.000" fill="none" stroke="#000000" stroke-width="0.467" stroke-opacity="1.000" stroke-linecap="round" stroke-linejoin="round" d="M -335.044 1250.773 Q -335.058 1250.773 -335.327 1250.862 Q -335.323 1250.809 -335.332 1251.124 Q -335.341 1251.439 -335.355 1251.464 "></path>
    <path id="STROKE_079f170e-439d-4b84-a310-0ab5f32691f4" opacity="1.000" fill="none" stroke="#000000" stroke-width="0.467" stroke-opacity="1.000" stroke-linecap="round" stroke-linejoin="round" d="M -336.457 1251.696 Q -336.460 1251.351 -336.485 1253.364 Q -336.510 1253.364 -336.561 1253.390 Q -336.612 1253.416 -336.690 1253.467 "></path>
    <path id="STROKE_963df854-716e-45c3-bff5-b751b52d7613" opacity="1.000" fill="none" stroke="#000000" stroke-width="0.467" stroke-opacity="1.000" stroke-linecap="round" stroke-linejoin="round" d="M -338.639 1254.005 Q -338.478 1253.677 -338.908 1255.416 Q -338.947 1255.416 -339.024 1255.424 Q -339.102 1255.431 -339.176 1255.446 "></path>
    <path id="STROKE_6caf56af-f8e8-4178-bf34-53116691b507" opacity="1.000" fill="none" stroke="#000000" stroke-width="0.480" stroke-opacity="1.000" stroke-linecap="round" stroke-linejoin="round" d="M -340.130 1255.776 Q -340.201 1255.559 -340.236 1257.062 Q -340.271 1258.564 -340.335 1258.628 "></path>
    <circle id="STROKE_82a08dbb-6ac2-44ba-9652-cdaffda2ba3f" opacity="1.000" fill="#000000" stroke="#000000" stroke-width="0.1" stroke-opacity="1.000" fill-opacity="1.000" cx="-340.617" cy="1258.855" r="0.273"></circle>
    <path id="STROKE_0e5c3ab6-6e7a-431d-b345-18a502bfaad2" opacity="1.000" fill="none" stroke="#000000" stroke-width="0.464" stroke-opacity="1.000" stroke-linecap="round" stroke-linejoin="round" d="M -320.154 1248.642 Q -319.664 1249.141 -317.923 1252.929 Q -317.986 1252.890 -318.050 1252.851 "></path>
    <path id="STROKE_843ac755-e9f2-446d-ba81-cefe6bc576e0" opacity="1.000" fill="none" stroke="#000000" stroke-width="0.476" stroke-opacity="1.000" stroke-linecap="round" stroke-linejoin="round" d="M -321.030 1251.671 Q -321.077 1251.251 -320.649 1252.662 Q -320.222 1254.072 -320.211 1254.188 "></path>
    <path id="STROKE_00dbe79e-9f14-47fd-b73f-295886303180" opacity="1.000" fill="none" stroke="#000000" stroke-width="0.487" stroke-opacity="1.000" stroke-linecap="round" stroke-linejoin="round" d="M -322.669 1253.161 Q -322.716 1252.907 -322.755 1253.938 Q -322.793 1254.970 -322.599 1255.605 Q -322.404 1256.240 -322.365 1256.368 "></path>
    <path id="STROKE_e2909156-470e-49d1-a0db-64072d753a8f" opacity="1.000" fill="none" stroke="#000000" stroke-width="0.483" stroke-opacity="1.000" stroke-linecap="round" stroke-linejoin="round" d="M -324.569 1255.727 Q -324.739 1255.826 -324.761 1256.105 Q -324.782 1256.384 -324.723 1256.753 Q -324.665 1257.123 -324.626 1257.212 "></path>
    <path id="STROKE_3c93a573-781c-4276-be32-ad12cf909df1" opacity="1.000" fill="none" stroke="#000000" stroke-width="0.464" stroke-opacity="1.000" stroke-linecap="round" stroke-linejoin="round" d="M -325.855 1256.344 Q -326.126 1256.344 -326.084 1256.344 Q -326.729 1256.385 -326.497 1256.368 Q -326.790 1256.161 -326.716 1256.188 Q -327.014 1255.939 -326.932 1256.021 Q -326.985 1256.008 -327.043 1255.989 Q -327.101 1255.969 -327.190 1255.929 "></path>
    <path id="STROKE_5e95023d-47cb-474b-b627-bd1e23083d27" opacity="1.000" fill="none" stroke="#000000" stroke-width="0.464" stroke-opacity="1.000" stroke-linecap="round" stroke-linejoin="round" d="M -327.677 1255.702 Q -328.376 1255.953 -328.243 1255.933 Q -328.110 1255.912 -328.179 1255.919 Q -328.221 1256.043 -328.525 1257.279 Q -328.592 1257.291 -328.648 1257.311 Q -328.705 1257.330 -328.779 1257.370 "></path>
    <path id="STROKE_3d4f1c87-11b7-47f0-98c5-defd6f9df379" opacity="1.000" fill="none" stroke="#000000" stroke-width="0.464" stroke-opacity="1.000" stroke-linecap="round" stroke-linejoin="round" d="M -329.987 1257.316 Q -329.942 1257.368 -330.079 1258.934 Q -330.103 1258.934 -330.147 1258.928 Q -330.192 1258.922 -330.269 1258.909 "></path>
    <path id="STROKE_be3288ef-21d3-49bc-b764-20a2633708e7" opacity="1.000" fill="none" stroke="#000000" stroke-width="0.484" stroke-opacity="1.000" stroke-linecap="round" stroke-linejoin="round" d="M -331.837 1257.908 Q -331.747 1257.665 -331.967 1258.183 Q -332.187 1258.702 -332.351 1259.299 Q -332.516 1259.896 -332.579 1260.009 "></path>
    <path id="STROKE_2130f602-3853-4898-90bf-94591c2475db" opacity="1.000" fill="none" stroke="#000000" stroke-width="0.496" stroke-opacity="1.000" stroke-linecap="round" stroke-linejoin="round" d="M -333.504 1259.807 Q -333.504 1259.565 -333.492 1260.359 Q -333.480 1261.154 -333.455 1261.322 "></path>
    <path id="STROKE_10ee25bd-3945-4021-a715-0832ba8fdf3a" opacity="1.000" fill="none" stroke="#000000" stroke-width="0.463" stroke-opacity="1.000" stroke-linecap="round" stroke-linejoin="round" d="M -340.928 1263.271 Q -340.954 1263.216 -340.925 1263.366 Q -340.897 1263.516 -340.808 1263.734 Q -340.783 1263.734 -340.723 1263.734 Q -340.883 1264.287 -340.465 1262.604 Q -340.494 1262.536 -340.450 1262.555 Q -340.406 1262.573 -340.444 1262.563 Q -340.483 1262.552 -340.212 1262.785 Q -339.941 1263.017 -340.013 1262.989 Q -339.989 1263.014 -339.950 1263.014 Q -339.911 1263.014 -339.876 1263.014 "></path>
    <circle id="STROKE_07e4bfbd-fe24-4d12-ad18-8fd82d10faf7" opacity="1.000" fill="#000000" stroke="#000000" stroke-width="0.1" stroke-opacity="1.000" fill-opacity="1.000" cx="-339.205" cy="1261.041" r="0.264"></circle>
    <path id="STROKE_f6272227-4e2b-4153-aa91-dfe827406989" opacity="1.000" fill="none" stroke="#000000" stroke-width="0.481" stroke-opacity="1.000" stroke-linecap="round" stroke-linejoin="round" d="M -343.464 1254.340 Q -343.533 1254.241 -343.430 1255.132 Q -343.326 1256.023 -343.315 1256.087 "></path>
    <path id="STROKE_bf92cdcb-0408-4c74-8e58-a4e5ba067749" opacity="1.000" fill="none" stroke="#000000" stroke-width="0.468" stroke-opacity="1.000" stroke-linecap="round" stroke-linejoin="round" d="M -342.694 1257.572 Q -342.690 1258.101 -342.683 1257.984 Q -342.697 1258.047 -342.548 1258.559 Q -342.399 1259.071 -342.232 1259.407 Q -342.065 1259.743 -342.002 1259.832 "></path>
    <path id="STROKE_c9beb416-0aab-47e3-9e4f-13e0bf2d9965" opacity="1.000" fill="none" stroke="#000000" stroke-width="0.468" stroke-opacity="1.000" stroke-linecap="round" stroke-linejoin="round" d="M -342.235 1261.450 Q -342.121 1261.860 -342.157 1261.731 Q -342.107 1261.940 -342.100 1262.208 Q -342.094 1262.476 -342.079 1262.580 "></path>
    <path id="STROKE_afb073b7-73ed-4cc9-8387-bd00650ebb87" opacity="1.000" fill="none" stroke="#000000" stroke-width="0.466" stroke-opacity="1.000" stroke-linecap="round" stroke-linejoin="round" d="M -314.892 1255.110 Q -315.082 1255.091 -314.506 1256.033 Q -313.930 1256.976 -312.992 1261.988 Q -312.982 1261.963 -312.971 1261.938 "></path>
    <path id="STROKE_e715c386-100e-4ee0-ba0e-50844ac16e85" opacity="1.000" fill="none" stroke="#000000" stroke-width="0.466" stroke-opacity="1.000" stroke-linecap="round" stroke-linejoin="round" d="M -314.101 1259.343 Q -314.287 1259.265 -314.250 1259.269 Q -314.489 1258.658 -314.127 1260.862 Q -313.766 1263.066 -313.713 1263.197 "></path>
    <path id="STROKE_c05361a0-8822-48c0-8eba-f315c7c69b64" opacity="1.000" fill="none" stroke="#000000" stroke-width="0.464" stroke-opacity="1.000" stroke-linecap="round" stroke-linejoin="round" d="M -315.253 1260.064 Q -315.639 1259.655 -315.453 1262.733 Q -315.267 1265.812 -315.253 1265.940 "></path>
    <path id="STROKE_ceb7782e-f5f0-47b1-b557-25b4a2e2e576" opacity="1.000" fill="none" stroke="#000000" stroke-width="0.470" stroke-opacity="1.000" stroke-linecap="round" stroke-linejoin="round" d="M -317.435 1261.396 Q -317.523 1261.140 -317.576 1264.169 Q -317.629 1267.198 -317.718 1267.277 "></path>
    <path id="STROKE_3165d5bb-a975-42ff-8cb4-2b94b5b51a4f" opacity="1.000" fill="none" stroke="#000000" stroke-width="0.466" stroke-opacity="1.000" stroke-linecap="round" stroke-linejoin="round" d="M -319.695 1264.144 Q -319.695 1264.630 -319.695 1264.502 Q -319.716 1265.079 -319.717 1264.941 Q -319.886 1265.423 -319.906 1265.361 Q -319.925 1265.298 -319.999 1265.348 "></path>
    <path id="STROKE_8b2b640d-18ad-444d-93a6-482c13543966" opacity="1.000" fill="none" stroke="#000000" stroke-width="0.478" stroke-opacity="1.000" stroke-linecap="round" stroke-linejoin="round" d="M -321.285 1265.249 Q -321.113 1265.024 -321.386 1265.797 Q -321.659 1266.571 -321.751 1266.635 "></path>
    <path id="STROKE_cdfe1fdb-8c8c-46e7-981c-9ed73712320d" opacity="1.000" fill="none" stroke="#000000" stroke-width="0.475" stroke-opacity="1.000" stroke-linecap="round" stroke-linejoin="round" d="M -325.826 1265.195 Q -325.787 1265.758 -326.259 1266.260 Q -326.731 1266.761 -326.858 1266.813 "></path>
    <path id="STROKE_1c442a12-5a06-4c87-9ae5-168ee5d852a5" opacity="1.000" fill="none" stroke="#000000" stroke-width="0.466" stroke-opacity="1.000" stroke-linecap="round" stroke-linejoin="round" d="M -328.779 1265.427 Q -328.849 1265.744 -328.860 1265.683 Q -328.994 1265.856 -329.100 1265.949 Q -329.206 1266.043 -329.295 1266.122 "></path>
    <path id="STROKE_52d481df-bee8-4efb-9e84-d33705ac24ea" opacity="1.000" fill="none" stroke="#000000" stroke-width="0.466" stroke-opacity="1.000" stroke-linecap="round" stroke-linejoin="round" d="M -330.912 1265.964 Q -331.260 1266.196 -331.837 1265.940 Q -331.813 1265.747 -331.857 1266.254 Q -331.901 1266.761 -331.965 1266.788 "></path>
    <path id="STROKE_3d9d3742-b6a9-4fa0-aab4-e7825dd73c8f" opacity="1.000" fill="none" stroke="#000000" stroke-width="0.465" stroke-opacity="1.000" stroke-linecap="round" stroke-linejoin="round" d="M -316.792 1254.469 Q -316.807 1254.469 -316.821 1254.469 Q -316.856 1254.978 -316.842 1254.864 Q -316.842 1255.466 -316.842 1255.342 Q -316.786 1255.439 -316.733 1256.539 Q -316.679 1257.639 -316.693 1257.755 "></path>
    <path id="STROKE_bbb073e0-c8eb-4544-8752-8e25233a97af" opacity="1.000" fill="none" stroke="#000000" stroke-width="0.462" stroke-opacity="1.000" stroke-linecap="round" stroke-linejoin="round" d="M -318.594 1256.186 Q -318.618 1255.975 -318.535 1256.883 Q -318.451 1257.792 -318.423 1258.668 Q -318.395 1259.543 -318.569 1259.880 Q -318.742 1260.217 -318.820 1260.296 "></path>
    <path id="STROKE_2464a667-9fb5-4a60-9e75-6c20eb6fa20b" opacity="1.000" fill="none" stroke="#000000" stroke-width="0.466" stroke-opacity="1.000" stroke-linecap="round" stroke-linejoin="round" d="M -321.334 1259.782 Q -321.334 1259.462 -321.334 1261.425 Q -321.348 1261.425 -321.401 1261.438 Q -321.454 1261.450 -321.546 1261.475 "></path>
    <path id="STROKE_4f23656b-387b-4451-81a5-b5b580a0d12d" opacity="1.000" fill="none" stroke="#000000" stroke-width="0.514" stroke-opacity="1.000" stroke-linecap="round" stroke-linejoin="round" d="M -322.521 1258.885 Q -322.697 1258.513 -323.070 1259.974 Q -323.443 1261.435 -323.517 1261.524 "></path>
    <path id="STROKE_57326dc1-4549-4ff7-9aa7-26a30884aef2" opacity="1.000" fill="none" stroke="#000000" stroke-width="0.466" stroke-opacity="1.000" stroke-linecap="round" stroke-linejoin="round" d="M -325.007 1259.728 Q -325.401 1259.646 -325.318 1259.679 Q -325.868 1259.679 -325.728 1259.679 Q -326.116 1259.834 -326.134 1259.844 Q -326.152 1259.853 -326.137 1259.856 Q -326.190 1259.881 -326.293 1259.935 Q -326.293 1259.948 -326.305 1260.056 Q -326.317 1260.165 -326.342 1260.241 "></path>
    <path id="STROKE_a2e67fcb-dcde-41d5-b5ee-af7b24df76cd" opacity="1.000" fill="none" stroke="#000000" stroke-width="0.468" stroke-opacity="1.000" stroke-linecap="round" stroke-linejoin="round" d="M -335.122 1266.250 Q -335.122 1266.244 -335.122 1267.790 Q -335.122 1267.775 -335.180 1267.660 Q -335.238 1267.546 -335.327 1267.430 "></path>
    <path id="STROKE_8e82e5e9-33b9-4010-a5e2-591e81346c43" opacity="1.000" fill="none" stroke="#000000" stroke-width="0.480" stroke-opacity="1.000" stroke-linecap="round" stroke-linejoin="round" d="M -336.584 1266.991 Q -336.708 1266.993 -336.782 1268.244 Q -336.856 1269.495 -336.923 1269.531 "></path>
    <path id="STROKE_ed78840e-2e1a-4ba0-8e87-ef2294637a7a" opacity="1.000" fill="none" stroke="#000000" stroke-width="0.489" stroke-opacity="1.000" stroke-linecap="round" stroke-linejoin="round" d="M -332.713 1276.720 Q -332.687 1276.791 -332.749 1276.835 Q -332.812 1276.879 -332.588 1277.235 Q -332.364 1277.591 -332.325 1277.643 "></path>
    <path id="STROKE_daadb404-a539-4d10-ae1f-dac35625f457" opacity="1.000" fill="none" stroke="#000000" stroke-width="0.465" stroke-opacity="1.000" stroke-linecap="round" stroke-linejoin="round" d="M -332.092 1274.564 Q -332.094 1274.609 -332.084 1274.534 Q -332.074 1274.459 -332.127 1274.769 Q -332.180 1275.079 -332.173 1275.254 Q -332.167 1275.428 -332.164 1275.428 Q -332.161 1275.428 -332.212 1275.462 Q -332.262 1275.496 -331.870 1276.601 Q -331.477 1277.707 -331.428 1277.771 "></path>
    <path id="STROKE_c522e4e5-e2d5-462d-b23e-d42ca799ae2f" opacity="1.000" fill="none" stroke="#000000" stroke-width="0.465" stroke-opacity="1.000" stroke-linecap="round" stroke-linejoin="round" d="M -331.039 1272.640 Q -331.039 1273.230 -331.039 1273.076 Q -331.014 1273.558 -331.004 1273.486 Q -330.954 1273.500 -330.347 1276.182 Q -330.322 1276.130 -330.298 1276.079 "></path>
    <path id="STROKE_d4957ad6-8aa5-4197-885d-93f3ce3fcc79" opacity="1.000" fill="none" stroke="#000000" stroke-width="0.493" stroke-opacity="1.000" stroke-linecap="round" stroke-linejoin="round" d="M -329.422 1271.406 Q -329.626 1270.544 -329.262 1272.875 Q -328.899 1275.205 -328.885 1275.255 "></path>
    <path id="STROKE_6cb0d79e-c8f9-4041-9f36-ea0e7f22b392" opacity="1.000" fill="none" stroke="#000000" stroke-width="0.495" stroke-opacity="1.000" stroke-linecap="round" stroke-linejoin="round" d="M -327.161 1272.102 Q -327.101 1272.153 -327.048 1273.846 Q -326.995 1275.538 -326.957 1275.566 "></path>
    <path id="STROKE_14d7a389-de95-4b95-8980-b70f14eff16a" opacity="1.000" fill="none" stroke="#000000" stroke-width="0.500" stroke-opacity="1.000" stroke-linecap="round" stroke-linejoin="round" d="M -324.830 1270.814 Q -324.831 1271.037 -324.816 1272.133 Q -324.802 1273.229 -324.774 1273.459 "></path>
    <circle id="STROKE_a0447a1c-f92d-4e2b-bd15-e9f30dda44f9" opacity="1.000" fill="#000000" stroke="#000000" stroke-width="0.1" stroke-opacity="1.000" fill-opacity="1.000" cx="-324.725" cy="1274.998" r="0.267"></circle>
    <path id="STROKE_9335b4eb-c8c6-4b25-8770-16eab2d2424b" opacity="1.000" fill="none" stroke="#000000" stroke-width="0.465" stroke-opacity="1.000" stroke-linecap="round" stroke-linejoin="round" d="M -322.648 1271.766 Q -322.482 1271.566 -322.464 1275.205 Q -322.454 1275.205 -322.422 1275.161 Q -322.390 1275.116 -322.337 1275.028 "></path>
    <path id="STROKE_d38c0f7c-9f82-481d-a9af-ba4bf774e042" opacity="1.000" fill="none" stroke="#000000" stroke-width="0.465" stroke-opacity="1.000" stroke-linecap="round" stroke-linejoin="round" d="M -320.797 1272.585 Q -320.687 1272.407 -320.282 1274.386 Q -320.257 1274.372 -320.232 1274.357 "></path>
    <path id="STROKE_dd0b53d9-3948-43bc-b6bf-9ad0f4bb1ebd" opacity="1.000" fill="none" stroke="#000000" stroke-width="0.465" stroke-opacity="1.000" stroke-linecap="round" stroke-linejoin="round" d="M -318.410 1271.100 Q -318.270 1271.793 -318.322 1271.599 Q -318.313 1272.172 -318.244 1273.525 Q -318.219 1273.538 -318.180 1273.518 Q -318.141 1273.498 -318.078 1273.459 "></path>
    <path id="STROKE_4c94ce27-bdbc-40e6-a4ba-77e25c3a43e0" opacity="1.000" fill="none" stroke="#000000" stroke-width="0.460" stroke-opacity="1.000" stroke-linecap="round" stroke-linejoin="round" d="M -315.768 1271.174 Q -315.770 1271.613 -315.779 1271.599 Q -315.808 1271.828 -315.837 1272.330 Q -315.867 1272.832 -315.867 1272.872 "></path>
    <path id="STROKE_87680fcc-704d-4887-811e-894c04e2e8e9" opacity="1.000" fill="none" stroke="#000000" stroke-width="0.465" stroke-opacity="1.000" stroke-linecap="round" stroke-linejoin="round" d="M -314.560 1270.972 Q -314.571 1270.793 -314.521 1271.882 Q -314.497 1271.895 -314.419 1271.837 Q -314.341 1271.779 -314.278 1271.688 "></path>
    <path id="STROKE_05c4b8f0-4d47-435b-978e-d676fca50ffd" opacity="1.000" fill="none" stroke="#000000" stroke-width="0.458" stroke-opacity="1.000" stroke-linecap="round" stroke-linejoin="round" d="M -313.275 1267.533 Q -313.264 1267.519 -313.197 1267.454 Q -313.188 1267.305 -313.161 1267.874 Q -313.134 1268.444 -313.119 1268.481 "></path>
    <circle id="STROKE_c2ad8b03-b26c-4f2d-8c3c-e95da28bb175" opacity="1.000" fill="#000000" stroke="#000000" stroke-width="0.1" stroke-opacity="1.000" fill-opacity="1.000" cx="-312.738" cy="1266.147" r="0.267"></circle>
    <path id="STROKE_ab69ce54-d083-4dc5-ad1e-5b5cbeea4736" opacity="1.000" fill="none" stroke="#000000" stroke-width="0.462" stroke-opacity="1.000" stroke-linecap="round" stroke-linejoin="round" d="M -314.483 1275.052 Q -314.580 1275.480 -314.599 1275.462 Q -314.734 1275.645 -314.947 1276.317 Q -315.161 1276.989 -315.224 1277.080 "></path>
    <path id="STROKE_18e22688-bd9c-4eee-996f-0d02218fe2c0" opacity="1.000" fill="none" stroke="#000000" stroke-width="0.459" stroke-opacity="1.000" stroke-linecap="round" stroke-linejoin="round" d="M -315.846 1278.309 Q -315.990 1278.452 -316.391 1278.927 Q -316.792 1279.401 -316.870 1279.438 "></path>
    <path id="STROKE_e27a8e18-6aff-425f-9f49-dec92dd14ef9" opacity="1.000" fill="none" stroke="#000000" stroke-width="0.471" stroke-opacity="1.000" stroke-linecap="round" stroke-linejoin="round" d="M -318.050 1278.516 Q -318.319 1278.684 -318.283 1278.656 Q -318.320 1278.544 -318.718 1279.139 Q -319.116 1279.734 -319.208 1279.774 "></path>
    <path id="STROKE_9d8fb166-e4e8-415b-8082-b748c0af316b" opacity="1.000" fill="none" stroke="#000000" stroke-width="0.473" stroke-opacity="1.000" stroke-linecap="round" stroke-linejoin="round" d="M -320.359 1278.797 Q -320.513 1279.012 -320.987 1279.389 Q -321.460 1279.765 -321.521 1280.168 Q -321.581 1280.571 -321.645 1280.623 "></path>
    <path id="STROKE_c1b15f84-acdd-468d-b12d-7f9c4c190ef5" opacity="1.000" fill="none" stroke="#000000" stroke-width="0.466" stroke-opacity="1.000" stroke-linecap="round" stroke-linejoin="round" d="M -321.899 1277.721 Q -321.914 1277.784 -322.047 1278.030 Q -322.181 1278.275 -322.159 1278.188 Q -322.138 1278.100 -322.301 1278.507 Q -322.463 1278.915 -323.073 1280.146 Q -323.683 1281.376 -324.894 1282.290 Q -324.908 1282.199 -324.928 1282.077 Q -324.947 1281.955 -324.986 1281.802 "></path>
    <path id="STROKE_759c84bb-e504-4922-b073-bd7d7de088b7" opacity="1.000" fill="none" stroke="#000000" stroke-width="0.466" stroke-opacity="1.000" stroke-linecap="round" stroke-linejoin="round" d="M -324.315 1278.180 Q -324.346 1278.195 -324.448 1278.324 Q -324.551 1278.454 -324.545 1278.463 Q -324.540 1278.472 -324.576 1278.516 Q -324.613 1278.559 -324.690 1278.880 Q -324.767 1279.201 -326.229 1280.568 Q -326.307 1280.531 -326.370 1280.494 "></path>
    <path id="STROKE_d918cbd0-bf20-4619-a8bf-c5a994a005df" opacity="1.000" fill="none" stroke="#000000" stroke-width="0.466" stroke-opacity="1.000" stroke-linecap="round" stroke-linejoin="round" d="M -326.575 1279.261 Q -326.794 1279.226 -326.976 1279.515 Q -327.158 1279.805 -327.370 1280.106 Q -327.581 1280.407 -327.740 1280.618 Q -327.898 1280.830 -328.220 1280.846 Q -328.542 1280.862 -328.499 1280.859 Q -328.455 1280.857 -328.599 1280.688 Q -328.744 1280.519 -328.836 1280.415 "></path>
    <path id="STROKE_71fbc3b5-f868-4b73-b93e-b4c85adf7098" opacity="1.000" fill="none" stroke="#000000" stroke-width="0.466" stroke-opacity="1.000" stroke-linecap="round" stroke-linejoin="round" d="M -328.758 1279.542 Q -328.709 1279.410 -328.957 1279.728 Q -329.205 1280.047 -329.381 1280.214 Q -329.557 1280.382 -329.755 1280.371 Q -329.954 1280.361 -330.008 1280.271 Q -330.062 1280.181 -330.217 1280.022 Q -330.372 1279.863 -330.474 1279.774 "></path>
    <path id="STROKE_daa39b98-93c8-40b3-85ce-d6c634399258" opacity="1.000" fill="none" stroke="#000000" stroke-width="0.467" stroke-opacity="1.000" stroke-linecap="round" stroke-linejoin="round" d="M -340.490 1287.244 Q -340.490 1287.231 -340.490 1287.115 Q -340.735 1286.859 -338.873 1287.673 Q -337.011 1288.487 -336.973 1288.502 "></path>
    <path id="STROKE_b03e3454-2786-430a-b914-0f56485cd3c1" opacity="1.000" fill="none" stroke="#000000" stroke-width="0.467" stroke-opacity="1.000" stroke-linecap="round" stroke-linejoin="round" d="M -339.487 1286.829 Q -339.105 1286.858 -339.141 1286.884 Q -338.686 1287.088 -338.756 1287.064 Q -338.792 1287.162 -338.260 1287.190 Q -337.728 1287.219 -337.665 1287.219 "></path>
    <path id="STROKE_8e0ab69b-e82f-4ca3-b50e-9535a3ff0517" opacity="1.000" fill="none" stroke="#000000" stroke-width="0.470" stroke-opacity="1.000" stroke-linecap="round" stroke-linejoin="round" d="M -338.668 1285.961 Q -338.454 1286.105 -337.533 1286.193 Q -336.612 1286.282 -336.563 1286.346 "></path>
    <path id="STROKE_a54c0ce7-99ec-4b54-afce-53ea549339dc" opacity="1.000" fill="none" stroke="#000000" stroke-width="0.467" stroke-opacity="1.000" stroke-linecap="round" stroke-linejoin="round" d="M -338.611 1284.446 Q -338.522 1284.423 -338.247 1284.471 Q -337.972 1284.519 -337.770 1284.618 Q -337.569 1284.718 -337.642 1284.687 Q -337.715 1284.656 -337.464 1284.757 Q -337.213 1284.858 -336.768 1284.880 Q -336.768 1284.868 -336.792 1284.830 Q -336.817 1284.792 -336.867 1284.728 "></path>
    <path id="STROKE_cafebba0-25e2-4e15-8269-c9285cb17fd0" opacity="1.000" fill="none" stroke="#000000" stroke-width="0.465" stroke-opacity="1.000" stroke-linecap="round" stroke-linejoin="round" d="M -338.230 1283.316 Q -337.991 1283.482 -337.378 1283.590 Q -336.764 1283.699 -336.662 1283.751 "></path>
    <path id="STROKE_7d0844fb-d1fc-4506-a264-9132b6155477" opacity="1.000" fill="none" stroke="#000000" stroke-width="0.468" stroke-opacity="1.000" stroke-linecap="round" stroke-linejoin="round" d="M -332.713 1287.268 Q -332.749 1287.256 -332.939 1287.189 Q -332.575 1287.189 -332.632 1287.189 Q -332.231 1287.189 -332.247 1287.189 Q -331.484 1287.189 -331.671 1287.189 Q -331.673 1287.099 -330.659 1287.248 Q -329.644 1287.397 -329.478 1287.476 "></path>
    <path id="STROKE_cac29769-8c39-4f74-92d7-a2fc13540434" opacity="1.000" fill="none" stroke="#000000" stroke-width="0.468" stroke-opacity="1.000" stroke-linecap="round" stroke-linejoin="round" d="M -331.195 1286.499 Q -331.195 1286.471 -331.234 1286.395 L -331.244 1286.395 Q -331.479 1286.326 -330.272 1286.438 Q -329.065 1286.551 -329.012 1286.602 "></path>
    <path id="STROKE_a5b49db0-7ed3-46e9-b318-751948c0fae1" opacity="1.000" fill="none" stroke="#000000" stroke-width="0.470" stroke-opacity="1.000" stroke-linecap="round" stroke-linejoin="round" d="M -331.301 1285.241 Q -331.311 1285.241 -331.350 1285.241 Q -331.160 1285.334 -331.027 1285.419 Q -330.893 1285.503 -330.057 1285.494 Q -329.220 1285.485 -329.167 1285.448 "></path>
    <path id="STROKE_0d0b16f0-4d26-4a15-b024-8af5cde0383a" opacity="1.000" fill="none" stroke="#000000" stroke-width="0.468" stroke-opacity="1.000" stroke-linecap="round" stroke-linejoin="round" d="M -330.863 1284.214 Q -330.887 1284.214 -331.039 1284.214 Q -330.473 1284.214 -330.630 1284.214 Q -330.199 1284.235 -329.761 1284.263 Q -329.323 1284.291 -329.245 1284.343 "></path>
    <path id="STROKE_408dfd80-f68e-4e3d-8fff-5db558ee05d2" opacity="1.000" fill="none" stroke="#000000" stroke-width="0.466" stroke-opacity="1.000" stroke-linecap="round" stroke-linejoin="round" d="M -322.033 1283.316 Q -321.653 1283.142 -321.786 1283.213 Q -321.987 1283.375 -321.186 1282.828 Q -321.359 1282.930 -321.362 1282.919 Q -321.258 1282.917 -321.634 1282.943 Q -322.010 1282.969 -324.188 1284.214 Q -324.135 1284.227 -324.082 1284.239 "></path>
    <path id="STROKE_00f87e3a-e401-452e-af09-503a72a1a95e" opacity="1.000" fill="none" stroke="#000000" stroke-width="0.466" stroke-opacity="1.000" stroke-linecap="round" stroke-linejoin="round" d="M -320.642 1283.519 Q -320.918 1283.748 -320.965 1283.747 Q -321.012 1283.746 -321.039 1283.764 Q -321.066 1283.783 -321.022 1283.755 Q -320.978 1283.728 -321.286 1283.918 Q -321.594 1284.108 -322.648 1284.678 Q -322.646 1284.702 -322.440 1284.586 Q -322.235 1284.471 -322.104 1284.367 "></path>
    <path id="STROKE_1800280a-d915-412d-a9c0-1c50ca6e3efc" opacity="1.000" fill="none" stroke="#000000" stroke-width="0.458" stroke-opacity="1.000" stroke-linecap="round" stroke-linejoin="round" d="M -320.642 1284.777 Q -320.791 1285.273 -321.693 1285.635 Q -322.595 1285.998 -322.669 1286.035 "></path>
    <path id="STROKE_0961af89-a4e7-4d3a-b7b8-cb1f10801a8d" opacity="1.000" fill="none" stroke="#000000" stroke-width="0.486" stroke-opacity="1.000" stroke-linecap="round" stroke-linejoin="round" d="M -320.903 1286.267 Q -320.942 1286.273 -320.907 1286.246 Q -320.871 1286.219 -321.248 1286.365 Q -321.626 1286.511 -322.027 1286.852 Q -322.429 1287.192 -322.521 1287.268 "></path>
    <path id="STROKE_b8a65ef3-e5c6-4240-af12-bc3508f64251" opacity="1.000" fill="none" stroke="#000000" stroke-width="0.465" stroke-opacity="1.000" stroke-linecap="round" stroke-linejoin="round" d="M -315.281 1279.029 Q -315.002 1279.030 -316.948 1280.647 Q -316.909 1280.684 -316.870 1280.721 "></path>
    <path id="STROKE_627572ed-1ec0-4c41-b296-41e221afce20" opacity="1.000" fill="none" stroke="#000000" stroke-width="0.465" stroke-opacity="1.000" stroke-linecap="round" stroke-linejoin="round" d="M -314.610 1279.853 Q -314.624 1279.853 -314.687 1279.853 Q -314.590 1279.964 -315.436 1281.363 Q -315.422 1281.350 -315.293 1281.255 Q -315.164 1281.160 -315.048 1281.057 "></path>
    <path id="STROKE_88d40654-cb04-4b78-bb23-b87bbedbdee7" opacity="1.000" fill="none" stroke="#000000" stroke-width="0.465" stroke-opacity="1.000" stroke-linecap="round" stroke-linejoin="round" d="M -313.840 1281.210 Q -314.042 1281.760 -313.995 1281.597 Q -314.183 1282.003 -314.147 1281.930 Q -314.343 1282.401 -314.292 1282.315 Q -314.264 1282.282 -314.532 1282.907 "></path>
    <path id="STROKE_0d7378d4-21a0-4e8a-8ee9-b13309b8f51e" opacity="1.000" fill="none" stroke="#000000" stroke-width="0.508" stroke-opacity="1.000" stroke-linecap="round" stroke-linejoin="round" d="M -313.508 1282.108 Q -313.463 1282.215 -313.556 1282.624 Q -313.649 1283.033 -313.713 1283.109 "></path>
    <path id="STROKE_7c00c6a6-becb-4571-b322-853142cfe440" opacity="1.000" fill="none" stroke="#000000" stroke-width="0.468" stroke-opacity="1.000" stroke-linecap="round" stroke-linejoin="round" d="M -312.837 1275.487 Q -312.826 1275.487 -312.787 1275.487 Q -312.787 1275.784 -312.787 1275.770 Q -312.828 1276.369 -312.834 1276.281 Q -312.840 1276.192 -312.893 1276.281 "></path>
    <path id="STROKE_4ae4e43f-0680-4450-ae4c-fffb24108903" opacity="1.000" fill="none" stroke="#000000" stroke-width="0.468" stroke-opacity="1.000" stroke-linecap="round" stroke-linejoin="round" d="M -312.123 1276.311 Q -312.109 1276.311 -312.046 1276.311 Q -312.083 1276.409 -312.031 1276.763 Q -311.979 1277.117 -311.940 1277.154 "></path>
    <path id="STROKE_adde2e79-017b-4522-a4cd-5c31de9fd816" opacity="1.000" fill="none" stroke="#000000" stroke-width="0.500" stroke-opacity="1.000" stroke-linecap="round" stroke-linejoin="round" d="M -311.431 1277.184 Q -311.327 1277.424 -311.382 1277.229 Q -311.437 1277.034 -311.343 1277.911 Q -311.248 1278.787 -311.248 1278.851 "></path>
    <path id="STROKE_5547aabe-237a-424a-9282-c7d9cfa78898" opacity="1.000" fill="none" stroke="#000000" stroke-width="0.506" stroke-opacity="1.000" stroke-linecap="round" stroke-linejoin="round" d="M -310.993 1278.851 Q -310.978 1278.471 -310.971 1279.194 Q -310.965 1279.917 -310.993 1279.981 "></path>
    <circle id="STROKE_0d37c1e6-96e7-4ee6-a9e7-68b2027cd527" opacity="1.000" fill="#000000" stroke="#000000" stroke-width="0.1" stroke-opacity="1.000" fill-opacity="1.000" cx="-311.763" cy="1274.411" r="0.274"></circle>
    <path id="STROKE_0ef06463-419b-484f-90ab-7be6889cf1d9" opacity="1.000" fill="none" stroke="#000000" stroke-width="0.468" stroke-opacity="1.000" stroke-linecap="round" stroke-linejoin="round" d="M -310.887 1274.589 Q -310.429 1274.589 -310.570 1274.601 Q -310.464 1275.118 -310.506 1274.961 Q -310.506 1275.001 -310.486 1275.046 Q -310.467 1275.092 -310.428 1275.156 "></path>
    <path id="STROKE_c33bafbd-1dfb-40dc-9db6-072b8f0da247" opacity="1.000" fill="none" stroke="#000000" stroke-width="0.509" stroke-opacity="1.000" stroke-linecap="round" stroke-linejoin="round" d="M -345.665 1260.443 Q -345.662 1260.656 -345.695 1260.871 Q -345.727 1261.085 -345.755 1261.150 "></path>
    <path id="STROKE_368f9a7c-9701-4c74-8514-55c993e0e670" opacity="1.000" fill="none" stroke="#000000" stroke-width="0.467" stroke-opacity="1.000" stroke-linecap="round" stroke-linejoin="round" d="M -345.012 1259.974 Q -344.970 1259.748 -344.968 1259.827 L -344.958 1259.827 Q -344.958 1260.130 -344.958 1260.073 Q -344.958 1260.578 -344.958 1260.435 Q -344.958 1260.621 -344.885 1262.425 Q -344.850 1262.442 -344.797 1262.447 Q -344.743 1262.451 -344.689 1262.451 "></path>
    <path id="STROKE_76410ebb-9155-43e0-949b-dd08ad2289c0" opacity="1.000" fill="none" stroke="#000000" stroke-width="0.467" stroke-opacity="1.000" stroke-linecap="round" stroke-linejoin="round" d="M -344.126 1261.585 Q -344.055 1261.783 -344.063 1261.747 Q -343.969 1262.027 -344.001 1261.973 Q -343.995 1262.020 -343.974 1262.138 Q -343.952 1262.256 -343.953 1262.250 Q -343.955 1262.243 -343.975 1262.249 Q -343.996 1262.255 -343.866 1262.557 Q -343.737 1262.858 -343.712 1262.904 "></path>
    <path id="STROKE_6b14883b-f8f6-48a7-9169-bfe77cc2a5b8" opacity="1.000" fill="none" stroke="#000000" stroke-width="0.469" stroke-opacity="1.000" stroke-linecap="round" stroke-linejoin="round" d="M -345.755 1264.609 Q -345.758 1265.032 -345.767 1264.902 Q -345.794 1264.924 -345.865 1265.177 Q -345.936 1265.430 -345.998 1265.976 Q -346.060 1266.522 -346.001 1267.666 Q -345.912 1267.711 -345.847 1267.745 "></path>
    <path id="STROKE_112eab07-4e77-44a4-8d6c-c63b1e77c715" opacity="1.000" fill="none" stroke="#000000" stroke-width="0.469" stroke-opacity="1.000" stroke-linecap="round" stroke-linejoin="round" d="M -344.702 1265.951 Q -344.714 1265.951 -344.745 1265.964 Q -344.745 1266.335 -344.745 1266.278 Q -344.745 1266.784 -344.745 1266.668 Q -344.759 1266.811 -344.714 1267.522 Q -344.692 1267.522 -344.629 1267.482 Q -344.566 1267.442 -344.498 1267.363 "></path>
    <path id="STROKE_5e7b9533-4a73-4bd7-a6b2-15e73d6a7a03" opacity="1.000" fill="none" stroke="#000000" stroke-width="0.460" stroke-opacity="1.000" stroke-linecap="round" stroke-linejoin="round" d="M -343.808 1267.096 Q -343.735 1267.153 -343.402 1267.925 Q -343.069 1268.696 -343.002 1268.752 "></path>
    <path id="STROKE_041e9d80-3799-464f-937a-21adb94cd334" opacity="1.000" fill="none" stroke="#000000" stroke-width="0.465" stroke-opacity="1.000" stroke-linecap="round" stroke-linejoin="round" d="M -345.533 1272.353 Q -345.462 1272.947 -345.462 1272.757 Q -345.499 1272.846 -345.223 1272.941 Q -344.948 1273.037 -344.880 1273.093 "></path>
    <path id="STROKE_ef66fb96-c822-4c3c-842d-95a536d5de19" opacity="1.000" fill="none" stroke="#000000" stroke-width="0.465" stroke-opacity="1.000" stroke-linecap="round" stroke-linejoin="round" d="M -343.716 1272.869 Q -343.740 1272.929 -343.754 1273.049 Q -343.768 1273.168 -343.770 1273.219 Q -343.773 1273.270 -343.737 1273.312 Q -343.701 1273.353 -343.525 1273.561 Q -343.349 1273.769 -343.264 1273.772 Q -343.180 1273.775 -343.088 1273.764 "></path>
    <path id="STROKE_642d9b1a-e6c5-48b9-b72f-77986768df50" opacity="1.000" fill="none" stroke="#000000" stroke-width="0.463" stroke-opacity="1.000" stroke-linecap="round" stroke-linejoin="round" d="M -343.344 1278.786 Q -343.453 1278.990 -343.430 1278.949 Q -343.406 1278.908 -343.477 1278.924 Q -343.549 1278.941 -343.674 1279.773 Q -343.800 1280.606 -343.829 1280.686 "></path>
    <path id="STROKE_5bf9a275-13b6-4fb2-885f-b05958c0873e" opacity="1.000" fill="none" stroke="#000000" stroke-width="0.464" stroke-opacity="1.000" stroke-linecap="round" stroke-linejoin="round" d="M -346.041 1276.651 Q -346.056 1276.651 -346.071 1276.651 Q -346.099 1277.088 -346.100 1277.015 Q -346.176 1277.593 -346.166 1277.480 Q -346.214 1277.552 -346.196 1278.037 Q -346.177 1278.522 -346.152 1278.627 "></path>
    <path id="STROKE_4571da8a-c5e3-43d8-b8f2-18326101ba78" opacity="1.000" fill="none" stroke="#000000" stroke-width="0.466" stroke-opacity="1.000" stroke-linecap="round" stroke-linejoin="round" d="M -318.521 1290.786 Q -318.514 1290.786 -318.508 1290.786 Q -318.692 1290.786 -318.683 1290.786 Q -318.724 1290.775 -319.682 1290.933 Q -320.640 1291.092 -321.932 1290.798 Q -321.944 1290.809 -321.654 1290.794 Q -321.364 1290.779 -321.106 1290.868 Q -320.847 1290.957 -320.800 1290.985 Q -320.752 1291.013 -320.582 1291.169 Q -320.412 1291.325 -320.419 1291.633 Q -320.307 1291.686 -319.876 1291.575 Q -319.445 1291.464 -319.228 1291.319 Q -319.010 1291.174 -318.902 1291.076 Q -318.793 1290.978 -318.803 1290.986 Q -318.813 1290.994 -318.810 1290.986 Q -318.808 1290.979 -318.705 1290.923 Q -318.602 1290.867 -318.607 1290.884 Q -318.329 1290.884 -318.420 1290.884 Q -318.153 1290.884 -318.215 1290.884 Q -318.011 1290.882 -318.052 1290.878 Q -318.142 1290.888 -317.872 1290.848 Q -317.872 1291.115 -317.872 1291.040 Q -317.855 1291.056 -317.958 1291.321 Q -318.117 1291.451 -316.551 1290.334 Q -316.540 1290.523 -316.544 1290.497 Q -316.521 1290.519 -316.568 1290.750 Q -316.615 1290.982 -316.720 1291.348 Q -316.607 1291.344 -316.460 1291.130 Q -316.314 1290.916 -316.181 1290.807 Q -316.047 1290.699 -315.898 1290.634 Q -315.750 1290.570 -315.670 1290.636 Q -315.589 1290.703 -315.560 1290.744 Q -315.531 1290.786 -315.529 1290.873 Q -315.528 1290.961 -315.520 1290.996 Q -315.513 1291.031 -315.535 1291.069 Q -315.558 1291.106 -315.590 1291.163 Q -315.621 1291.220 -315.604 1291.186 Q -315.587 1291.152 -315.771 1291.484 Q -315.725 1291.480 -315.634 1291.396 Q -315.543 1291.312 -315.538 1291.303 Q -315.534 1291.295 -315.456 1291.219 Q -315.378 1291.144 -315.310 1291.081 Q -315.241 1291.017 -315.200 1290.984 Q -315.158 1290.951 -315.084 1290.898 Q -315.009 1290.846 -314.922 1290.817 Q -314.835 1290.788 -314.886 1290.776 Q -314.937 1290.764 -314.540 1290.828 Q -314.521 1290.718 -314.541 1290.955 Q -314.561 1291.192 -314.633 1291.287 Q -314.705 1291.382 -314.751 1291.471 Q -314.798 1291.560 -314.808 1291.566 Q -314.818 1291.573 -314.846 1291.684 Q -314.476 1291.499 -314.578 1291.528 Q -314.289 1291.288 -313.921 1291.044 Q -313.553 1290.800 -313.408 1290.736 Q -313.264 1290.673 -313.123 1290.385 Q -312.924 1290.231 -313.911 1291.648 Q -313.847 1291.574 -313.417 1291.179 Q -312.986 1290.783 -312.680 1290.706 Q -312.373 1290.629 -312.099 1290.560 Q -312.198 1290.512 -312.797 1291.460 Q -312.832 1291.496 -312.524 1291.220 Q -312.217 1290.944 -311.115 1291.229 Q -311.128 1291.228 -311.111 1291.218 Q -311.094 1291.208 -311.099 1291.211 Q -311.103 1291.213 -311.119 1291.217 Q -311.134 1291.222 -311.123 1291.211 Q -311.112 1291.200 -311.011 1291.130 Q -310.910 1291.061 -310.882 1291.054 Q -310.854 1291.046 -310.845 1291.027 Q -310.836 1291.007 -310.880 1291.069 Q -310.924 1291.132 -310.472 1290.610 Q -310.424 1290.374 -310.553 1291.178 Q -310.643 1291.303 -309.815 1291.104 Q -308.987 1290.906 -308.290 1290.860 Q -307.593 1290.814 -307.112 1290.766 Q -306.632 1290.717 -306.322 1290.578 L -306.322 1290.572 Q -306.329 1290.572 -306.388 1290.572 Q -306.388 1290.391 -306.388 1290.441 Q -306.389 1290.314 -306.381 1290.341 Q -306.284 1290.249 -306.465 1289.801 Q -306.645 1289.353 -306.851 1289.085 Q -307.057 1288.817 -307.184 1288.688 Q -307.312 1288.559 -307.925 1288.598 Q -307.868 1288.857 -307.868 1288.780 Q -307.809 1288.828 -307.727 1288.879 Q -307.645 1288.931 -307.646 1288.932 Q -307.647 1288.934 -307.637 1288.934 Q -307.627 1288.934 -307.427 1289.025 Q -307.228 1289.115 -307.148 1289.188 Q -307.068 1289.261 -307.042 1289.350 Q -307.016 1289.439 -307.016 1289.472 Q -307.015 1289.506 -307.058 1289.593 Q -307.102 1289.679 -307.139 1289.677 Q -307.175 1289.675 -307.079 1289.686 Q -306.983 1289.696 -308.010 1289.674 Q -308.044 1289.781 -307.763 1289.769 Q -307.482 1289.758 -307.223 1289.862 Q -306.964 1289.966 -306.951 1289.998 Q -306.938 1290.031 -306.817 1290.172 Q -306.697 1290.313 -306.725 1290.292 Q -306.725 1290.304 -306.734 1290.342 Q -306.743 1290.380 -306.762 1290.411 "></path>
  </g>
</svg>